%TF.GenerationSoftware,KiCad,Pcbnew,(6.0.8)*%
%TF.CreationDate,2022-11-18T04:38:56-05:00*%
%TF.ProjectId,Armstrong_v2.0,41726d73-7472-46f6-9e67-5f76322e302e,rev?*%
%TF.SameCoordinates,Original*%
%TF.FileFunction,Legend,Bot*%
%TF.FilePolarity,Positive*%
%FSLAX46Y46*%
G04 Gerber Fmt 4.6, Leading zero omitted, Abs format (unit mm)*
G04 Created by KiCad (PCBNEW (6.0.8)) date 2022-11-18 04:38:56*
%MOMM*%
%LPD*%
G01*
G04 APERTURE LIST*
%ADD10C,0.120000*%
%ADD11C,0.200000*%
G04 APERTURE END LIST*
D10*
%TO.C,SW\u002A\u002A1*%
X101850000Y-97910000D02*
X101850000Y-102080000D01*
X101210000Y-103100000D02*
X98780000Y-103100000D01*
X98810000Y-96900000D02*
X101180000Y-96900000D01*
X98150000Y-102120000D02*
X98150000Y-97890000D01*
D11*
%TO.C,D1*%
X87850000Y-97300000D02*
X86650000Y-97300000D01*
X88320000Y-96500000D02*
X86650000Y-96500000D01*
D10*
%TO.C,R12*%
X114090000Y-94872936D02*
X114090000Y-96327064D01*
X115910000Y-94872936D02*
X115910000Y-96327064D01*
%TO.C,R11*%
X113310000Y-96327064D02*
X113310000Y-94872936D01*
X111490000Y-96327064D02*
X111490000Y-94872936D01*
%TO.C,R10*%
X95490000Y-88372936D02*
X95490000Y-89827064D01*
X97310000Y-88372936D02*
X97310000Y-89827064D01*
%TO.C,R9*%
X104610000Y-95727064D02*
X104610000Y-94272936D01*
X102790000Y-95727064D02*
X102790000Y-94272936D01*
%TO.C,R7*%
X97310000Y-82527064D02*
X97310000Y-81072936D01*
X95490000Y-82527064D02*
X95490000Y-81072936D01*
%TO.C,R6*%
X104610000Y-89827064D02*
X104610000Y-88372936D01*
X102790000Y-89827064D02*
X102790000Y-88372936D01*
%TO.C,R5*%
X99090000Y-80972936D02*
X99090000Y-82427064D01*
X100910000Y-80972936D02*
X100910000Y-82427064D01*
%TO.C,R4*%
X100910000Y-89827064D02*
X100910000Y-88372936D01*
X99090000Y-89827064D02*
X99090000Y-88372936D01*
%TO.C,R3*%
X115090000Y-101272936D02*
X115090000Y-102727064D01*
X116910000Y-101272936D02*
X116910000Y-102727064D01*
%TO.C,R2*%
X114310000Y-102727064D02*
X114310000Y-101272936D01*
X112490000Y-102727064D02*
X112490000Y-101272936D01*
%TO.C,R1*%
X109840000Y-101272936D02*
X109840000Y-102727064D01*
X111660000Y-101272936D02*
X111660000Y-102727064D01*
%TO.C,TP13*%
X90450000Y-115200000D02*
G75*
G03*
X90450000Y-115200000I-950000J0D01*
G01*
%TO.C,TP12*%
X87950000Y-113100000D02*
G75*
G03*
X87950000Y-113100000I-950000J0D01*
G01*
%TO.C,TP11*%
X105750000Y-117700000D02*
G75*
G03*
X105750000Y-117700000I-950000J0D01*
G01*
%TO.C,TP10*%
X110850000Y-115500000D02*
G75*
G03*
X110850000Y-115500000I-950000J0D01*
G01*
%TO.C,TP9*%
X102650000Y-117700000D02*
G75*
G03*
X102650000Y-117700000I-950000J0D01*
G01*
%TO.C,TP8*%
X113050000Y-113200000D02*
G75*
G03*
X113050000Y-113200000I-950000J0D01*
G01*
%TO.C,TP7*%
X99250000Y-117700000D02*
G75*
G03*
X99250000Y-117700000I-950000J0D01*
G01*
%TO.C,TP6*%
X95850000Y-117600000D02*
G75*
G03*
X95850000Y-117600000I-950000J0D01*
G01*
D11*
%TO.C,U1*%
X109326750Y-80970000D02*
G75*
G03*
X109326750Y-80970000I-100000J0D01*
G01*
%TD*%
M02*
