%TF.GenerationSoftware,KiCad,Pcbnew,(6.0.8)*%
%TF.CreationDate,2022-11-18T04:38:56-05:00*%
%TF.ProjectId,Armstrong_v2.0,41726d73-7472-46f6-9e67-5f76322e302e,rev?*%
%TF.SameCoordinates,Original*%
%TF.FileFunction,Copper,L1,Top*%
%TF.FilePolarity,Positive*%
%FSLAX46Y46*%
G04 Gerber Fmt 4.6, Leading zero omitted, Abs format (unit mm)*
G04 Created by KiCad (PCBNEW (6.0.8)) date 2022-11-18 04:38:56*
%MOMM*%
%LPD*%
G01*
G04 APERTURE LIST*
G04 Aperture macros list*
%AMRoundRect*
0 Rectangle with rounded corners*
0 $1 Rounding radius*
0 $2 $3 $4 $5 $6 $7 $8 $9 X,Y pos of 4 corners*
0 Add a 4 corners polygon primitive as box body*
4,1,4,$2,$3,$4,$5,$6,$7,$8,$9,$2,$3,0*
0 Add four circle primitives for the rounded corners*
1,1,$1+$1,$2,$3*
1,1,$1+$1,$4,$5*
1,1,$1+$1,$6,$7*
1,1,$1+$1,$8,$9*
0 Add four rect primitives between the rounded corners*
20,1,$1+$1,$2,$3,$4,$5,0*
20,1,$1+$1,$4,$5,$6,$7,0*
20,1,$1+$1,$6,$7,$8,$9,0*
20,1,$1+$1,$8,$9,$2,$3,0*%
G04 Aperture macros list end*
%ADD10C,0.300000*%
%TA.AperFunction,NonConductor*%
%ADD11C,0.300000*%
%TD*%
%TA.AperFunction,ComponentPad*%
%ADD12C,2.000000*%
%TD*%
%TA.AperFunction,SMDPad,CuDef*%
%ADD13C,1.000000*%
%TD*%
%TA.AperFunction,SMDPad,CuDef*%
%ADD14RoundRect,0.250000X0.650000X-0.412500X0.650000X0.412500X-0.650000X0.412500X-0.650000X-0.412500X0*%
%TD*%
%TA.AperFunction,SMDPad,CuDef*%
%ADD15RoundRect,0.250000X-0.650000X0.412500X-0.650000X-0.412500X0.650000X-0.412500X0.650000X0.412500X0*%
%TD*%
%TA.AperFunction,SMDPad,CuDef*%
%ADD16R,1.800000X0.650000*%
%TD*%
%TA.AperFunction,ComponentPad*%
%ADD17R,1.524000X1.524000*%
%TD*%
%TA.AperFunction,ComponentPad*%
%ADD18C,1.524000*%
%TD*%
%TA.AperFunction,SMDPad,CuDef*%
%ADD19R,6.600000X2.300000*%
%TD*%
%TA.AperFunction,SMDPad,CuDef*%
%ADD20R,1.900000X0.950000*%
%TD*%
%TA.AperFunction,SMDPad,CuDef*%
%ADD21R,1.900000X3.250000*%
%TD*%
%TA.AperFunction,SMDPad,CuDef*%
%ADD22R,0.300000X1.400000*%
%TD*%
%TA.AperFunction,SMDPad,CuDef*%
%ADD23R,1.880000X1.570000*%
%TD*%
%TA.AperFunction,ViaPad*%
%ADD24C,0.800000*%
%TD*%
%TA.AperFunction,Conductor*%
%ADD25C,0.250000*%
%TD*%
%TA.AperFunction,Conductor*%
%ADD26C,0.500000*%
%TD*%
%TA.AperFunction,Conductor*%
%ADD27C,0.400000*%
%TD*%
G04 APERTURE END LIST*
D10*
D11*
X80400000Y-106371428D02*
X80400000Y-105657142D01*
X80828571Y-106514285D02*
X79328571Y-106014285D01*
X80828571Y-105514285D01*
X80828571Y-104157142D02*
X80114285Y-104657142D01*
X80828571Y-105014285D02*
X79328571Y-105014285D01*
X79328571Y-104442857D01*
X79400000Y-104300000D01*
X79471428Y-104228571D01*
X79614285Y-104157142D01*
X79828571Y-104157142D01*
X79971428Y-104228571D01*
X80042857Y-104300000D01*
X80114285Y-104442857D01*
X80114285Y-105014285D01*
X80828571Y-103514285D02*
X79328571Y-103514285D01*
X80400000Y-103014285D01*
X79328571Y-102514285D01*
X80828571Y-102514285D01*
X80757142Y-101871428D02*
X80828571Y-101657142D01*
X80828571Y-101300000D01*
X80757142Y-101157142D01*
X80685714Y-101085714D01*
X80542857Y-101014285D01*
X80400000Y-101014285D01*
X80257142Y-101085714D01*
X80185714Y-101157142D01*
X80114285Y-101300000D01*
X80042857Y-101585714D01*
X79971428Y-101728571D01*
X79900000Y-101800000D01*
X79757142Y-101871428D01*
X79614285Y-101871428D01*
X79471428Y-101800000D01*
X79400000Y-101728571D01*
X79328571Y-101585714D01*
X79328571Y-101228571D01*
X79400000Y-101014285D01*
X79328571Y-100585714D02*
X79328571Y-99728571D01*
X80828571Y-100157142D02*
X79328571Y-100157142D01*
X80828571Y-98371428D02*
X80114285Y-98871428D01*
X80828571Y-99228571D02*
X79328571Y-99228571D01*
X79328571Y-98657142D01*
X79400000Y-98514285D01*
X79471428Y-98442857D01*
X79614285Y-98371428D01*
X79828571Y-98371428D01*
X79971428Y-98442857D01*
X80042857Y-98514285D01*
X80114285Y-98657142D01*
X80114285Y-99228571D01*
X79328571Y-97442857D02*
X79328571Y-97157142D01*
X79400000Y-97014285D01*
X79542857Y-96871428D01*
X79828571Y-96800000D01*
X80328571Y-96800000D01*
X80614285Y-96871428D01*
X80757142Y-97014285D01*
X80828571Y-97157142D01*
X80828571Y-97442857D01*
X80757142Y-97585714D01*
X80614285Y-97728571D01*
X80328571Y-97800000D01*
X79828571Y-97800000D01*
X79542857Y-97728571D01*
X79400000Y-97585714D01*
X79328571Y-97442857D01*
X80828571Y-96157142D02*
X79328571Y-96157142D01*
X80828571Y-95300000D01*
X79328571Y-95300000D01*
X79400000Y-93800000D02*
X79328571Y-93942857D01*
X79328571Y-94157142D01*
X79400000Y-94371428D01*
X79542857Y-94514285D01*
X79685714Y-94585714D01*
X79971428Y-94657142D01*
X80185714Y-94657142D01*
X80471428Y-94585714D01*
X80614285Y-94514285D01*
X80757142Y-94371428D01*
X80828571Y-94157142D01*
X80828571Y-94014285D01*
X80757142Y-93800000D01*
X80685714Y-93728571D01*
X80185714Y-93728571D01*
X80185714Y-94014285D01*
D12*
%TO.P,TP20,1,1*%
%TO.N,Net-(U1-Pad7)*%
X113650000Y-85300000D03*
%TD*%
%TO.P,TP19,1,1*%
%TO.N,Net-(U1-Pad6)*%
X116150000Y-87900000D03*
%TD*%
%TO.P,TP18,1,1*%
%TO.N,GND*%
X110600000Y-83000000D03*
%TD*%
D13*
%TO.P,TP17,1,1*%
%TO.N,/power/~{CHG}*%
X110050000Y-98850000D03*
%TD*%
%TO.P,TP16,1,1*%
%TO.N,/power/~{PG}*%
X110050000Y-101100000D03*
%TD*%
D14*
%TO.P,C2,1*%
%TO.N,/stimulation/VBOOST*%
X89850000Y-95212500D03*
%TO.P,C2,2*%
%TO.N,GND*%
X89850000Y-92087500D03*
%TD*%
D15*
%TO.P,C1,1*%
%TO.N,/power/VBUS*%
X109800000Y-106387500D03*
%TO.P,C1,2*%
%TO.N,GND*%
X109800000Y-109512500D03*
%TD*%
D12*
%TO.P,TP4,1,1*%
%TO.N,/power/BAT+*%
X117700000Y-93300000D03*
%TD*%
%TO.P,TP3,1,1*%
%TO.N,VCC*%
X118700000Y-102900000D03*
%TD*%
D16*
%TO.P,Q\u002A\u002A2,1,TR1_SOURCE*%
%TO.N,GND*%
X97375000Y-114895000D03*
%TO.P,Q\u002A\u002A2,2,TR1_GATE*%
%TO.N,/stimulation/L_DRIVE1*%
X97375000Y-116165000D03*
%TO.P,Q\u002A\u002A2,3,TR2_SOURCE*%
%TO.N,GND*%
X97375000Y-117435000D03*
%TO.P,Q\u002A\u002A2,4,TR2_GATE*%
%TO.N,/stimulation/L_DRIVE2*%
X97375000Y-118705000D03*
%TO.P,Q\u002A\u002A2,5,TR2_DRAIN_1*%
%TO.N,/stimulation/STIM2*%
X102625000Y-118705000D03*
%TO.P,Q\u002A\u002A2,6,TR2_DRAIN_2*%
X102625000Y-117435000D03*
%TO.P,Q\u002A\u002A2,7,TR1_DRAIN_1*%
%TO.N,/stimulation/STIM1*%
X102625000Y-116165000D03*
%TO.P,Q\u002A\u002A2,8,TR1_DRAIN_2*%
X102625000Y-114895000D03*
%TD*%
D12*
%TO.P,TP15,1,1*%
%TO.N,/stimulation/STIM2*%
X103050000Y-106200000D03*
%TD*%
D17*
%TO.P,U1,1,D13*%
%TO.N,/SCK*%
X107346750Y-80970000D03*
D18*
%TO.P,U1,2,+3V3*%
%TO.N,unconnected-(U1-Pad2)*%
X107346750Y-83510000D03*
%TO.P,U1,3,AREF*%
%TO.N,unconnected-(U1-Pad3)*%
X107346750Y-86050000D03*
%TO.P,U1,4,A0/DAC0*%
%TO.N,unconnected-(U1-Pad4)*%
X107346750Y-88590000D03*
%TO.P,U1,5,A1*%
%TO.N,/stimulation/VSTIM*%
X107346750Y-91130000D03*
%TO.P,U1,6,A2*%
%TO.N,Net-(U1-Pad6)*%
X107346750Y-93670000D03*
%TO.P,U1,7,A3*%
%TO.N,Net-(U1-Pad7)*%
X107346750Y-96210000D03*
%TO.P,U1,8,A4/SDA*%
%TO.N,unconnected-(U1-Pad8)*%
X107346750Y-98750000D03*
%TO.P,U1,9,A5/SCL*%
%TO.N,unconnected-(U1-Pad9)*%
X107346750Y-101290000D03*
%TO.P,U1,10,A6*%
%TO.N,Net-(U1-Pad10)*%
X107346750Y-103830000D03*
%TO.P,U1,11,A7*%
%TO.N,unconnected-(U1-Pad11)*%
X107346750Y-106370000D03*
%TO.P,U1,12,+5V*%
%TO.N,VCC*%
X107346750Y-108910000D03*
%TO.P,U1,13,~{RESET}*%
%TO.N,Net-(U1-Pad13)*%
X107346750Y-111450000D03*
%TO.P,U1,14,GND*%
%TO.N,GND*%
X107346750Y-113990000D03*
%TO.P,U1,15,VIN*%
%TO.N,unconnected-(U1-Pad15)*%
X107346750Y-116530000D03*
%TO.P,U1,16,TX*%
%TO.N,unconnected-(U1-Pad16)*%
X92106750Y-116530000D03*
%TO.P,U1,17,RX*%
%TO.N,unconnected-(U1-Pad17)*%
X92106750Y-113990000D03*
%TO.P,U1,18,~{RESET}*%
%TO.N,Net-(U1-Pad13)*%
X92106750Y-111450000D03*
%TO.P,U1,19,GND*%
%TO.N,GND*%
X92106750Y-108910000D03*
%TO.P,U1,20,D2*%
%TO.N,/stimulation/L_DRIVE1*%
X92106750Y-106370000D03*
%TO.P,U1,21,D3/PWM*%
%TO.N,/stimulation/H_DRIVE1*%
X92106750Y-103830000D03*
%TO.P,U1,22,D4*%
%TO.N,/stimulation/L_DRIVE2*%
X92106750Y-101290000D03*
%TO.P,U1,23,D5/PWM*%
%TO.N,/stimulation/BOOST_CTRL*%
X92106750Y-98750000D03*
%TO.P,U1,24,D6/PWM*%
%TO.N,/stimulation/H_DRIVE2*%
X92106750Y-96210000D03*
%TO.P,U1,25,D7*%
%TO.N,/DC*%
X92106750Y-93670000D03*
%TO.P,U1,26,D8*%
%TO.N,/RST*%
X92106750Y-91130000D03*
%TO.P,U1,27,D9/PWM*%
%TO.N,/BL*%
X92106750Y-88590000D03*
%TO.P,U1,28,D10/PWM*%
%TO.N,unconnected-(U1-Pad28)*%
X92106750Y-86050000D03*
%TO.P,U1,29,D11/MOSI*%
%TO.N,/MOSI*%
X92106750Y-83510000D03*
%TO.P,U1,30,D12/MISO*%
%TO.N,/CS*%
X92106750Y-80970000D03*
%TD*%
D19*
%TO.P,L1,1,1*%
%TO.N,VCC*%
X85000000Y-94632500D03*
%TO.P,L1,2,2*%
%TO.N,Net-(D1-Pad2)*%
X85000000Y-98932500D03*
%TD*%
D12*
%TO.P,TP14,1,1*%
%TO.N,/stimulation/STIM1*%
X97550000Y-106150000D03*
%TD*%
D16*
%TO.P,Q\u002A\u002A3,1,TR1_SOURCE*%
%TO.N,GND*%
X97375000Y-79895000D03*
%TO.P,Q\u002A\u002A3,2,TR1_GATE*%
%TO.N,/stimulation/H_DRIVE1*%
X97375000Y-81165000D03*
%TO.P,Q\u002A\u002A3,3,TR2_SOURCE*%
%TO.N,GND*%
X97375000Y-82435000D03*
%TO.P,Q\u002A\u002A3,4,TR2_GATE*%
%TO.N,/stimulation/H_DRIVE2*%
X97375000Y-83705000D03*
%TO.P,Q\u002A\u002A3,5,TR2_DRAIN_1*%
%TO.N,Net-(Q\u002A\u002A3-Pad5)*%
X102625000Y-83705000D03*
%TO.P,Q\u002A\u002A3,6,TR2_DRAIN_2*%
X102625000Y-82435000D03*
%TO.P,Q\u002A\u002A3,7,TR1_DRAIN_1*%
%TO.N,Net-(Q\u002A\u002A3-Pad7)*%
X102625000Y-81165000D03*
%TO.P,Q\u002A\u002A3,8,TR1_DRAIN_2*%
X102625000Y-79895000D03*
%TD*%
%TO.P,Q\u002A\u002A1,1,TR1_SOURCE*%
%TO.N,GND*%
X87625000Y-105787500D03*
%TO.P,Q\u002A\u002A1,2,TR1_GATE*%
%TO.N,/stimulation/BOOST_CTRL*%
X87625000Y-104517500D03*
%TO.P,Q\u002A\u002A1,3,TR2_SOURCE*%
%TO.N,unconnected-(Q\u002A\u002A1-Pad3)*%
X87625000Y-103247500D03*
%TO.P,Q\u002A\u002A1,4,TR2_GATE*%
%TO.N,unconnected-(Q\u002A\u002A1-Pad4)*%
X87625000Y-101977500D03*
%TO.P,Q\u002A\u002A1,5,TR2_DRAIN_1*%
%TO.N,unconnected-(Q\u002A\u002A1-Pad5)*%
X82375000Y-101977500D03*
%TO.P,Q\u002A\u002A1,6,TR2_DRAIN_2*%
%TO.N,unconnected-(Q\u002A\u002A1-Pad6)*%
X82375000Y-103247500D03*
%TO.P,Q\u002A\u002A1,7,TR1_DRAIN_1*%
%TO.N,Net-(D1-Pad2)*%
X82375000Y-104517500D03*
%TO.P,Q\u002A\u002A1,8,TR1_DRAIN_2*%
X82375000Y-105787500D03*
%TD*%
D12*
%TO.P,TP2,1,1*%
%TO.N,GND*%
X118500000Y-96500000D03*
%TD*%
%TO.P,TP5,1,1*%
%TO.N,/power/BAT+*%
X118900000Y-99800000D03*
%TD*%
D20*
%TO.P,Q2,1,G*%
%TO.N,Net-(Q2-Pad1)*%
X96950000Y-88000000D03*
%TO.P,Q2,2,D_1*%
%TO.N,/stimulation/STIM2*%
X96950000Y-90300000D03*
%TO.P,Q2,3,S*%
%TO.N,/stimulation/VBOOST*%
X96950000Y-92600000D03*
D21*
%TO.P,Q2,4,D_2*%
%TO.N,unconnected-(Q2-Pad4)*%
X103050000Y-90300000D03*
%TD*%
D22*
%TO.P,U2,1,IN*%
%TO.N,/power/VBUS*%
X112200000Y-102200000D03*
%TO.P,U2,2,ISET*%
%TO.N,Net-(R1-Pad2)*%
X112700000Y-102200000D03*
%TO.P,U2,3,VSS*%
%TO.N,GND*%
X113200000Y-102200000D03*
%TO.P,U2,4,PRETERM*%
%TO.N,Net-(R2-Pad1)*%
X113700000Y-102200000D03*
%TO.P,U2,5,~{PG}*%
%TO.N,/power/~{PG}*%
X114200000Y-102200000D03*
%TO.P,U2,6,NC*%
%TO.N,unconnected-(U2-Pad6)*%
X114200000Y-97800000D03*
%TO.P,U2,7,ISET2*%
%TO.N,GND*%
X113700000Y-97800000D03*
%TO.P,U2,8,~{CHG}*%
%TO.N,/power/~{CHG}*%
X113200000Y-97800000D03*
%TO.P,U2,9,TS*%
%TO.N,VCC*%
X112700000Y-97800000D03*
%TO.P,U2,10,OUT*%
%TO.N,/power/BAT+*%
X112200000Y-97800000D03*
D23*
%TO.P,U2,11,EP*%
%TO.N,GND*%
X113200000Y-100000000D03*
%TD*%
D20*
%TO.P,Q1,1,G*%
%TO.N,Net-(Q1-Pad1)*%
X103050000Y-101100000D03*
%TO.P,Q1,2,D_1*%
%TO.N,/stimulation/STIM1*%
X103050000Y-98800000D03*
%TO.P,Q1,3,S*%
%TO.N,/stimulation/VBOOST*%
X103050000Y-96500000D03*
D21*
%TO.P,Q1,4,D_2*%
%TO.N,unconnected-(Q1-Pad4)*%
X96950000Y-98800000D03*
%TD*%
D12*
%TO.P,TP1,1,1*%
%TO.N,/power/VBUS*%
X118000000Y-106000000D03*
%TD*%
D24*
%TO.N,Net-(Q2-Pad1)*%
X94850000Y-88000000D03*
%TO.N,/stimulation/VBOOST*%
X89075500Y-97500000D03*
%TO.N,Net-(D1-Pad2)*%
X85000000Y-96900000D03*
%TO.N,VCC*%
X114600000Y-112050000D03*
%TO.N,/stimulation/VSTIM*%
X110350000Y-94050000D03*
%TO.N,/stimulation/VBOOST*%
X110400000Y-97000000D03*
X108400000Y-97400000D03*
X105000000Y-98000000D03*
%TO.N,VCC*%
X82800000Y-92400000D03*
%TO.N,Net-(R2-Pad1)*%
X115050000Y-105100000D03*
%TO.N,Net-(R1-Pad2)*%
X112700000Y-105350000D03*
%TO.N,Net-(Q\u002A\u002A3-Pad5)*%
X100000000Y-85900000D03*
%TO.N,Net-(Q\u002A\u002A3-Pad7)*%
X101600000Y-85900000D03*
%TO.N,/stimulation/VBOOST*%
X99600000Y-93000000D03*
%TO.N,Net-(Q1-Pad1)*%
X105000000Y-100000000D03*
%TO.N,/stimulation/H_DRIVE1*%
X89800000Y-84700000D03*
X93500000Y-102500000D03*
%TD*%
D25*
%TO.N,Net-(U1-Pad7)*%
X108100000Y-87300000D02*
X106500000Y-87300000D01*
X106500000Y-87300000D02*
X105550000Y-88250000D01*
X109850000Y-85550000D02*
X108100000Y-87300000D01*
X113400000Y-85550000D02*
X109850000Y-85550000D01*
X113650000Y-85300000D02*
X113400000Y-85550000D01*
X105550000Y-88250000D02*
X105550000Y-94413250D01*
X105550000Y-94413250D02*
X107346750Y-96210000D01*
%TO.N,Net-(U1-Pad6)*%
X106550000Y-89850000D02*
X106250000Y-90150000D01*
X110400000Y-89850000D02*
X106550000Y-89850000D01*
X106250000Y-92573250D02*
X107346750Y-93670000D01*
X112350000Y-87900000D02*
X110400000Y-89850000D01*
X106250000Y-90150000D02*
X106250000Y-92573250D01*
X116150000Y-87900000D02*
X112350000Y-87900000D01*
D26*
%TO.N,/stimulation/VBOOST*%
X89075500Y-95987000D02*
X89850000Y-95212500D01*
X89075500Y-97500000D02*
X89075500Y-95987000D01*
X94775000Y-97500000D02*
X95037500Y-97237500D01*
X89075500Y-97500000D02*
X94775000Y-97500000D01*
X95775000Y-96500000D02*
X95037500Y-97237500D01*
X103050000Y-96500000D02*
X95775000Y-96500000D01*
%TO.N,Net-(D1-Pad2)*%
X85000000Y-98932500D02*
X85000000Y-96900000D01*
%TO.N,/power/BAT+*%
X116700000Y-97600000D02*
X118900000Y-99800000D01*
X117700000Y-93300000D02*
X116700000Y-94300000D01*
X116700000Y-94300000D02*
X116700000Y-97600000D01*
%TO.N,VCC*%
X115400000Y-99600000D02*
X118700000Y-102900000D01*
X115400000Y-97250000D02*
X115400000Y-99600000D01*
X114550000Y-96400000D02*
X115400000Y-97250000D01*
X113100000Y-96400000D02*
X114550000Y-96400000D01*
D25*
%TO.N,GND*%
X113700000Y-99500000D02*
X113200000Y-100000000D01*
X113700000Y-97800000D02*
X113700000Y-99500000D01*
D26*
%TO.N,/stimulation/STIM2*%
X102625000Y-117435000D02*
X102625000Y-118705000D01*
X104850000Y-116500000D02*
X104850000Y-108000000D01*
X104850000Y-108000000D02*
X103050000Y-106200000D01*
X102625000Y-117435000D02*
X103915000Y-117435000D01*
X103915000Y-117435000D02*
X104850000Y-116500000D01*
X105900000Y-103350000D02*
X103050000Y-106200000D01*
X105900000Y-96650000D02*
X105900000Y-103350000D01*
D25*
%TO.N,GND*%
X113200000Y-104100000D02*
X113300000Y-104200000D01*
X113200000Y-103500000D02*
X113200000Y-104100000D01*
%TO.N,Net-(R2-Pad1)*%
X113700000Y-103750000D02*
X113700000Y-102200000D01*
X115050000Y-105100000D02*
X113700000Y-103750000D01*
%TO.N,Net-(R1-Pad2)*%
X112700000Y-105350000D02*
X112700000Y-102200000D01*
D26*
%TO.N,Net-(D1-Pad2)*%
X83832500Y-104517500D02*
X82375000Y-104517500D01*
X85000000Y-103350000D02*
X83832500Y-104517500D01*
X85000000Y-98932500D02*
X85000000Y-103350000D01*
%TO.N,/stimulation/STIM2*%
X99550000Y-90300000D02*
X105900000Y-96650000D01*
X96950000Y-90300000D02*
X99550000Y-90300000D01*
D27*
%TO.N,VCC*%
X113100000Y-96500000D02*
X112850000Y-96750000D01*
X113100000Y-96400000D02*
X113100000Y-96500000D01*
D25*
X112700000Y-96500000D02*
X112800000Y-96400000D01*
X112700000Y-97800000D02*
X112700000Y-96500000D01*
D27*
X112800000Y-96400000D02*
X113100000Y-96400000D01*
D25*
%TO.N,Net-(Q2-Pad1)*%
X96950000Y-88000000D02*
X94850000Y-88000000D01*
D26*
%TO.N,/power/VBUS*%
X117250000Y-106750000D02*
X118000000Y-106000000D01*
X110162500Y-106750000D02*
X117250000Y-106750000D01*
X109800000Y-106387500D02*
X110162500Y-106750000D01*
X112100000Y-104087500D02*
X112100000Y-102200000D01*
X109800000Y-106387500D02*
X112100000Y-104087500D01*
%TO.N,VCC*%
X120000000Y-104200000D02*
X118700000Y-102900000D01*
X114600000Y-112050000D02*
X114700000Y-112050000D01*
X114700000Y-112050000D02*
X120000000Y-106750000D01*
X120000000Y-106750000D02*
X120000000Y-104200000D01*
%TO.N,/power/BAT+*%
X112100000Y-96000000D02*
X112100000Y-97800000D01*
X117700000Y-93300000D02*
X114800000Y-93300000D01*
X114800000Y-93300000D02*
X112100000Y-96000000D01*
D25*
%TO.N,/stimulation/VSTIM*%
X110266750Y-94050000D02*
X107346750Y-91130000D01*
X110350000Y-94050000D02*
X110266750Y-94050000D01*
%TO.N,/stimulation/VBOOST*%
X110000000Y-97400000D02*
X110400000Y-97000000D01*
X108400000Y-97400000D02*
X110000000Y-97400000D01*
X104550000Y-98000000D02*
X105000000Y-98000000D01*
X103050000Y-96500000D02*
X104550000Y-98000000D01*
D26*
%TO.N,VCC*%
X82800000Y-92432500D02*
X85000000Y-94632500D01*
D25*
X82800000Y-92400000D02*
X82800000Y-92432500D01*
%TO.N,Net-(Q\u002A\u002A3-Pad5)*%
X102195000Y-83705000D02*
X102625000Y-83705000D01*
X100000000Y-85900000D02*
X102195000Y-83705000D01*
X102625000Y-83705000D02*
X102625000Y-82435000D01*
%TO.N,Net-(Q\u002A\u002A3-Pad7)*%
X103165000Y-81165000D02*
X102625000Y-81165000D01*
X104100000Y-82100000D02*
X103165000Y-81165000D01*
X104100000Y-84105000D02*
X104100000Y-82100000D01*
X102305000Y-85900000D02*
X104100000Y-84105000D01*
X101600000Y-85900000D02*
X102305000Y-85900000D01*
%TO.N,/stimulation/VBOOST*%
X103050000Y-96450000D02*
X103050000Y-96500000D01*
D26*
X99600000Y-93000000D02*
X103050000Y-96450000D01*
X99200000Y-92600000D02*
X96950000Y-92600000D01*
X99600000Y-93000000D02*
X99200000Y-92600000D01*
D25*
%TO.N,Net-(Q\u002A\u002A3-Pad7)*%
X102625000Y-81165000D02*
X102625000Y-79895000D01*
%TO.N,/stimulation/H_DRIVE2*%
X96895000Y-83705000D02*
X97375000Y-83705000D01*
X93900000Y-86700000D02*
X96895000Y-83705000D01*
X93900000Y-94416750D02*
X93900000Y-86700000D01*
X92106750Y-96210000D02*
X93900000Y-94416750D01*
%TO.N,/stimulation/H_DRIVE1*%
X90700000Y-82200000D02*
X94400000Y-82200000D01*
X89800000Y-83100000D02*
X90700000Y-82200000D01*
X95435000Y-81165000D02*
X97375000Y-81165000D01*
X89800000Y-84700000D02*
X89800000Y-83100000D01*
X94400000Y-82200000D02*
X95435000Y-81165000D01*
%TO.N,Net-(Q1-Pad1)*%
X103900000Y-101100000D02*
X105000000Y-100000000D01*
X103050000Y-101100000D02*
X103900000Y-101100000D01*
D26*
%TO.N,/stimulation/STIM1*%
X97600000Y-104250000D02*
X97600000Y-106100000D01*
X103050000Y-98800000D02*
X97600000Y-104250000D01*
D25*
%TO.N,/stimulation/H_DRIVE1*%
X92170000Y-103830000D02*
X93500000Y-102500000D01*
X92106750Y-103830000D02*
X92170000Y-103830000D01*
%TO.N,/stimulation/L_DRIVE2*%
X90800000Y-106800000D02*
X90800000Y-102596750D01*
X91457000Y-107457000D02*
X90800000Y-106800000D01*
X92557000Y-107457000D02*
X91457000Y-107457000D01*
X94600000Y-109500000D02*
X92557000Y-107457000D01*
X94600000Y-116700000D02*
X94600000Y-109500000D01*
X96605000Y-118705000D02*
X94600000Y-116700000D01*
X90800000Y-102596750D02*
X92106750Y-101290000D01*
X97375000Y-118705000D02*
X96605000Y-118705000D01*
%TO.N,/stimulation/L_DRIVE1*%
X95400000Y-109663250D02*
X92106750Y-106370000D01*
X95400000Y-114765000D02*
X95400000Y-109663250D01*
X96800000Y-116165000D02*
X95400000Y-114765000D01*
X97375000Y-116165000D02*
X96800000Y-116165000D01*
%TO.N,/stimulation/BOOST_CTRL*%
X89500000Y-103217500D02*
X89500000Y-101356750D01*
X88200000Y-104517500D02*
X89500000Y-103217500D01*
X89500000Y-101356750D02*
X92106750Y-98750000D01*
X87625000Y-104517500D02*
X88200000Y-104517500D01*
D26*
%TO.N,/stimulation/STIM1*%
X102625000Y-111125000D02*
X97600000Y-106100000D01*
X102625000Y-114895000D02*
X102625000Y-111125000D01*
X102625000Y-114895000D02*
X102625000Y-116165000D01*
D25*
%TO.N,/power/~{PG}*%
X114110000Y-101110000D02*
X110110000Y-101110000D01*
X114200000Y-101200000D02*
X114110000Y-101110000D01*
X114200000Y-102200000D02*
X114200000Y-101200000D01*
%TO.N,/power/~{CHG}*%
X113175000Y-98825000D02*
X110125000Y-98825000D01*
X113200000Y-98800000D02*
X113175000Y-98825000D01*
X113200000Y-97800000D02*
X113200000Y-98800000D01*
%TO.N,GND*%
X113200000Y-102200000D02*
X113200000Y-103500000D01*
D26*
%TO.N,Net-(D1-Pad2)*%
X82375000Y-105787500D02*
X82375000Y-104517500D01*
%TD*%
%TA.AperFunction,Conductor*%
%TO.N,GND*%
G36*
X100459183Y-78205392D02*
G01*
X101366161Y-78243405D01*
X101371416Y-78243735D01*
X101823735Y-78281718D01*
X102276046Y-78319700D01*
X102281294Y-78320252D01*
X102655586Y-78367536D01*
X103181913Y-78434027D01*
X103187100Y-78434791D01*
X104082230Y-78586191D01*
X104087392Y-78587176D01*
X104449849Y-78664219D01*
X104975374Y-78775923D01*
X104980512Y-78777129D01*
X105859757Y-79002881D01*
X105864840Y-79004300D01*
X106733894Y-79266682D01*
X106738913Y-79268313D01*
X107170356Y-79418557D01*
X107596199Y-79566851D01*
X107601123Y-79568682D01*
X107783778Y-79641000D01*
X108095319Y-79764348D01*
X108151293Y-79808023D01*
X108174769Y-79875026D01*
X108158293Y-79944084D01*
X108107098Y-79993273D01*
X108048935Y-80007500D01*
X106565002Y-80007500D01*
X106558934Y-80008707D01*
X106518689Y-80016712D01*
X106518688Y-80016712D01*
X106506519Y-80019133D01*
X106440198Y-80063448D01*
X106433307Y-80073761D01*
X106411314Y-80106676D01*
X106395883Y-80129769D01*
X106393462Y-80141938D01*
X106393462Y-80141939D01*
X106390891Y-80154865D01*
X106384250Y-80188252D01*
X106384250Y-81751748D01*
X106385457Y-81757816D01*
X106389207Y-81776666D01*
X106395883Y-81810231D01*
X106440198Y-81876552D01*
X106450511Y-81883443D01*
X106494255Y-81912672D01*
X106506519Y-81920867D01*
X106518688Y-81923288D01*
X106518689Y-81923288D01*
X106549699Y-81929456D01*
X106565002Y-81932500D01*
X108128498Y-81932500D01*
X108143801Y-81929456D01*
X108174811Y-81923288D01*
X108174812Y-81923288D01*
X108186981Y-81920867D01*
X108199246Y-81912672D01*
X108242989Y-81883443D01*
X108253302Y-81876552D01*
X108297617Y-81810231D01*
X108304294Y-81776666D01*
X108306039Y-81767890D01*
X109732093Y-81767890D01*
X109735876Y-81776666D01*
X110587188Y-82627978D01*
X110601132Y-82635592D01*
X110602965Y-82635461D01*
X110609580Y-82631210D01*
X111461080Y-81779710D01*
X111467840Y-81767330D01*
X111462113Y-81759680D01*
X111290958Y-81654795D01*
X111282163Y-81650313D01*
X111072012Y-81563266D01*
X111062627Y-81560217D01*
X110841446Y-81507115D01*
X110831699Y-81505572D01*
X110604930Y-81487725D01*
X110595070Y-81487725D01*
X110368301Y-81505572D01*
X110358554Y-81507115D01*
X110137373Y-81560217D01*
X110127988Y-81563266D01*
X109917837Y-81650313D01*
X109909042Y-81654795D01*
X109741555Y-81757432D01*
X109732093Y-81767890D01*
X108306039Y-81767890D01*
X108308043Y-81757816D01*
X108309250Y-81751748D01*
X108309250Y-80188252D01*
X108302609Y-80154865D01*
X108300038Y-80141939D01*
X108300038Y-80141938D01*
X108297617Y-80129769D01*
X108290724Y-80119453D01*
X108290724Y-80119452D01*
X108262796Y-80077657D01*
X108241580Y-80009904D01*
X108260362Y-79941437D01*
X108313178Y-79893993D01*
X108383261Y-79882635D01*
X108413942Y-79890500D01*
X108422765Y-79893993D01*
X108445197Y-79902875D01*
X108450056Y-79904917D01*
X109279366Y-80274150D01*
X109284141Y-80276397D01*
X110097256Y-80680031D01*
X110101933Y-80682476D01*
X110897446Y-81119813D01*
X110902016Y-81122452D01*
X111423501Y-81438274D01*
X111678512Y-81592714D01*
X111682945Y-81595528D01*
X112357858Y-82043939D01*
X112439068Y-82097895D01*
X112443402Y-82100907D01*
X113081371Y-82564418D01*
X113177822Y-82634494D01*
X113182024Y-82637683D01*
X113817613Y-83141445D01*
X113893460Y-83201561D01*
X113897524Y-83204923D01*
X114255020Y-83513505D01*
X114584710Y-83798085D01*
X114588630Y-83801615D01*
X115240076Y-84413363D01*
X115250389Y-84423048D01*
X115254156Y-84426737D01*
X115824735Y-85009392D01*
X115889311Y-85075335D01*
X115892924Y-85079183D01*
X116500340Y-85753788D01*
X116503789Y-85757783D01*
X117082445Y-86457258D01*
X117085723Y-86461393D01*
X117634584Y-87184491D01*
X117637666Y-87188734D01*
X118134284Y-87903272D01*
X118155769Y-87934185D01*
X118158679Y-87938566D01*
X118338199Y-88221445D01*
X118645096Y-88705038D01*
X118647830Y-88709552D01*
X119101723Y-89495718D01*
X119104266Y-89500343D01*
X119524851Y-90304846D01*
X119527197Y-90309573D01*
X119913705Y-91130946D01*
X119915852Y-91135767D01*
X120267255Y-91971718D01*
X120267639Y-91972632D01*
X120269575Y-91977522D01*
X120585970Y-92828282D01*
X120586018Y-92828411D01*
X120587750Y-92833385D01*
X120868281Y-93696773D01*
X120869790Y-93701773D01*
X121016920Y-94228730D01*
X121113916Y-94576132D01*
X121115229Y-94581244D01*
X121322527Y-95465064D01*
X121323624Y-95470226D01*
X121493727Y-96361937D01*
X121494607Y-96367141D01*
X121627216Y-97265172D01*
X121627878Y-97270407D01*
X121660380Y-97579637D01*
X121720973Y-98156136D01*
X121722772Y-98173255D01*
X121723212Y-98178498D01*
X121753214Y-98655378D01*
X121780212Y-99084498D01*
X121780433Y-99089771D01*
X121788618Y-99480491D01*
X121799329Y-99991812D01*
X121799445Y-99997361D01*
X121799445Y-100002626D01*
X121790529Y-100428282D01*
X121780433Y-100910229D01*
X121780212Y-100915502D01*
X121759552Y-101243895D01*
X121724560Y-101800083D01*
X121723213Y-101821486D01*
X121722773Y-101826730D01*
X121683038Y-102204789D01*
X121627878Y-102729593D01*
X121627216Y-102734828D01*
X121494607Y-103632859D01*
X121493727Y-103638063D01*
X121323624Y-104529774D01*
X121322527Y-104534936D01*
X121115229Y-105418756D01*
X121113916Y-105423868D01*
X121072523Y-105572120D01*
X120869790Y-106298227D01*
X120868281Y-106303227D01*
X120701080Y-106817820D01*
X120696333Y-106832429D01*
X120656260Y-106891035D01*
X120590863Y-106918672D01*
X120520906Y-106906565D01*
X120468600Y-106858559D01*
X120450500Y-106793493D01*
X120450500Y-106761984D01*
X120450597Y-106757037D01*
X120452048Y-106720110D01*
X120452838Y-106700006D01*
X120450954Y-106692900D01*
X120450500Y-106684653D01*
X120450500Y-104234220D01*
X120451373Y-104219411D01*
X120454257Y-104195043D01*
X120455364Y-104185690D01*
X120453672Y-104176426D01*
X120453672Y-104176422D01*
X120444827Y-104127989D01*
X120444178Y-104124088D01*
X120436851Y-104075355D01*
X120436849Y-104075347D01*
X120435449Y-104066038D01*
X120432323Y-104059528D01*
X120431026Y-104052427D01*
X120407958Y-104008017D01*
X120403982Y-104000363D01*
X120402214Y-103996825D01*
X120380886Y-103952411D01*
X120376809Y-103943921D01*
X120371926Y-103938640D01*
X120371891Y-103938588D01*
X120368580Y-103932212D01*
X120364276Y-103927172D01*
X120327037Y-103889933D01*
X120323607Y-103886367D01*
X120313688Y-103875637D01*
X120284854Y-103844444D01*
X120278497Y-103840752D01*
X120272348Y-103835244D01*
X120069963Y-103632859D01*
X119863421Y-103426318D01*
X119829396Y-103364005D01*
X119833203Y-103296721D01*
X119870472Y-103186930D01*
X119870473Y-103186925D01*
X119872331Y-103181452D01*
X119875677Y-103158379D01*
X119889557Y-103062647D01*
X119903991Y-102963098D01*
X119905643Y-102900000D01*
X119885454Y-102680289D01*
X119880971Y-102664391D01*
X119833073Y-102494559D01*
X119825565Y-102467936D01*
X119727980Y-102270053D01*
X119717648Y-102256216D01*
X119599420Y-102097891D01*
X119599420Y-102097890D01*
X119595967Y-102093267D01*
X119484673Y-101990388D01*
X119438189Y-101947418D01*
X119438186Y-101947416D01*
X119433949Y-101943499D01*
X119247350Y-101825764D01*
X119042421Y-101744006D01*
X119036761Y-101742880D01*
X119036757Y-101742879D01*
X118831691Y-101702089D01*
X118831688Y-101702089D01*
X118826024Y-101700962D01*
X118820249Y-101700886D01*
X118820245Y-101700886D01*
X118709504Y-101699437D01*
X118605406Y-101698074D01*
X118599709Y-101699053D01*
X118599708Y-101699053D01*
X118393654Y-101734459D01*
X118393653Y-101734459D01*
X118387957Y-101735438D01*
X118362605Y-101744791D01*
X118306267Y-101765575D01*
X118235433Y-101770387D01*
X118173561Y-101736458D01*
X115887405Y-99450302D01*
X115853379Y-99387990D01*
X115850500Y-99361207D01*
X115850500Y-97284220D01*
X115851373Y-97269411D01*
X115854257Y-97245043D01*
X115855364Y-97235690D01*
X115853672Y-97226426D01*
X115853672Y-97226422D01*
X115844827Y-97177989D01*
X115844178Y-97174088D01*
X115836851Y-97125355D01*
X115836849Y-97125347D01*
X115835449Y-97116038D01*
X115832323Y-97109528D01*
X115831026Y-97102427D01*
X115816520Y-97074500D01*
X115803982Y-97050363D01*
X115802214Y-97046825D01*
X115780886Y-97002411D01*
X115776809Y-96993921D01*
X115771926Y-96988640D01*
X115771891Y-96988588D01*
X115768580Y-96982212D01*
X115764276Y-96977172D01*
X115727037Y-96939933D01*
X115723607Y-96936367D01*
X115691245Y-96901357D01*
X115691242Y-96901355D01*
X115684854Y-96894444D01*
X115678499Y-96890753D01*
X115672349Y-96885245D01*
X114892748Y-96105645D01*
X114882893Y-96094555D01*
X114867703Y-96075287D01*
X114861872Y-96067890D01*
X114854125Y-96062535D01*
X114854123Y-96062534D01*
X114822790Y-96040879D01*
X114813615Y-96034538D01*
X114810403Y-96032243D01*
X114804643Y-96027988D01*
X114763184Y-95997366D01*
X114756368Y-95994973D01*
X114750431Y-95990869D01*
X114741451Y-95988029D01*
X114741449Y-95988028D01*
X114708140Y-95977494D01*
X114694481Y-95973174D01*
X114690750Y-95971929D01*
X114644263Y-95955604D01*
X114644261Y-95955604D01*
X114635369Y-95952481D01*
X114628181Y-95952199D01*
X114628122Y-95952188D01*
X114621270Y-95950020D01*
X114614663Y-95949500D01*
X114561984Y-95949500D01*
X114557037Y-95949403D01*
X114500006Y-95947162D01*
X114492900Y-95949046D01*
X114484653Y-95949500D01*
X113091793Y-95949500D01*
X113023672Y-95929498D01*
X112977179Y-95875842D01*
X112967075Y-95805568D01*
X112996569Y-95740988D01*
X113002698Y-95734405D01*
X114949698Y-93787405D01*
X115012010Y-93753379D01*
X115038793Y-93750500D01*
X116305966Y-93750500D01*
X116374087Y-93770502D01*
X116420580Y-93824158D01*
X116430684Y-93894432D01*
X116401190Y-93959012D01*
X116383972Y-93975450D01*
X116367890Y-93988128D01*
X116362535Y-93995875D01*
X116362534Y-93995877D01*
X116334545Y-94036375D01*
X116332243Y-94039597D01*
X116310717Y-94068741D01*
X116297366Y-94086816D01*
X116294973Y-94093632D01*
X116290869Y-94099569D01*
X116288029Y-94108549D01*
X116288028Y-94108551D01*
X116273182Y-94155495D01*
X116271929Y-94159250D01*
X116258120Y-94198574D01*
X116252481Y-94214631D01*
X116252199Y-94221819D01*
X116252188Y-94221878D01*
X116250020Y-94228730D01*
X116249500Y-94235337D01*
X116249500Y-94288016D01*
X116249403Y-94292962D01*
X116247162Y-94349994D01*
X116249046Y-94357100D01*
X116249500Y-94365347D01*
X116249500Y-97565780D01*
X116248627Y-97580589D01*
X116244636Y-97614310D01*
X116246328Y-97623574D01*
X116246328Y-97623575D01*
X116255172Y-97672001D01*
X116255822Y-97675904D01*
X116264551Y-97733962D01*
X116267679Y-97740475D01*
X116268975Y-97747573D01*
X116296025Y-97799647D01*
X116297768Y-97803137D01*
X116323191Y-97856079D01*
X116328077Y-97861365D01*
X116328110Y-97861413D01*
X116331421Y-97867788D01*
X116335725Y-97872828D01*
X116372952Y-97910055D01*
X116376381Y-97913620D01*
X116415146Y-97955556D01*
X116421505Y-97959249D01*
X116427663Y-97964766D01*
X117735977Y-99273080D01*
X117770003Y-99335392D01*
X117767215Y-99399539D01*
X117731170Y-99515623D01*
X117720703Y-99549333D01*
X117694770Y-99768440D01*
X117709200Y-99988604D01*
X117710621Y-99994200D01*
X117710622Y-99994205D01*
X117749824Y-100148561D01*
X117763511Y-100202452D01*
X117765928Y-100207694D01*
X117765928Y-100207695D01*
X117804046Y-100290379D01*
X117855883Y-100402821D01*
X117983222Y-100583002D01*
X118141264Y-100736961D01*
X118146060Y-100740166D01*
X118146063Y-100740168D01*
X118280016Y-100829672D01*
X118324717Y-100859540D01*
X118330020Y-100861818D01*
X118330023Y-100861820D01*
X118522129Y-100944355D01*
X118527436Y-100946635D01*
X118585564Y-100959788D01*
X118736995Y-100994054D01*
X118737001Y-100994055D01*
X118742632Y-100995329D01*
X118748403Y-100995556D01*
X118748405Y-100995556D01*
X118816211Y-100998220D01*
X118963098Y-101003991D01*
X119072275Y-100988161D01*
X119175738Y-100973160D01*
X119175743Y-100973159D01*
X119181452Y-100972331D01*
X119186916Y-100970476D01*
X119186921Y-100970475D01*
X119384907Y-100903268D01*
X119384912Y-100903266D01*
X119390379Y-100901410D01*
X119407552Y-100891793D01*
X119542382Y-100816284D01*
X119582884Y-100793602D01*
X119606902Y-100773627D01*
X119748086Y-100656204D01*
X119752518Y-100652518D01*
X119830098Y-100559239D01*
X119889908Y-100487326D01*
X119889910Y-100487323D01*
X119893602Y-100482884D01*
X119972527Y-100341953D01*
X119998586Y-100295422D01*
X119998587Y-100295420D01*
X120001410Y-100290379D01*
X120003266Y-100284912D01*
X120003268Y-100284907D01*
X120070475Y-100086921D01*
X120070476Y-100086916D01*
X120072331Y-100081452D01*
X120073159Y-100075743D01*
X120073160Y-100075738D01*
X120096926Y-99911822D01*
X120103991Y-99863098D01*
X120105643Y-99800000D01*
X120085454Y-99580289D01*
X120083459Y-99573213D01*
X120038386Y-99413397D01*
X120025565Y-99367936D01*
X119927980Y-99170053D01*
X119912066Y-99148741D01*
X119799420Y-98997891D01*
X119799420Y-98997890D01*
X119795967Y-98993267D01*
X119663179Y-98870519D01*
X119638189Y-98847418D01*
X119638186Y-98847416D01*
X119633949Y-98843499D01*
X119447350Y-98725764D01*
X119242421Y-98644006D01*
X119236761Y-98642880D01*
X119236757Y-98642879D01*
X119031691Y-98602089D01*
X119031688Y-98602089D01*
X119026024Y-98600962D01*
X119020249Y-98600886D01*
X119020245Y-98600886D01*
X118909504Y-98599437D01*
X118805406Y-98598074D01*
X118799709Y-98599053D01*
X118799708Y-98599053D01*
X118593654Y-98634459D01*
X118593653Y-98634459D01*
X118587957Y-98635438D01*
X118520645Y-98660271D01*
X118506267Y-98665575D01*
X118435433Y-98670387D01*
X118373561Y-98636458D01*
X117871326Y-98134223D01*
X117837300Y-98071911D01*
X117842365Y-98001096D01*
X117884912Y-97944260D01*
X117951432Y-97919449D01*
X118008640Y-97928719D01*
X118027993Y-97936735D01*
X118037373Y-97939783D01*
X118258554Y-97992885D01*
X118268301Y-97994428D01*
X118495070Y-98012275D01*
X118504930Y-98012275D01*
X118731699Y-97994428D01*
X118741446Y-97992885D01*
X118962627Y-97939783D01*
X118972012Y-97936734D01*
X119182163Y-97849687D01*
X119190958Y-97845205D01*
X119358445Y-97742568D01*
X119367907Y-97732110D01*
X119364124Y-97723334D01*
X118141922Y-96501132D01*
X118864408Y-96501132D01*
X118864539Y-96502965D01*
X118868790Y-96509580D01*
X119720290Y-97361080D01*
X119732670Y-97367840D01*
X119740320Y-97362113D01*
X119845205Y-97190958D01*
X119849687Y-97182163D01*
X119936734Y-96972012D01*
X119939783Y-96962627D01*
X119992885Y-96741446D01*
X119994428Y-96731699D01*
X120012275Y-96504930D01*
X120012275Y-96495070D01*
X119994428Y-96268301D01*
X119992885Y-96258554D01*
X119939783Y-96037373D01*
X119936734Y-96027988D01*
X119849687Y-95817837D01*
X119845205Y-95809042D01*
X119742568Y-95641555D01*
X119732110Y-95632093D01*
X119723334Y-95635876D01*
X118872022Y-96487188D01*
X118864408Y-96501132D01*
X118141922Y-96501132D01*
X117279710Y-95638920D01*
X117248412Y-95621829D01*
X117216116Y-95614804D01*
X117165913Y-95564603D01*
X117150500Y-95504216D01*
X117150500Y-95267890D01*
X117632093Y-95267890D01*
X117635876Y-95276666D01*
X118487188Y-96127978D01*
X118501132Y-96135592D01*
X118502965Y-96135461D01*
X118509580Y-96131210D01*
X119361080Y-95279710D01*
X119367840Y-95267330D01*
X119362113Y-95259680D01*
X119190958Y-95154795D01*
X119182163Y-95150313D01*
X118972012Y-95063266D01*
X118962627Y-95060217D01*
X118741446Y-95007115D01*
X118731699Y-95005572D01*
X118504930Y-94987725D01*
X118495070Y-94987725D01*
X118268301Y-95005572D01*
X118258554Y-95007115D01*
X118037373Y-95060217D01*
X118027988Y-95063266D01*
X117817837Y-95150313D01*
X117809042Y-95154795D01*
X117641555Y-95257432D01*
X117632093Y-95267890D01*
X117150500Y-95267890D01*
X117150500Y-94561887D01*
X117170502Y-94493766D01*
X117224158Y-94447273D01*
X117294432Y-94437169D01*
X117316384Y-94443349D01*
X117316637Y-94442570D01*
X117322126Y-94444353D01*
X117327436Y-94446635D01*
X117333072Y-94447910D01*
X117333071Y-94447910D01*
X117536995Y-94494054D01*
X117537001Y-94494055D01*
X117542632Y-94495329D01*
X117548403Y-94495556D01*
X117548405Y-94495556D01*
X117616211Y-94498220D01*
X117763098Y-94503991D01*
X117872275Y-94488161D01*
X117975738Y-94473160D01*
X117975743Y-94473159D01*
X117981452Y-94472331D01*
X117986916Y-94470476D01*
X117986921Y-94470475D01*
X118184907Y-94403268D01*
X118184912Y-94403266D01*
X118190379Y-94401410D01*
X118203170Y-94394247D01*
X118289608Y-94345839D01*
X118382884Y-94293602D01*
X118389601Y-94288016D01*
X118548086Y-94156204D01*
X118552518Y-94152518D01*
X118593751Y-94102941D01*
X118689908Y-93987326D01*
X118689910Y-93987323D01*
X118693602Y-93982884D01*
X118801410Y-93790379D01*
X118803266Y-93784912D01*
X118803268Y-93784907D01*
X118870475Y-93586921D01*
X118870476Y-93586916D01*
X118872331Y-93581452D01*
X118873159Y-93575743D01*
X118873160Y-93575738D01*
X118903458Y-93366772D01*
X118903991Y-93363098D01*
X118905643Y-93300000D01*
X118885454Y-93080289D01*
X118883217Y-93072355D01*
X118852605Y-92963815D01*
X118825565Y-92867936D01*
X118727980Y-92670053D01*
X118654550Y-92571718D01*
X118599420Y-92497891D01*
X118599420Y-92497890D01*
X118595967Y-92493267D01*
X118486214Y-92391812D01*
X118438189Y-92347418D01*
X118438186Y-92347416D01*
X118433949Y-92343499D01*
X118247350Y-92225764D01*
X118042421Y-92144006D01*
X118036761Y-92142880D01*
X118036757Y-92142879D01*
X117831691Y-92102089D01*
X117831688Y-92102089D01*
X117826024Y-92100962D01*
X117820249Y-92100886D01*
X117820245Y-92100886D01*
X117709504Y-92099437D01*
X117605406Y-92098074D01*
X117599709Y-92099053D01*
X117599708Y-92099053D01*
X117393654Y-92134459D01*
X117393653Y-92134459D01*
X117387957Y-92135438D01*
X117180957Y-92211804D01*
X117175996Y-92214756D01*
X117175995Y-92214756D01*
X117013216Y-92311600D01*
X116991341Y-92324614D01*
X116825457Y-92470090D01*
X116688863Y-92643360D01*
X116638711Y-92738683D01*
X116615832Y-92782168D01*
X116566413Y-92833140D01*
X116504324Y-92849500D01*
X114834220Y-92849500D01*
X114819411Y-92848627D01*
X114795043Y-92845743D01*
X114785690Y-92844636D01*
X114776426Y-92846328D01*
X114776422Y-92846328D01*
X114727989Y-92855173D01*
X114724088Y-92855822D01*
X114675355Y-92863149D01*
X114675347Y-92863151D01*
X114666038Y-92864551D01*
X114659528Y-92867677D01*
X114652427Y-92868974D01*
X114644072Y-92873314D01*
X114600363Y-92896018D01*
X114596825Y-92897786D01*
X114552411Y-92919114D01*
X114543921Y-92923191D01*
X114538640Y-92928074D01*
X114538588Y-92928109D01*
X114532212Y-92931420D01*
X114527172Y-92935724D01*
X114489932Y-92972964D01*
X114486367Y-92976393D01*
X114444444Y-93015146D01*
X114440752Y-93021503D01*
X114435239Y-93027657D01*
X111805650Y-95657247D01*
X111794561Y-95667101D01*
X111775291Y-95682293D01*
X111775289Y-95682295D01*
X111767890Y-95688128D01*
X111762535Y-95695875D01*
X111762534Y-95695877D01*
X111747510Y-95717616D01*
X111735907Y-95734405D01*
X111734545Y-95736375D01*
X111732250Y-95739587D01*
X111697366Y-95786816D01*
X111694973Y-95793632D01*
X111690869Y-95799569D01*
X111676262Y-95845757D01*
X111673182Y-95855495D01*
X111671929Y-95859250D01*
X111666103Y-95875842D01*
X111652481Y-95914631D01*
X111652199Y-95921819D01*
X111652188Y-95921878D01*
X111650020Y-95928730D01*
X111649500Y-95935337D01*
X111649500Y-95988016D01*
X111649403Y-95992962D01*
X111647162Y-96049994D01*
X111649046Y-96057100D01*
X111649500Y-96065347D01*
X111649500Y-97833850D01*
X111650199Y-97838497D01*
X111650199Y-97838502D01*
X111660859Y-97909405D01*
X111664551Y-97933962D01*
X111723191Y-98056079D01*
X111729583Y-98062994D01*
X111815146Y-98155556D01*
X111812463Y-98158036D01*
X111842932Y-98201639D01*
X111849500Y-98241789D01*
X111849500Y-98373500D01*
X111829498Y-98441621D01*
X111775842Y-98488114D01*
X111723500Y-98499500D01*
X110725433Y-98499500D01*
X110657312Y-98479498D01*
X110621593Y-98444867D01*
X110583617Y-98389612D01*
X110583615Y-98389609D01*
X110579312Y-98383349D01*
X110504028Y-98316273D01*
X110458392Y-98275612D01*
X110458388Y-98275610D01*
X110452721Y-98270560D01*
X110419923Y-98253194D01*
X110385080Y-98234746D01*
X110302881Y-98191224D01*
X110138441Y-98149919D01*
X110130843Y-98149879D01*
X110130841Y-98149879D01*
X110053668Y-98149475D01*
X109968895Y-98149031D01*
X109961508Y-98150805D01*
X109961504Y-98150805D01*
X109818162Y-98185220D01*
X109804032Y-98188612D01*
X109797288Y-98192093D01*
X109797285Y-98192094D01*
X109667776Y-98258939D01*
X109653369Y-98266375D01*
X109647647Y-98271367D01*
X109647645Y-98271368D01*
X109594090Y-98318087D01*
X109525604Y-98377831D01*
X109517324Y-98389612D01*
X109440094Y-98499500D01*
X109428113Y-98516547D01*
X109366524Y-98674513D01*
X109365532Y-98682046D01*
X109365532Y-98682047D01*
X109352570Y-98780509D01*
X109344394Y-98842611D01*
X109362999Y-99011135D01*
X109384588Y-99070130D01*
X109417230Y-99159326D01*
X109421266Y-99170356D01*
X109425502Y-99176659D01*
X109425502Y-99176660D01*
X109440617Y-99199153D01*
X109515830Y-99311083D01*
X109521442Y-99316190D01*
X109521445Y-99316193D01*
X109635612Y-99420077D01*
X109635616Y-99420080D01*
X109641233Y-99425191D01*
X109647906Y-99428814D01*
X109647910Y-99428817D01*
X109783558Y-99502467D01*
X109783560Y-99502468D01*
X109790235Y-99506092D01*
X109797584Y-99508020D01*
X109946883Y-99547188D01*
X109946885Y-99547188D01*
X109954233Y-99549116D01*
X110040609Y-99550473D01*
X110116161Y-99551660D01*
X110116164Y-99551660D01*
X110123760Y-99551779D01*
X110131165Y-99550083D01*
X110131166Y-99550083D01*
X110191586Y-99536245D01*
X110289029Y-99513928D01*
X110440498Y-99437747D01*
X110556560Y-99338620D01*
X110563651Y-99332564D01*
X110563652Y-99332563D01*
X110569423Y-99327634D01*
X110659000Y-99202974D01*
X110714995Y-99159326D01*
X110761323Y-99150500D01*
X111626000Y-99150500D01*
X111694121Y-99170502D01*
X111740614Y-99224158D01*
X111752000Y-99276500D01*
X111752000Y-99727885D01*
X111756475Y-99743124D01*
X111757865Y-99744329D01*
X111765548Y-99746000D01*
X114629884Y-99746000D01*
X114645123Y-99741525D01*
X114646328Y-99740135D01*
X114647999Y-99732452D01*
X114647999Y-99170331D01*
X114647629Y-99163510D01*
X114642105Y-99112648D01*
X114638479Y-99097396D01*
X114593324Y-98976946D01*
X114584786Y-98961351D01*
X114508285Y-98859276D01*
X114495725Y-98846716D01*
X114493838Y-98845302D01*
X114492436Y-98843427D01*
X114489374Y-98840365D01*
X114489816Y-98839923D01*
X114451321Y-98788445D01*
X114446292Y-98717626D01*
X114480304Y-98655378D01*
X114484239Y-98651443D01*
X114494552Y-98644552D01*
X114538867Y-98578231D01*
X114542466Y-98560141D01*
X114549293Y-98525816D01*
X114550500Y-98519748D01*
X114550500Y-97341794D01*
X114570502Y-97273673D01*
X114624158Y-97227180D01*
X114694432Y-97217076D01*
X114759012Y-97246570D01*
X114765595Y-97252699D01*
X114912595Y-97399699D01*
X114946621Y-97462011D01*
X114949500Y-97488794D01*
X114949500Y-99565780D01*
X114948627Y-99580589D01*
X114944636Y-99614310D01*
X114946328Y-99623574D01*
X114946328Y-99623575D01*
X114955172Y-99672001D01*
X114955822Y-99675904D01*
X114961993Y-99716945D01*
X114964551Y-99733962D01*
X114967679Y-99740475D01*
X114968975Y-99747573D01*
X114996025Y-99799647D01*
X114997768Y-99803137D01*
X115023191Y-99856079D01*
X115028077Y-99861365D01*
X115028110Y-99861413D01*
X115031421Y-99867788D01*
X115035725Y-99872828D01*
X115072952Y-99910055D01*
X115076381Y-99913620D01*
X115115146Y-99955556D01*
X115121505Y-99959249D01*
X115127663Y-99964766D01*
X117535977Y-102373080D01*
X117570003Y-102435392D01*
X117567215Y-102499539D01*
X117524536Y-102636990D01*
X117520703Y-102649333D01*
X117494770Y-102868440D01*
X117509200Y-103088604D01*
X117510621Y-103094200D01*
X117510622Y-103094205D01*
X117561223Y-103293442D01*
X117563511Y-103302452D01*
X117565928Y-103307694D01*
X117565928Y-103307695D01*
X117592906Y-103366215D01*
X117655883Y-103502821D01*
X117783222Y-103683002D01*
X117941264Y-103836961D01*
X117946060Y-103840166D01*
X117946063Y-103840168D01*
X118036951Y-103900897D01*
X118124717Y-103959540D01*
X118130020Y-103961818D01*
X118130023Y-103961820D01*
X118314453Y-104041057D01*
X118327436Y-104046635D01*
X118380097Y-104058551D01*
X118536995Y-104094054D01*
X118537001Y-104094055D01*
X118542632Y-104095329D01*
X118548403Y-104095556D01*
X118548405Y-104095556D01*
X118616211Y-104098220D01*
X118763098Y-104103991D01*
X118891748Y-104085338D01*
X118975730Y-104073161D01*
X118975734Y-104073160D01*
X118981452Y-104072331D01*
X118986924Y-104070473D01*
X118986926Y-104070473D01*
X119022046Y-104058551D01*
X119096722Y-104033202D01*
X119167655Y-104030245D01*
X119226317Y-104063420D01*
X119512595Y-104349698D01*
X119546621Y-104412010D01*
X119549500Y-104438793D01*
X119549500Y-106511207D01*
X119529498Y-106579328D01*
X119512595Y-106600302D01*
X115176966Y-110935931D01*
X115114654Y-110969957D01*
X115043839Y-110964892D01*
X114987003Y-110922345D01*
X114962192Y-110855825D01*
X114977283Y-110786451D01*
X114993139Y-110763758D01*
X115096802Y-110645554D01*
X115096806Y-110645548D01*
X115099520Y-110642454D01*
X115115217Y-110618963D01*
X115257484Y-110406044D01*
X115259778Y-110402611D01*
X115326718Y-110266871D01*
X115385537Y-110147597D01*
X115385538Y-110147595D01*
X115387359Y-110143902D01*
X115425371Y-110031923D01*
X115478754Y-109874663D01*
X115478755Y-109874659D01*
X115480081Y-109870753D01*
X115482060Y-109860807D01*
X115535552Y-109591882D01*
X115535552Y-109591879D01*
X115536356Y-109587839D01*
X115538112Y-109561059D01*
X115554952Y-109304119D01*
X115555222Y-109300000D01*
X115536356Y-109012161D01*
X115521407Y-108937005D01*
X115480887Y-108733297D01*
X115480885Y-108733291D01*
X115480081Y-108729247D01*
X115443618Y-108621829D01*
X115388683Y-108459998D01*
X115388682Y-108459996D01*
X115387359Y-108456098D01*
X115365703Y-108412184D01*
X115261605Y-108201093D01*
X115261602Y-108201088D01*
X115259778Y-108197389D01*
X115197765Y-108104580D01*
X115101813Y-107960977D01*
X115101809Y-107960972D01*
X115099520Y-107957546D01*
X115096806Y-107954452D01*
X115096802Y-107954446D01*
X114912036Y-107743762D01*
X114909327Y-107740673D01*
X114880859Y-107715707D01*
X114695554Y-107553198D01*
X114695548Y-107553194D01*
X114692454Y-107550480D01*
X114689028Y-107548191D01*
X114689023Y-107548187D01*
X114514036Y-107431265D01*
X114468508Y-107376788D01*
X114459660Y-107306345D01*
X114490301Y-107242301D01*
X114550703Y-107204990D01*
X114584038Y-107200500D01*
X117215780Y-107200500D01*
X117230589Y-107201373D01*
X117264310Y-107205364D01*
X117273574Y-107203672D01*
X117273575Y-107203672D01*
X117322001Y-107194828D01*
X117325904Y-107194178D01*
X117374645Y-107186850D01*
X117374646Y-107186850D01*
X117383962Y-107185449D01*
X117390475Y-107182321D01*
X117397573Y-107181025D01*
X117449647Y-107153975D01*
X117453137Y-107152232D01*
X117489952Y-107134553D01*
X117560018Y-107123096D01*
X117594229Y-107132368D01*
X117627436Y-107146635D01*
X117633072Y-107147910D01*
X117633071Y-107147910D01*
X117836995Y-107194054D01*
X117837001Y-107194055D01*
X117842632Y-107195329D01*
X117848403Y-107195556D01*
X117848405Y-107195556D01*
X117916211Y-107198220D01*
X118063098Y-107203991D01*
X118183055Y-107186598D01*
X118275738Y-107173160D01*
X118275743Y-107173159D01*
X118281452Y-107172331D01*
X118286916Y-107170476D01*
X118286921Y-107170475D01*
X118484907Y-107103268D01*
X118484912Y-107103266D01*
X118490379Y-107101410D01*
X118501740Y-107095048D01*
X118592065Y-107044463D01*
X118682884Y-106993602D01*
X118690788Y-106987029D01*
X118837258Y-106865210D01*
X118852518Y-106852518D01*
X118912590Y-106780290D01*
X118989908Y-106687326D01*
X118989910Y-106687323D01*
X118993602Y-106682884D01*
X119101410Y-106490379D01*
X119103266Y-106484912D01*
X119103268Y-106484907D01*
X119170475Y-106286921D01*
X119170476Y-106286916D01*
X119172331Y-106281452D01*
X119173159Y-106275743D01*
X119173160Y-106275738D01*
X119203458Y-106066772D01*
X119203991Y-106063098D01*
X119205643Y-106000000D01*
X119185454Y-105780289D01*
X119182750Y-105770699D01*
X119147936Y-105647258D01*
X119125565Y-105567936D01*
X119027980Y-105370053D01*
X118994063Y-105324632D01*
X118899420Y-105197891D01*
X118899420Y-105197890D01*
X118895967Y-105193267D01*
X118768853Y-105075764D01*
X118738189Y-105047418D01*
X118738186Y-105047416D01*
X118733949Y-105043499D01*
X118547350Y-104925764D01*
X118342421Y-104844006D01*
X118336761Y-104842880D01*
X118336757Y-104842879D01*
X118131691Y-104802089D01*
X118131688Y-104802089D01*
X118126024Y-104800962D01*
X118120249Y-104800886D01*
X118120245Y-104800886D01*
X118009504Y-104799437D01*
X117905406Y-104798074D01*
X117899709Y-104799053D01*
X117899708Y-104799053D01*
X117693654Y-104834459D01*
X117693653Y-104834459D01*
X117687957Y-104835438D01*
X117480957Y-104911804D01*
X117475996Y-104914756D01*
X117475995Y-104914756D01*
X117312051Y-105012293D01*
X117291341Y-105024614D01*
X117125457Y-105170090D01*
X116988863Y-105343360D01*
X116886131Y-105538620D01*
X116820703Y-105749333D01*
X116794770Y-105968440D01*
X116807587Y-106163990D01*
X116807670Y-106165259D01*
X116792166Y-106234542D01*
X116741666Y-106284445D01*
X116681940Y-106299500D01*
X111026500Y-106299500D01*
X110958379Y-106279498D01*
X110911886Y-106225842D01*
X110900500Y-106173500D01*
X110900500Y-105976293D01*
X110920502Y-105908172D01*
X110937405Y-105887198D01*
X112159405Y-104665198D01*
X112221717Y-104631172D01*
X112292532Y-104636237D01*
X112349368Y-104678784D01*
X112374179Y-104745304D01*
X112374500Y-104754293D01*
X112374500Y-104780714D01*
X112354498Y-104848835D01*
X112325204Y-104880677D01*
X112271718Y-104921718D01*
X112175464Y-105047159D01*
X112114956Y-105193238D01*
X112113878Y-105201426D01*
X112111214Y-105221660D01*
X112094318Y-105350000D01*
X112114956Y-105506762D01*
X112175464Y-105652841D01*
X112271718Y-105778282D01*
X112397159Y-105874536D01*
X112543238Y-105935044D01*
X112700000Y-105955682D01*
X112708188Y-105954604D01*
X112848574Y-105936122D01*
X112856762Y-105935044D01*
X113002841Y-105874536D01*
X113128282Y-105778282D01*
X113224536Y-105652841D01*
X113285044Y-105506762D01*
X113305682Y-105350000D01*
X113288786Y-105221660D01*
X113286122Y-105201426D01*
X113285044Y-105193238D01*
X113224536Y-105047159D01*
X113128282Y-104921718D01*
X113074796Y-104880677D01*
X113032929Y-104823339D01*
X113025500Y-104780714D01*
X113025500Y-103475476D01*
X113045502Y-103407355D01*
X113047886Y-103404171D01*
X113050000Y-103394452D01*
X113050000Y-102924826D01*
X113050167Y-102921422D01*
X113050500Y-102919748D01*
X113050500Y-101561500D01*
X113070502Y-101493379D01*
X113124158Y-101446886D01*
X113176500Y-101435500D01*
X113223500Y-101435500D01*
X113291621Y-101455502D01*
X113338114Y-101509158D01*
X113349500Y-101561500D01*
X113349500Y-102919748D01*
X113349833Y-102921422D01*
X113350000Y-102924826D01*
X113350000Y-103389884D01*
X113363223Y-103434917D01*
X113369398Y-103444527D01*
X113374500Y-103480018D01*
X113374500Y-103730290D01*
X113374020Y-103741272D01*
X113371849Y-103766091D01*
X113370736Y-103778807D01*
X113373590Y-103789456D01*
X113380491Y-103815210D01*
X113382870Y-103825942D01*
X113389412Y-103863045D01*
X113394923Y-103872590D01*
X113396115Y-103875866D01*
X113397592Y-103879034D01*
X113400446Y-103889684D01*
X113406770Y-103898715D01*
X113422055Y-103920544D01*
X113427961Y-103929815D01*
X113437235Y-103945877D01*
X113446806Y-103962455D01*
X113455251Y-103969541D01*
X113475682Y-103986685D01*
X113483774Y-103994100D01*
X114417293Y-104927620D01*
X114451317Y-104989930D01*
X114453118Y-105033158D01*
X114444318Y-105100000D01*
X114464956Y-105256762D01*
X114525464Y-105402841D01*
X114540129Y-105421953D01*
X114598843Y-105498470D01*
X114621718Y-105528282D01*
X114747159Y-105624536D01*
X114893238Y-105685044D01*
X114901426Y-105686122D01*
X114955827Y-105693284D01*
X115050000Y-105705682D01*
X115058188Y-105704604D01*
X115198574Y-105686122D01*
X115206762Y-105685044D01*
X115352841Y-105624536D01*
X115478282Y-105528282D01*
X115501158Y-105498470D01*
X115559871Y-105421953D01*
X115574536Y-105402841D01*
X115635044Y-105256762D01*
X115655682Y-105100000D01*
X115636507Y-104954350D01*
X115636122Y-104951426D01*
X115635044Y-104943238D01*
X115574536Y-104797159D01*
X115478282Y-104671718D01*
X115352841Y-104575464D01*
X115206762Y-104514956D01*
X115050000Y-104494318D01*
X114983159Y-104503118D01*
X114913012Y-104492179D01*
X114877619Y-104467292D01*
X114062405Y-103652079D01*
X114028380Y-103589766D01*
X114025500Y-103562983D01*
X114025500Y-103226500D01*
X114045502Y-103158379D01*
X114099158Y-103111886D01*
X114151500Y-103100500D01*
X114369748Y-103100500D01*
X114387937Y-103096882D01*
X114416061Y-103091288D01*
X114416062Y-103091288D01*
X114428231Y-103088867D01*
X114494552Y-103044552D01*
X114538867Y-102978231D01*
X114544789Y-102948462D01*
X114549293Y-102925816D01*
X114550500Y-102919748D01*
X114550500Y-101480252D01*
X114538867Y-101421769D01*
X114534280Y-101414905D01*
X114525500Y-101370762D01*
X114525500Y-101219713D01*
X114525979Y-101208732D01*
X114528303Y-101182171D01*
X114528303Y-101182169D01*
X114529263Y-101171193D01*
X114527826Y-101165830D01*
X114541149Y-101099530D01*
X114551856Y-101082587D01*
X114584786Y-101038649D01*
X114593324Y-101023054D01*
X114638478Y-100902606D01*
X114642105Y-100887351D01*
X114647631Y-100836486D01*
X114648000Y-100829672D01*
X114648000Y-100272115D01*
X114643525Y-100256876D01*
X114642135Y-100255671D01*
X114634452Y-100254000D01*
X113472115Y-100254000D01*
X113456876Y-100258475D01*
X113455671Y-100259865D01*
X113454000Y-100267548D01*
X113454000Y-100658500D01*
X113433998Y-100726621D01*
X113380342Y-100773114D01*
X113328000Y-100784500D01*
X113072000Y-100784500D01*
X113003879Y-100764498D01*
X112957386Y-100710842D01*
X112946000Y-100658500D01*
X112946000Y-100272115D01*
X112941525Y-100256876D01*
X112940135Y-100255671D01*
X112932452Y-100254000D01*
X111770116Y-100254000D01*
X111754877Y-100258475D01*
X111753672Y-100259865D01*
X111752001Y-100267548D01*
X111752001Y-100658500D01*
X111731999Y-100726621D01*
X111678343Y-100773114D01*
X111626001Y-100784500D01*
X110749487Y-100784500D01*
X110681366Y-100764498D01*
X110645647Y-100729867D01*
X110583614Y-100639608D01*
X110583613Y-100639607D01*
X110579312Y-100633349D01*
X110567514Y-100622837D01*
X110458392Y-100525612D01*
X110458388Y-100525610D01*
X110452721Y-100520560D01*
X110302881Y-100441224D01*
X110138441Y-100399919D01*
X110130843Y-100399879D01*
X110130841Y-100399879D01*
X110053668Y-100399475D01*
X109968895Y-100399031D01*
X109961508Y-100400805D01*
X109961504Y-100400805D01*
X109844559Y-100428882D01*
X109804032Y-100438612D01*
X109797288Y-100442093D01*
X109797285Y-100442094D01*
X109713653Y-100485260D01*
X109653369Y-100516375D01*
X109647647Y-100521367D01*
X109647645Y-100521368D01*
X109604233Y-100559239D01*
X109525604Y-100627831D01*
X109521237Y-100634045D01*
X109432557Y-100760224D01*
X109428113Y-100766547D01*
X109366524Y-100924513D01*
X109365532Y-100932046D01*
X109365532Y-100932047D01*
X109345654Y-101083042D01*
X109344394Y-101092611D01*
X109362999Y-101261135D01*
X109421266Y-101420356D01*
X109425502Y-101426659D01*
X109425502Y-101426660D01*
X109437373Y-101444326D01*
X109515830Y-101561083D01*
X109521442Y-101566190D01*
X109521445Y-101566193D01*
X109635612Y-101670077D01*
X109635616Y-101670080D01*
X109641233Y-101675191D01*
X109647906Y-101678814D01*
X109647910Y-101678817D01*
X109783558Y-101752467D01*
X109783560Y-101752468D01*
X109790235Y-101756092D01*
X109797584Y-101758020D01*
X109946883Y-101797188D01*
X109946885Y-101797188D01*
X109954233Y-101799116D01*
X110040609Y-101800473D01*
X110116161Y-101801660D01*
X110116164Y-101801660D01*
X110123760Y-101801779D01*
X110131165Y-101800083D01*
X110131166Y-101800083D01*
X110243772Y-101774293D01*
X110289029Y-101763928D01*
X110440498Y-101687747D01*
X110569423Y-101577634D01*
X110633850Y-101487974D01*
X110689845Y-101444326D01*
X110736173Y-101435500D01*
X111723500Y-101435500D01*
X111791621Y-101455502D01*
X111838114Y-101509158D01*
X111849500Y-101561500D01*
X111849500Y-101762678D01*
X111829498Y-101830799D01*
X111801509Y-101861624D01*
X111767890Y-101888128D01*
X111690869Y-101999569D01*
X111688028Y-102008552D01*
X111657020Y-102106598D01*
X111650020Y-102128730D01*
X111649500Y-102135337D01*
X111649500Y-103848707D01*
X111629498Y-103916828D01*
X111612595Y-103937802D01*
X110062802Y-105487595D01*
X110000490Y-105521621D01*
X109973707Y-105524500D01*
X109096166Y-105524500D01*
X109078248Y-105526194D01*
X109072278Y-105526758D01*
X109072277Y-105526758D01*
X109064631Y-105527481D01*
X108936816Y-105572366D01*
X108929246Y-105577958D01*
X108929243Y-105577959D01*
X108844794Y-105640335D01*
X108827850Y-105652850D01*
X108822258Y-105660421D01*
X108752959Y-105754243D01*
X108752958Y-105754246D01*
X108747366Y-105761816D01*
X108702481Y-105889631D01*
X108699500Y-105921166D01*
X108699500Y-106853834D01*
X108702481Y-106885369D01*
X108747366Y-107013184D01*
X108752958Y-107020754D01*
X108752959Y-107020757D01*
X108806137Y-107092753D01*
X108827850Y-107122150D01*
X108835421Y-107127742D01*
X108929243Y-107197041D01*
X108929246Y-107197042D01*
X108936816Y-107202634D01*
X109064631Y-107247519D01*
X109072277Y-107248242D01*
X109072278Y-107248242D01*
X109078248Y-107248806D01*
X109096166Y-107250500D01*
X110503834Y-107250500D01*
X110521752Y-107248806D01*
X110527722Y-107248242D01*
X110527723Y-107248242D01*
X110535369Y-107247519D01*
X110648995Y-107207617D01*
X110690742Y-107200500D01*
X112115962Y-107200500D01*
X112184083Y-107220502D01*
X112230576Y-107274158D01*
X112240680Y-107344432D01*
X112211186Y-107409012D01*
X112185964Y-107431265D01*
X112010977Y-107548187D01*
X112010972Y-107548191D01*
X112007546Y-107550480D01*
X112004452Y-107553194D01*
X112004446Y-107553198D01*
X111819141Y-107715707D01*
X111790673Y-107740673D01*
X111787964Y-107743762D01*
X111603198Y-107954446D01*
X111603194Y-107954452D01*
X111600480Y-107957546D01*
X111598191Y-107960972D01*
X111598187Y-107960977D01*
X111502235Y-108104580D01*
X111440222Y-108197389D01*
X111438398Y-108201088D01*
X111438395Y-108201093D01*
X111334297Y-108412184D01*
X111312641Y-108456098D01*
X111311318Y-108459996D01*
X111311317Y-108459998D01*
X111266976Y-108590621D01*
X111226139Y-108648697D01*
X111160386Y-108675475D01*
X111090593Y-108662454D01*
X111048915Y-108628380D01*
X111042902Y-108620793D01*
X110928171Y-108506261D01*
X110916760Y-108497249D01*
X110778757Y-108412184D01*
X110765576Y-108406037D01*
X110611290Y-108354862D01*
X110597914Y-108351995D01*
X110503562Y-108342328D01*
X110497145Y-108342000D01*
X110072115Y-108342000D01*
X110056876Y-108346475D01*
X110055671Y-108347865D01*
X110054000Y-108355548D01*
X110054000Y-110664884D01*
X110058475Y-110680123D01*
X110059865Y-110681328D01*
X110067548Y-110682999D01*
X110497095Y-110682999D01*
X110503614Y-110682662D01*
X110599206Y-110672743D01*
X110612600Y-110669851D01*
X110766784Y-110618412D01*
X110779962Y-110612239D01*
X110917807Y-110526937D01*
X110929208Y-110517901D01*
X111043739Y-110403171D01*
X111052751Y-110391760D01*
X111137819Y-110253753D01*
X111138095Y-110253161D01*
X111138392Y-110252824D01*
X111141658Y-110247525D01*
X111142565Y-110248084D01*
X111185010Y-110199874D01*
X111253287Y-110180411D01*
X111321247Y-110200951D01*
X111365297Y-110250678D01*
X111366813Y-110253753D01*
X111440222Y-110402611D01*
X111442516Y-110406044D01*
X111584784Y-110618963D01*
X111600480Y-110642454D01*
X111603194Y-110645548D01*
X111603198Y-110645554D01*
X111750201Y-110813178D01*
X111790673Y-110859327D01*
X111793762Y-110862036D01*
X112004446Y-111046802D01*
X112004452Y-111046806D01*
X112007546Y-111049520D01*
X112010972Y-111051809D01*
X112010977Y-111051813D01*
X112113088Y-111120041D01*
X112247389Y-111209778D01*
X112251088Y-111211602D01*
X112251093Y-111211605D01*
X112415599Y-111292730D01*
X112506098Y-111337359D01*
X112509996Y-111338682D01*
X112509998Y-111338683D01*
X112775337Y-111428754D01*
X112775341Y-111428755D01*
X112779247Y-111430081D01*
X112783291Y-111430885D01*
X112783297Y-111430887D01*
X113058118Y-111485552D01*
X113058121Y-111485552D01*
X113062161Y-111486356D01*
X113066272Y-111486625D01*
X113066276Y-111486626D01*
X113345881Y-111504952D01*
X113350000Y-111505222D01*
X113354119Y-111504952D01*
X113633724Y-111486626D01*
X113633728Y-111486625D01*
X113637839Y-111486356D01*
X113641879Y-111485552D01*
X113641882Y-111485552D01*
X113916703Y-111430887D01*
X113916709Y-111430885D01*
X113920753Y-111430081D01*
X113930834Y-111426659D01*
X114096036Y-111370581D01*
X114166971Y-111367625D01*
X114228243Y-111403488D01*
X114260400Y-111466785D01*
X114253231Y-111537419D01*
X114213240Y-111589857D01*
X114178266Y-111616693D01*
X114178264Y-111616695D01*
X114171718Y-111621718D01*
X114075464Y-111747159D01*
X114014956Y-111893238D01*
X113994318Y-112050000D01*
X114014956Y-112206762D01*
X114075464Y-112352841D01*
X114171718Y-112478282D01*
X114297159Y-112574536D01*
X114443238Y-112635044D01*
X114600000Y-112655682D01*
X114608188Y-112654604D01*
X114748574Y-112636122D01*
X114756762Y-112635044D01*
X114902841Y-112574536D01*
X115028282Y-112478282D01*
X115124536Y-112352841D01*
X115178779Y-112221887D01*
X115206093Y-112181010D01*
X120294350Y-107092753D01*
X120305439Y-107082899D01*
X120324710Y-107067706D01*
X120324711Y-107067705D01*
X120332110Y-107061872D01*
X120337465Y-107054124D01*
X120337467Y-107054122D01*
X120365474Y-107013600D01*
X120367773Y-107010382D01*
X120369796Y-107007643D01*
X120390235Y-106979970D01*
X120446795Y-106937059D01*
X120517576Y-106931537D01*
X120580106Y-106965160D01*
X120614532Y-107027252D01*
X120611420Y-107093763D01*
X120587753Y-107166604D01*
X120586021Y-107171579D01*
X120269998Y-108021343D01*
X120269582Y-108022461D01*
X120267646Y-108027351D01*
X120030868Y-108590621D01*
X119915852Y-108864233D01*
X119913705Y-108869054D01*
X119527197Y-109690427D01*
X119524851Y-109695154D01*
X119104266Y-110499657D01*
X119101723Y-110504282D01*
X118647830Y-111290448D01*
X118645096Y-111294962D01*
X118440920Y-111616693D01*
X118165936Y-112050000D01*
X118158689Y-112061419D01*
X118155779Y-112065800D01*
X117690019Y-112735941D01*
X117637668Y-112811264D01*
X117634584Y-112815509D01*
X117152974Y-113450007D01*
X117085723Y-113538607D01*
X117082445Y-113542742D01*
X116503789Y-114242217D01*
X116500340Y-114246212D01*
X115892924Y-114920817D01*
X115889312Y-114924664D01*
X115264337Y-115562867D01*
X115254159Y-115573260D01*
X115250392Y-115576949D01*
X114810531Y-115990007D01*
X114588632Y-116198384D01*
X114584712Y-116201914D01*
X113925968Y-116770525D01*
X113897526Y-116795075D01*
X113893463Y-116798437D01*
X113230140Y-117324180D01*
X113182026Y-117362315D01*
X113177825Y-117365504D01*
X113084425Y-117433363D01*
X112443402Y-117899093D01*
X112439068Y-117902105D01*
X111682945Y-118404472D01*
X111678512Y-118407286D01*
X111423501Y-118561726D01*
X110902016Y-118877548D01*
X110897446Y-118880187D01*
X110101933Y-119317524D01*
X110097256Y-119319969D01*
X109284141Y-119723603D01*
X109279366Y-119725850D01*
X108450056Y-120095083D01*
X108445191Y-120097128D01*
X107601123Y-120431318D01*
X107596199Y-120433149D01*
X107273373Y-120545569D01*
X106738913Y-120731687D01*
X106733894Y-120733318D01*
X105864840Y-120995700D01*
X105859757Y-120997119D01*
X104980512Y-121222871D01*
X104975374Y-121224077D01*
X104449849Y-121335781D01*
X104087392Y-121412824D01*
X104082230Y-121413809D01*
X103187100Y-121565209D01*
X103181913Y-121565973D01*
X102655586Y-121632464D01*
X102281294Y-121679748D01*
X102276046Y-121680300D01*
X101823735Y-121718282D01*
X101371416Y-121756265D01*
X101366161Y-121756595D01*
X100589799Y-121789134D01*
X100459182Y-121794608D01*
X100453906Y-121794719D01*
X99546094Y-121794719D01*
X99540818Y-121794608D01*
X99410201Y-121789134D01*
X98633839Y-121756595D01*
X98628584Y-121756265D01*
X98176265Y-121718282D01*
X97723954Y-121680300D01*
X97718706Y-121679748D01*
X97344414Y-121632464D01*
X96818087Y-121565973D01*
X96812900Y-121565209D01*
X95917770Y-121413809D01*
X95912608Y-121412824D01*
X95550151Y-121335781D01*
X95024626Y-121224077D01*
X95019488Y-121222871D01*
X94140243Y-120997119D01*
X94135160Y-120995700D01*
X93266106Y-120733318D01*
X93261087Y-120731687D01*
X92726627Y-120545569D01*
X92403801Y-120433149D01*
X92398877Y-120431318D01*
X91554809Y-120097128D01*
X91549944Y-120095083D01*
X90720634Y-119725850D01*
X90715859Y-119723603D01*
X89902744Y-119319969D01*
X89898067Y-119317524D01*
X89102554Y-118880187D01*
X89097984Y-118877548D01*
X88576499Y-118561726D01*
X88321488Y-118407286D01*
X88317055Y-118404472D01*
X87560932Y-117902105D01*
X87556598Y-117899093D01*
X86915575Y-117433363D01*
X86822175Y-117365504D01*
X86817974Y-117362315D01*
X86769860Y-117324180D01*
X86106537Y-116798437D01*
X86102474Y-116795075D01*
X86074033Y-116770525D01*
X85779736Y-116516496D01*
X91139687Y-116516496D01*
X91145471Y-116585369D01*
X91154364Y-116691272D01*
X91155482Y-116704590D01*
X91157181Y-116710515D01*
X91205727Y-116879815D01*
X91207510Y-116886034D01*
X91241664Y-116952491D01*
X91270012Y-117007649D01*
X91293790Y-117053917D01*
X91297615Y-117058743D01*
X91297617Y-117058746D01*
X91407206Y-117197014D01*
X91407210Y-117197019D01*
X91411035Y-117201844D01*
X91554780Y-117324180D01*
X91560158Y-117327186D01*
X91560160Y-117327187D01*
X91623014Y-117362315D01*
X91719550Y-117416267D01*
X91899067Y-117474595D01*
X92086495Y-117496945D01*
X92092630Y-117496473D01*
X92092632Y-117496473D01*
X92268553Y-117482937D01*
X92268557Y-117482936D01*
X92274695Y-117482464D01*
X92280627Y-117480808D01*
X92280631Y-117480807D01*
X92450554Y-117433363D01*
X92450558Y-117433362D01*
X92456498Y-117431703D01*
X92590620Y-117363954D01*
X92619478Y-117349377D01*
X92619480Y-117349376D01*
X92624979Y-117346598D01*
X92773720Y-117230388D01*
X92777746Y-117225724D01*
X92777749Y-117225721D01*
X92893028Y-117092169D01*
X92893029Y-117092167D01*
X92897057Y-117087501D01*
X92990292Y-116923378D01*
X93049873Y-116744272D01*
X93073530Y-116557005D01*
X93073907Y-116530000D01*
X93055488Y-116342145D01*
X93000931Y-116161445D01*
X92912316Y-115994783D01*
X92793016Y-115848508D01*
X92787225Y-115843717D01*
X92652327Y-115732120D01*
X92652324Y-115732118D01*
X92647577Y-115728191D01*
X92481538Y-115638414D01*
X92301224Y-115582597D01*
X92295106Y-115581954D01*
X92295101Y-115581953D01*
X92119631Y-115563511D01*
X92119629Y-115563511D01*
X92113502Y-115562867D01*
X91999299Y-115573260D01*
X91931664Y-115579415D01*
X91931663Y-115579415D01*
X91925523Y-115579974D01*
X91744447Y-115633268D01*
X91738982Y-115636125D01*
X91638689Y-115688557D01*
X91577170Y-115720718D01*
X91430066Y-115838993D01*
X91308736Y-115983588D01*
X91217802Y-116148996D01*
X91160728Y-116328917D01*
X91160042Y-116335036D01*
X91160041Y-116335039D01*
X91147145Y-116450006D01*
X91139687Y-116516496D01*
X85779736Y-116516496D01*
X85415288Y-116201914D01*
X85411368Y-116198384D01*
X85189469Y-115990007D01*
X84749608Y-115576949D01*
X84745841Y-115573260D01*
X84735664Y-115562867D01*
X84110688Y-114924664D01*
X84107076Y-114920817D01*
X83499660Y-114246212D01*
X83496211Y-114242217D01*
X83276387Y-113976496D01*
X91139687Y-113976496D01*
X91141897Y-114002812D01*
X91147008Y-114063672D01*
X91155482Y-114164590D01*
X91157181Y-114170515D01*
X91198999Y-114316351D01*
X91207510Y-114346034D01*
X91226702Y-114383378D01*
X91262172Y-114452394D01*
X91293790Y-114513917D01*
X91297615Y-114518743D01*
X91297617Y-114518746D01*
X91407206Y-114657014D01*
X91407210Y-114657019D01*
X91411035Y-114661844D01*
X91554780Y-114784180D01*
X91560158Y-114787186D01*
X91560160Y-114787187D01*
X91637165Y-114830224D01*
X91719550Y-114876267D01*
X91899067Y-114934595D01*
X92086495Y-114956945D01*
X92092630Y-114956473D01*
X92092632Y-114956473D01*
X92268553Y-114942937D01*
X92268557Y-114942936D01*
X92274695Y-114942464D01*
X92280627Y-114940808D01*
X92280631Y-114940807D01*
X92450554Y-114893363D01*
X92450558Y-114893362D01*
X92456498Y-114891703D01*
X92567713Y-114835525D01*
X92619478Y-114809377D01*
X92619480Y-114809376D01*
X92624979Y-114806598D01*
X92773720Y-114690388D01*
X92777746Y-114685724D01*
X92777749Y-114685721D01*
X92893028Y-114552169D01*
X92893029Y-114552167D01*
X92897057Y-114547501D01*
X92990292Y-114383378D01*
X93049873Y-114204272D01*
X93073530Y-114017005D01*
X93073907Y-113990000D01*
X93055488Y-113802145D01*
X93000931Y-113621445D01*
X92912316Y-113454783D01*
X92793016Y-113308508D01*
X92786271Y-113302928D01*
X92652327Y-113192120D01*
X92652324Y-113192118D01*
X92647577Y-113188191D01*
X92481538Y-113098414D01*
X92301224Y-113042597D01*
X92295106Y-113041954D01*
X92295101Y-113041953D01*
X92119631Y-113023511D01*
X92119629Y-113023511D01*
X92113502Y-113022867D01*
X91997875Y-113033390D01*
X91931664Y-113039415D01*
X91931663Y-113039415D01*
X91925523Y-113039974D01*
X91744447Y-113093268D01*
X91577170Y-113180718D01*
X91430066Y-113298993D01*
X91308736Y-113443588D01*
X91305766Y-113448991D01*
X91305765Y-113448992D01*
X91250789Y-113548993D01*
X91217802Y-113608996D01*
X91160728Y-113788917D01*
X91139687Y-113976496D01*
X83276387Y-113976496D01*
X82917555Y-113542742D01*
X82914277Y-113538607D01*
X82847026Y-113450007D01*
X82365416Y-112815509D01*
X82362332Y-112811264D01*
X82309981Y-112735941D01*
X81844221Y-112065800D01*
X81841311Y-112061419D01*
X81834065Y-112050000D01*
X81559080Y-111616693D01*
X81354904Y-111294962D01*
X81352170Y-111290448D01*
X80898277Y-110504282D01*
X80895734Y-110499657D01*
X80475149Y-109695154D01*
X80472803Y-109690427D01*
X80289082Y-109300000D01*
X84444778Y-109300000D01*
X84445048Y-109304119D01*
X84461889Y-109561059D01*
X84463644Y-109587839D01*
X84464448Y-109591879D01*
X84464448Y-109591882D01*
X84517941Y-109860807D01*
X84519919Y-109870753D01*
X84521245Y-109874659D01*
X84521246Y-109874663D01*
X84574629Y-110031923D01*
X84612641Y-110143902D01*
X84614462Y-110147595D01*
X84614463Y-110147597D01*
X84673283Y-110266871D01*
X84740222Y-110402611D01*
X84742516Y-110406044D01*
X84884784Y-110618963D01*
X84900480Y-110642454D01*
X84903194Y-110645548D01*
X84903198Y-110645554D01*
X85050201Y-110813178D01*
X85090673Y-110859327D01*
X85093762Y-110862036D01*
X85304446Y-111046802D01*
X85304452Y-111046806D01*
X85307546Y-111049520D01*
X85310972Y-111051809D01*
X85310977Y-111051813D01*
X85413088Y-111120041D01*
X85547389Y-111209778D01*
X85551088Y-111211602D01*
X85551093Y-111211605D01*
X85715599Y-111292730D01*
X85806098Y-111337359D01*
X85809996Y-111338682D01*
X85809998Y-111338683D01*
X86075337Y-111428754D01*
X86075341Y-111428755D01*
X86079247Y-111430081D01*
X86083291Y-111430885D01*
X86083297Y-111430887D01*
X86358118Y-111485552D01*
X86358121Y-111485552D01*
X86362161Y-111486356D01*
X86366272Y-111486625D01*
X86366276Y-111486626D01*
X86645881Y-111504952D01*
X86650000Y-111505222D01*
X86654119Y-111504952D01*
X86933724Y-111486626D01*
X86933728Y-111486625D01*
X86937839Y-111486356D01*
X86941879Y-111485552D01*
X86941882Y-111485552D01*
X87188505Y-111436496D01*
X91139687Y-111436496D01*
X91155482Y-111624590D01*
X91207510Y-111806034D01*
X91293790Y-111973917D01*
X91297615Y-111978743D01*
X91297617Y-111978746D01*
X91407206Y-112117014D01*
X91407210Y-112117019D01*
X91411035Y-112121844D01*
X91554780Y-112244180D01*
X91560158Y-112247186D01*
X91560160Y-112247187D01*
X91633791Y-112288338D01*
X91719550Y-112336267D01*
X91899067Y-112394595D01*
X92086495Y-112416945D01*
X92092630Y-112416473D01*
X92092632Y-112416473D01*
X92268553Y-112402937D01*
X92268557Y-112402936D01*
X92274695Y-112402464D01*
X92280627Y-112400808D01*
X92280631Y-112400807D01*
X92450554Y-112353363D01*
X92450558Y-112353362D01*
X92456498Y-112351703D01*
X92581941Y-112288338D01*
X92619478Y-112269377D01*
X92619480Y-112269376D01*
X92624979Y-112266598D01*
X92773720Y-112150388D01*
X92777746Y-112145724D01*
X92777749Y-112145721D01*
X92893028Y-112012169D01*
X92893029Y-112012167D01*
X92897057Y-112007501D01*
X92990292Y-111843378D01*
X93049873Y-111664272D01*
X93073530Y-111477005D01*
X93073907Y-111450000D01*
X93055488Y-111262145D01*
X93000931Y-111081445D01*
X92912316Y-110914783D01*
X92897141Y-110896176D01*
X92796911Y-110773284D01*
X92793016Y-110768508D01*
X92788267Y-110764579D01*
X92652327Y-110652120D01*
X92652324Y-110652118D01*
X92647577Y-110648191D01*
X92481538Y-110558414D01*
X92301224Y-110502597D01*
X92295106Y-110501954D01*
X92295101Y-110501953D01*
X92119631Y-110483511D01*
X92119629Y-110483511D01*
X92113502Y-110482867D01*
X91997875Y-110493390D01*
X91931664Y-110499415D01*
X91931663Y-110499415D01*
X91925523Y-110499974D01*
X91744447Y-110553268D01*
X91738982Y-110556125D01*
X91618784Y-110618963D01*
X91577170Y-110640718D01*
X91430066Y-110758993D01*
X91426102Y-110763717D01*
X91421272Y-110769473D01*
X91308736Y-110903588D01*
X91305766Y-110908991D01*
X91305765Y-110908992D01*
X91264240Y-110984525D01*
X91217802Y-111068996D01*
X91160728Y-111248917D01*
X91160042Y-111255036D01*
X91160041Y-111255039D01*
X91142828Y-111408491D01*
X91139687Y-111436496D01*
X87188505Y-111436496D01*
X87216703Y-111430887D01*
X87216709Y-111430885D01*
X87220753Y-111430081D01*
X87224659Y-111428755D01*
X87224663Y-111428754D01*
X87490002Y-111338683D01*
X87490004Y-111338682D01*
X87493902Y-111337359D01*
X87584401Y-111292730D01*
X87748907Y-111211605D01*
X87748912Y-111211602D01*
X87752611Y-111209778D01*
X87886912Y-111120041D01*
X87989023Y-111051813D01*
X87989028Y-111051809D01*
X87992454Y-111049520D01*
X87995548Y-111046806D01*
X87995554Y-111046802D01*
X88206238Y-110862036D01*
X88209327Y-110859327D01*
X88249799Y-110813178D01*
X88396802Y-110645554D01*
X88396806Y-110645548D01*
X88399520Y-110642454D01*
X88415217Y-110618963D01*
X88557484Y-110406044D01*
X88559778Y-110402611D01*
X88626718Y-110266871D01*
X88685537Y-110147597D01*
X88685538Y-110147595D01*
X88687359Y-110143902D01*
X88725371Y-110031923D01*
X88746806Y-109968777D01*
X91412527Y-109968777D01*
X91421824Y-109980793D01*
X91464819Y-110010898D01*
X91474305Y-110016376D01*
X91665743Y-110105645D01*
X91676035Y-110109391D01*
X91880059Y-110164059D01*
X91890854Y-110165962D01*
X92101275Y-110184372D01*
X92112225Y-110184372D01*
X92322646Y-110165962D01*
X92333441Y-110164059D01*
X92537465Y-110109391D01*
X92547757Y-110105645D01*
X92739195Y-110016376D01*
X92748681Y-110010898D01*
X92792514Y-109980207D01*
X92800889Y-109969729D01*
X92793821Y-109956281D01*
X92119562Y-109282022D01*
X92105618Y-109274408D01*
X92103785Y-109274539D01*
X92097170Y-109278790D01*
X91418957Y-109957003D01*
X91412527Y-109968777D01*
X88746806Y-109968777D01*
X88778754Y-109874663D01*
X88778755Y-109874659D01*
X88780081Y-109870753D01*
X88782060Y-109860807D01*
X88835552Y-109591882D01*
X88835552Y-109591879D01*
X88836356Y-109587839D01*
X88838112Y-109561059D01*
X88854952Y-109304119D01*
X88855222Y-109300000D01*
X88836356Y-109012161D01*
X88821407Y-108937005D01*
X88817124Y-108915475D01*
X90832378Y-108915475D01*
X90850788Y-109125896D01*
X90852691Y-109136691D01*
X90907359Y-109340715D01*
X90911105Y-109351007D01*
X91000373Y-109542441D01*
X91005853Y-109551932D01*
X91036544Y-109595765D01*
X91047021Y-109604140D01*
X91060468Y-109597072D01*
X91734728Y-108922812D01*
X91742342Y-108908868D01*
X91742211Y-108907035D01*
X91737960Y-108900420D01*
X91059747Y-108222207D01*
X91047973Y-108215777D01*
X91035957Y-108225074D01*
X91005853Y-108268068D01*
X91000373Y-108277559D01*
X90911105Y-108468993D01*
X90907359Y-108479285D01*
X90852691Y-108683309D01*
X90850788Y-108694104D01*
X90832378Y-108904525D01*
X90832378Y-108915475D01*
X88817124Y-108915475D01*
X88780887Y-108733297D01*
X88780885Y-108733291D01*
X88780081Y-108729247D01*
X88743618Y-108621829D01*
X88688683Y-108459998D01*
X88688682Y-108459996D01*
X88687359Y-108456098D01*
X88665703Y-108412184D01*
X88561605Y-108201093D01*
X88561602Y-108201088D01*
X88559778Y-108197389D01*
X88497765Y-108104580D01*
X88401813Y-107960977D01*
X88401809Y-107960972D01*
X88399520Y-107957546D01*
X88396806Y-107954452D01*
X88396802Y-107954446D01*
X88212036Y-107743762D01*
X88209327Y-107740673D01*
X88180859Y-107715707D01*
X87995554Y-107553198D01*
X87995548Y-107553194D01*
X87992454Y-107550480D01*
X87989028Y-107548191D01*
X87989023Y-107548187D01*
X87756044Y-107392516D01*
X87752611Y-107390222D01*
X87748912Y-107388398D01*
X87748907Y-107388395D01*
X87497597Y-107264463D01*
X87497595Y-107264462D01*
X87493902Y-107262641D01*
X87479818Y-107257860D01*
X87224663Y-107171246D01*
X87224659Y-107171245D01*
X87220753Y-107169919D01*
X87216709Y-107169115D01*
X87216703Y-107169113D01*
X86941882Y-107114448D01*
X86941879Y-107114448D01*
X86937839Y-107113644D01*
X86933728Y-107113375D01*
X86933724Y-107113374D01*
X86654119Y-107095048D01*
X86650000Y-107094778D01*
X86645881Y-107095048D01*
X86366276Y-107113374D01*
X86366272Y-107113375D01*
X86362161Y-107113644D01*
X86358121Y-107114448D01*
X86358118Y-107114448D01*
X86083297Y-107169113D01*
X86083291Y-107169115D01*
X86079247Y-107169919D01*
X86075341Y-107171245D01*
X86075337Y-107171246D01*
X85820182Y-107257860D01*
X85806098Y-107262641D01*
X85802405Y-107264462D01*
X85802403Y-107264463D01*
X85551093Y-107388395D01*
X85551088Y-107388398D01*
X85547389Y-107390222D01*
X85543956Y-107392516D01*
X85310977Y-107548187D01*
X85310972Y-107548191D01*
X85307546Y-107550480D01*
X85304452Y-107553194D01*
X85304446Y-107553198D01*
X85119141Y-107715707D01*
X85090673Y-107740673D01*
X85087964Y-107743762D01*
X84903198Y-107954446D01*
X84903194Y-107954452D01*
X84900480Y-107957546D01*
X84898191Y-107960972D01*
X84898187Y-107960977D01*
X84802235Y-108104580D01*
X84740222Y-108197389D01*
X84738398Y-108201088D01*
X84738395Y-108201093D01*
X84634297Y-108412184D01*
X84612641Y-108456098D01*
X84611318Y-108459996D01*
X84611317Y-108459998D01*
X84556383Y-108621829D01*
X84519919Y-108729247D01*
X84519115Y-108733291D01*
X84519113Y-108733297D01*
X84478593Y-108937005D01*
X84463644Y-109012161D01*
X84463375Y-109016272D01*
X84463374Y-109016276D01*
X84448386Y-109244952D01*
X84447865Y-109252895D01*
X84444778Y-109300000D01*
X80289082Y-109300000D01*
X80086295Y-108869054D01*
X80084148Y-108864233D01*
X79969132Y-108590621D01*
X79732354Y-108027351D01*
X79730418Y-108022461D01*
X79730003Y-108021343D01*
X79423448Y-107197041D01*
X79416204Y-107177563D01*
X79411207Y-107106742D01*
X79445291Y-107044463D01*
X79507636Y-107010497D01*
X79534302Y-107007643D01*
X81783000Y-107007643D01*
X81783000Y-106828807D01*
X90470736Y-106828807D01*
X90478709Y-106858559D01*
X90480491Y-106865210D01*
X90482870Y-106875942D01*
X90489412Y-106913045D01*
X90494923Y-106922590D01*
X90496115Y-106925866D01*
X90497592Y-106929034D01*
X90500446Y-106939684D01*
X90512129Y-106956369D01*
X90522055Y-106970544D01*
X90527961Y-106979815D01*
X90535921Y-106993602D01*
X90546806Y-107012455D01*
X90555251Y-107019541D01*
X90575675Y-107036679D01*
X90583780Y-107044106D01*
X91212901Y-107673228D01*
X91220327Y-107681331D01*
X91244545Y-107710194D01*
X91254088Y-107715704D01*
X91254092Y-107715707D01*
X91277179Y-107729036D01*
X91286448Y-107734940D01*
X91317316Y-107756554D01*
X91327964Y-107759407D01*
X91332458Y-107761503D01*
X91334257Y-107762439D01*
X91336139Y-107763219D01*
X91337433Y-107763823D01*
X91337960Y-107764127D01*
X91337870Y-107764320D01*
X91342190Y-107766569D01*
X91343955Y-107767588D01*
X91343958Y-107767588D01*
X91343962Y-107767591D01*
X91341781Y-107771369D01*
X91378137Y-107793460D01*
X91396552Y-107819721D01*
X91419678Y-107863718D01*
X93153753Y-109597793D01*
X93165527Y-109604223D01*
X93177543Y-109594926D01*
X93207647Y-109551932D01*
X93213127Y-109542441D01*
X93302395Y-109351007D01*
X93306141Y-109340715D01*
X93360809Y-109136691D01*
X93362713Y-109125895D01*
X93371572Y-109024629D01*
X93397435Y-108958510D01*
X93454939Y-108916871D01*
X93525826Y-108912930D01*
X93586188Y-108946514D01*
X93914081Y-109274408D01*
X94237596Y-109597923D01*
X94271621Y-109660235D01*
X94274500Y-109687018D01*
X94274500Y-116680290D01*
X94274020Y-116691272D01*
X94270736Y-116728807D01*
X94280491Y-116765210D01*
X94282870Y-116775942D01*
X94289412Y-116813045D01*
X94294923Y-116822590D01*
X94296115Y-116825866D01*
X94297592Y-116829034D01*
X94300446Y-116839684D01*
X94306770Y-116848715D01*
X94322055Y-116870544D01*
X94327961Y-116879815D01*
X94331552Y-116886034D01*
X94346806Y-116912455D01*
X94360005Y-116923530D01*
X94375682Y-116936685D01*
X94383785Y-116944111D01*
X96237595Y-118797922D01*
X96271621Y-118860234D01*
X96274500Y-118887017D01*
X96274500Y-119049748D01*
X96286133Y-119108231D01*
X96330448Y-119174552D01*
X96396769Y-119218867D01*
X96408938Y-119221288D01*
X96408939Y-119221288D01*
X96449184Y-119229293D01*
X96455252Y-119230500D01*
X98294748Y-119230500D01*
X98300816Y-119229293D01*
X98341061Y-119221288D01*
X98341062Y-119221288D01*
X98353231Y-119218867D01*
X98419552Y-119174552D01*
X98463867Y-119108231D01*
X98475500Y-119049748D01*
X98475500Y-118360252D01*
X98474293Y-118354184D01*
X98474293Y-118354181D01*
X98470873Y-118336988D01*
X98477202Y-118266274D01*
X98520757Y-118210207D01*
X98524919Y-118207581D01*
X98630724Y-118128285D01*
X98643285Y-118115724D01*
X98719786Y-118013649D01*
X98728324Y-117998054D01*
X98773478Y-117877606D01*
X98777105Y-117862351D01*
X98782631Y-117811486D01*
X98783000Y-117804672D01*
X98783000Y-117707115D01*
X98778525Y-117691876D01*
X98777135Y-117690671D01*
X98769452Y-117689000D01*
X97247000Y-117689000D01*
X97178879Y-117668998D01*
X97132386Y-117615342D01*
X97121000Y-117563000D01*
X97121000Y-117307000D01*
X97141002Y-117238879D01*
X97194658Y-117192386D01*
X97247000Y-117181000D01*
X98764884Y-117181000D01*
X98780123Y-117176525D01*
X98781328Y-117175135D01*
X98782999Y-117167452D01*
X98782999Y-117065331D01*
X98782629Y-117058510D01*
X98777105Y-117007648D01*
X98773479Y-116992396D01*
X98728324Y-116871946D01*
X98719786Y-116856351D01*
X98643285Y-116754276D01*
X98630724Y-116741715D01*
X98521462Y-116659828D01*
X98523269Y-116657416D01*
X98483793Y-116617847D01*
X98468784Y-116548455D01*
X98470873Y-116533012D01*
X98474293Y-116515819D01*
X98474294Y-116515813D01*
X98475500Y-116509748D01*
X98475500Y-115820252D01*
X98474293Y-115814184D01*
X98474293Y-115814181D01*
X98470873Y-115796988D01*
X98477202Y-115726274D01*
X98520757Y-115670207D01*
X98524919Y-115667581D01*
X98630724Y-115588285D01*
X98643285Y-115575724D01*
X98719786Y-115473649D01*
X98728324Y-115458054D01*
X98773478Y-115337606D01*
X98777105Y-115322351D01*
X98782631Y-115271486D01*
X98783000Y-115264672D01*
X98783000Y-115167115D01*
X98778525Y-115151876D01*
X98777135Y-115150671D01*
X98769452Y-115149000D01*
X97247000Y-115149000D01*
X97178879Y-115128998D01*
X97132386Y-115075342D01*
X97121000Y-115023000D01*
X97121000Y-114622885D01*
X97629000Y-114622885D01*
X97633475Y-114638124D01*
X97634865Y-114639329D01*
X97642548Y-114641000D01*
X98764884Y-114641000D01*
X98780123Y-114636525D01*
X98781328Y-114635135D01*
X98782999Y-114627452D01*
X98782999Y-114525331D01*
X98782629Y-114518510D01*
X98777105Y-114467648D01*
X98773479Y-114452396D01*
X98728324Y-114331946D01*
X98719786Y-114316351D01*
X98643285Y-114214276D01*
X98630724Y-114201715D01*
X98528649Y-114125214D01*
X98513054Y-114116676D01*
X98392606Y-114071522D01*
X98377351Y-114067895D01*
X98326486Y-114062369D01*
X98319672Y-114062000D01*
X97647115Y-114062000D01*
X97631876Y-114066475D01*
X97630671Y-114067865D01*
X97629000Y-114075548D01*
X97629000Y-114622885D01*
X97121000Y-114622885D01*
X97121000Y-114080116D01*
X97116525Y-114064877D01*
X97115135Y-114063672D01*
X97107452Y-114062001D01*
X96430331Y-114062001D01*
X96423510Y-114062371D01*
X96372648Y-114067895D01*
X96357396Y-114071521D01*
X96236946Y-114116676D01*
X96221351Y-114125214D01*
X96119276Y-114201715D01*
X96106715Y-114214276D01*
X96030214Y-114316351D01*
X96021676Y-114331946D01*
X95976522Y-114452394D01*
X95974083Y-114462651D01*
X95938866Y-114524297D01*
X95875911Y-114557118D01*
X95805205Y-114550692D01*
X95749198Y-114507060D01*
X95725500Y-114433505D01*
X95725500Y-109682960D01*
X95725980Y-109671978D01*
X95728303Y-109645430D01*
X95728303Y-109645428D01*
X95729264Y-109634443D01*
X95719508Y-109598035D01*
X95717130Y-109587308D01*
X95715315Y-109577014D01*
X95710588Y-109550205D01*
X95705077Y-109540660D01*
X95703885Y-109537384D01*
X95702408Y-109534216D01*
X95699554Y-109523566D01*
X95677945Y-109492706D01*
X95672039Y-109483435D01*
X95658707Y-109460344D01*
X95653194Y-109450795D01*
X95624317Y-109426565D01*
X95616215Y-109419139D01*
X93037870Y-106840794D01*
X93003844Y-106778482D01*
X93007407Y-106711929D01*
X93049873Y-106584272D01*
X93073530Y-106397005D01*
X93073907Y-106370000D01*
X93055488Y-106182145D01*
X93000931Y-106001445D01*
X92912316Y-105834783D01*
X92863334Y-105774725D01*
X92807023Y-105705682D01*
X92793016Y-105688508D01*
X92787225Y-105683717D01*
X92652327Y-105572120D01*
X92652324Y-105572118D01*
X92647577Y-105568191D01*
X92481538Y-105478414D01*
X92301224Y-105422597D01*
X92295106Y-105421954D01*
X92295101Y-105421953D01*
X92119631Y-105403511D01*
X92119629Y-105403511D01*
X92113502Y-105402867D01*
X91997875Y-105413390D01*
X91931664Y-105419415D01*
X91931663Y-105419415D01*
X91925523Y-105419974D01*
X91744447Y-105473268D01*
X91738982Y-105476125D01*
X91619050Y-105538824D01*
X91577170Y-105560718D01*
X91430066Y-105678993D01*
X91426102Y-105683717D01*
X91348021Y-105776770D01*
X91288912Y-105816097D01*
X91217924Y-105817223D01*
X91157597Y-105779792D01*
X91127083Y-105715687D01*
X91125500Y-105695779D01*
X91125500Y-104503411D01*
X91145502Y-104435290D01*
X91199158Y-104388797D01*
X91269432Y-104378693D01*
X91334012Y-104408187D01*
X91350246Y-104425147D01*
X91407206Y-104497014D01*
X91407210Y-104497019D01*
X91411035Y-104501844D01*
X91554780Y-104624180D01*
X91560158Y-104627186D01*
X91560160Y-104627187D01*
X91637165Y-104670224D01*
X91719550Y-104716267D01*
X91899067Y-104774595D01*
X92086495Y-104796945D01*
X92092630Y-104796473D01*
X92092632Y-104796473D01*
X92268553Y-104782937D01*
X92268557Y-104782936D01*
X92274695Y-104782464D01*
X92280627Y-104780808D01*
X92280631Y-104780807D01*
X92450554Y-104733363D01*
X92450558Y-104733362D01*
X92456498Y-104731703D01*
X92562290Y-104678264D01*
X92619478Y-104649377D01*
X92619480Y-104649376D01*
X92624979Y-104646598D01*
X92773720Y-104530388D01*
X92777746Y-104525724D01*
X92777749Y-104525721D01*
X92893028Y-104392169D01*
X92893029Y-104392167D01*
X92897057Y-104387501D01*
X92990292Y-104223378D01*
X93049873Y-104044272D01*
X93073530Y-103857005D01*
X93073907Y-103830000D01*
X93055488Y-103642145D01*
X93022251Y-103532060D01*
X93021710Y-103461067D01*
X93053778Y-103406548D01*
X93327617Y-103132709D01*
X93389929Y-103098683D01*
X93433157Y-103096882D01*
X93500000Y-103105682D01*
X93508188Y-103104604D01*
X93548530Y-103099293D01*
X93656762Y-103085044D01*
X93802841Y-103024536D01*
X93917451Y-102936593D01*
X93921736Y-102933305D01*
X93928282Y-102928282D01*
X93949984Y-102900000D01*
X93978048Y-102863426D01*
X94024536Y-102802841D01*
X94085044Y-102656762D01*
X94105682Y-102500000D01*
X94085044Y-102343238D01*
X94024536Y-102197159D01*
X93928282Y-102071718D01*
X93802841Y-101975464D01*
X93656762Y-101914956D01*
X93500000Y-101894318D01*
X93343238Y-101914956D01*
X93197159Y-101975464D01*
X93071718Y-102071718D01*
X92975464Y-102197159D01*
X92914956Y-102343238D01*
X92894318Y-102500000D01*
X92900665Y-102548207D01*
X92903118Y-102566842D01*
X92892179Y-102636990D01*
X92867291Y-102672383D01*
X92625238Y-102914436D01*
X92562926Y-102948462D01*
X92487311Y-102941494D01*
X92486966Y-102941349D01*
X92481538Y-102938414D01*
X92301224Y-102882597D01*
X92295106Y-102881954D01*
X92295101Y-102881953D01*
X92119631Y-102863511D01*
X92119629Y-102863511D01*
X92113502Y-102862867D01*
X91997875Y-102873390D01*
X91931664Y-102879415D01*
X91931663Y-102879415D01*
X91925523Y-102879974D01*
X91744447Y-102933268D01*
X91738982Y-102936125D01*
X91680360Y-102966772D01*
X91577170Y-103020718D01*
X91430066Y-103138993D01*
X91426102Y-103143717D01*
X91348021Y-103236770D01*
X91288912Y-103276097D01*
X91217924Y-103277223D01*
X91157597Y-103239792D01*
X91127083Y-103175687D01*
X91125500Y-103155779D01*
X91125500Y-102783766D01*
X91145502Y-102715645D01*
X91162405Y-102694671D01*
X91635712Y-102221364D01*
X91698024Y-102187338D01*
X91763743Y-102190626D01*
X91899067Y-102234595D01*
X92086495Y-102256945D01*
X92092630Y-102256473D01*
X92092632Y-102256473D01*
X92268553Y-102242937D01*
X92268557Y-102242936D01*
X92274695Y-102242464D01*
X92280627Y-102240808D01*
X92280631Y-102240807D01*
X92450554Y-102193363D01*
X92450558Y-102193362D01*
X92456498Y-102191703D01*
X92581165Y-102128730D01*
X92619478Y-102109377D01*
X92619480Y-102109376D01*
X92624979Y-102106598D01*
X92773720Y-101990388D01*
X92777746Y-101985724D01*
X92777749Y-101985721D01*
X92893028Y-101852169D01*
X92893029Y-101852167D01*
X92897057Y-101847501D01*
X92990292Y-101683378D01*
X93049873Y-101504272D01*
X93073530Y-101317005D01*
X93073907Y-101290000D01*
X93055488Y-101102145D01*
X93000931Y-100921445D01*
X92912316Y-100754783D01*
X92889348Y-100726621D01*
X92818381Y-100639608D01*
X92793016Y-100608508D01*
X92787220Y-100603713D01*
X92652327Y-100492120D01*
X92652324Y-100492118D01*
X92647577Y-100488191D01*
X92481538Y-100398414D01*
X92301224Y-100342597D01*
X92295106Y-100341954D01*
X92295101Y-100341953D01*
X92119631Y-100323511D01*
X92119629Y-100323511D01*
X92113502Y-100322867D01*
X91997875Y-100333390D01*
X91931664Y-100339415D01*
X91931663Y-100339415D01*
X91925523Y-100339974D01*
X91744447Y-100393268D01*
X91738982Y-100396125D01*
X91645975Y-100444748D01*
X91577170Y-100480718D01*
X91430066Y-100598993D01*
X91308736Y-100743588D01*
X91305766Y-100748991D01*
X91305765Y-100748992D01*
X91279687Y-100796427D01*
X91217802Y-100908996D01*
X91160728Y-101088917D01*
X91160042Y-101095036D01*
X91160041Y-101095039D01*
X91144803Y-101230884D01*
X91139687Y-101276496D01*
X91140203Y-101282639D01*
X91153413Y-101439947D01*
X91155482Y-101464590D01*
X91157181Y-101470515D01*
X91205522Y-101639101D01*
X91205071Y-101710096D01*
X91173498Y-101762926D01*
X90583785Y-102352639D01*
X90575681Y-102360066D01*
X90546806Y-102384295D01*
X90541293Y-102393844D01*
X90527961Y-102416935D01*
X90522055Y-102426206D01*
X90500446Y-102457066D01*
X90497592Y-102467716D01*
X90496115Y-102470884D01*
X90494923Y-102474160D01*
X90489412Y-102483705D01*
X90483462Y-102517449D01*
X90482870Y-102520808D01*
X90480492Y-102531535D01*
X90470736Y-102567943D01*
X90471697Y-102578928D01*
X90471697Y-102578930D01*
X90474020Y-102605478D01*
X90474500Y-102616460D01*
X90474500Y-106780290D01*
X90474020Y-106791272D01*
X90473010Y-106802821D01*
X90470736Y-106828807D01*
X81783000Y-106828807D01*
X81783000Y-106439000D01*
X81803002Y-106370879D01*
X81856658Y-106324386D01*
X81909000Y-106313000D01*
X83294748Y-106313000D01*
X83300816Y-106311793D01*
X83341061Y-106303788D01*
X83341062Y-106303788D01*
X83353231Y-106301367D01*
X83419552Y-106257052D01*
X83463867Y-106190731D01*
X83466989Y-106175039D01*
X83470543Y-106157169D01*
X86217001Y-106157169D01*
X86217371Y-106163990D01*
X86222895Y-106214852D01*
X86226521Y-106230104D01*
X86271676Y-106350554D01*
X86280214Y-106366149D01*
X86356715Y-106468224D01*
X86369276Y-106480785D01*
X86471351Y-106557286D01*
X86486946Y-106565824D01*
X86607394Y-106610978D01*
X86622649Y-106614605D01*
X86673514Y-106620131D01*
X86680328Y-106620500D01*
X87352885Y-106620500D01*
X87368124Y-106616025D01*
X87369329Y-106614635D01*
X87371000Y-106606952D01*
X87371000Y-106602384D01*
X87879000Y-106602384D01*
X87883475Y-106617623D01*
X87884865Y-106618828D01*
X87892548Y-106620499D01*
X88569669Y-106620499D01*
X88576490Y-106620129D01*
X88627352Y-106614605D01*
X88642604Y-106610979D01*
X88763054Y-106565824D01*
X88778649Y-106557286D01*
X88880724Y-106480785D01*
X88893285Y-106468224D01*
X88969786Y-106366149D01*
X88978324Y-106350554D01*
X89023478Y-106230106D01*
X89027105Y-106214851D01*
X89032631Y-106163986D01*
X89033000Y-106157172D01*
X89033000Y-106059615D01*
X89028525Y-106044376D01*
X89027135Y-106043171D01*
X89019452Y-106041500D01*
X87897115Y-106041500D01*
X87881876Y-106045975D01*
X87880671Y-106047365D01*
X87879000Y-106055048D01*
X87879000Y-106602384D01*
X87371000Y-106602384D01*
X87371000Y-106059615D01*
X87366525Y-106044376D01*
X87365135Y-106043171D01*
X87357452Y-106041500D01*
X86235116Y-106041500D01*
X86219877Y-106045975D01*
X86218672Y-106047365D01*
X86217001Y-106055048D01*
X86217001Y-106157169D01*
X83470543Y-106157169D01*
X83474293Y-106138316D01*
X83475500Y-106132248D01*
X83475500Y-105442752D01*
X83471363Y-105421953D01*
X83466288Y-105396439D01*
X83466288Y-105396438D01*
X83463867Y-105384269D01*
X83419552Y-105317948D01*
X83353231Y-105273633D01*
X83341060Y-105271212D01*
X83335500Y-105268909D01*
X83280219Y-105224362D01*
X83257797Y-105156999D01*
X83275355Y-105088207D01*
X83327316Y-105039828D01*
X83335500Y-105036091D01*
X83341060Y-105033788D01*
X83353231Y-105031367D01*
X83416285Y-104989235D01*
X83486288Y-104968000D01*
X83798280Y-104968000D01*
X83813089Y-104968873D01*
X83846810Y-104972864D01*
X83856074Y-104971172D01*
X83856075Y-104971172D01*
X83904501Y-104962328D01*
X83908404Y-104961678D01*
X83957145Y-104954350D01*
X83957146Y-104954350D01*
X83966462Y-104952949D01*
X83972975Y-104949821D01*
X83980073Y-104948525D01*
X84032147Y-104921475D01*
X84035637Y-104919732D01*
X84088579Y-104894309D01*
X84093865Y-104889423D01*
X84093913Y-104889390D01*
X84100288Y-104886079D01*
X84105328Y-104881775D01*
X84142555Y-104844548D01*
X84146121Y-104841118D01*
X84181141Y-104808746D01*
X84188056Y-104802354D01*
X84191749Y-104795995D01*
X84197266Y-104789837D01*
X85294350Y-103692753D01*
X85305439Y-103682899D01*
X85324709Y-103667707D01*
X85324711Y-103667705D01*
X85332110Y-103661872D01*
X85338879Y-103652079D01*
X85355096Y-103628614D01*
X85365462Y-103613615D01*
X85367757Y-103610403D01*
X85397040Y-103570758D01*
X85397041Y-103570757D01*
X85402634Y-103563184D01*
X85405027Y-103556368D01*
X85409131Y-103550431D01*
X85414941Y-103532062D01*
X85426818Y-103494505D01*
X85428071Y-103490750D01*
X85444396Y-103444263D01*
X85444396Y-103444261D01*
X85447519Y-103435369D01*
X85447801Y-103428181D01*
X85447812Y-103428122D01*
X85449980Y-103421270D01*
X85450500Y-103414663D01*
X85450500Y-103361984D01*
X85450597Y-103357037D01*
X85452468Y-103309418D01*
X85452838Y-103300006D01*
X85450954Y-103292900D01*
X85450500Y-103284656D01*
X85450500Y-100409000D01*
X85470502Y-100340879D01*
X85524158Y-100294386D01*
X85576500Y-100283000D01*
X88319748Y-100283000D01*
X88325816Y-100281793D01*
X88366061Y-100273788D01*
X88366062Y-100273788D01*
X88378231Y-100271367D01*
X88444552Y-100227052D01*
X88488867Y-100160731D01*
X88493590Y-100136990D01*
X88499293Y-100108316D01*
X88500500Y-100102248D01*
X88500500Y-98071204D01*
X88520502Y-98003083D01*
X88574158Y-97956590D01*
X88644432Y-97946486D01*
X88703204Y-97971242D01*
X88766103Y-98019506D01*
X88766106Y-98019508D01*
X88772659Y-98024536D01*
X88918738Y-98085044D01*
X89075500Y-98105682D01*
X89083688Y-98104604D01*
X89224074Y-98086122D01*
X89232262Y-98085044D01*
X89378341Y-98024536D01*
X89429808Y-97985044D01*
X89440895Y-97976537D01*
X89507116Y-97950937D01*
X89517599Y-97950500D01*
X91250895Y-97950500D01*
X91319016Y-97970502D01*
X91365509Y-98024158D01*
X91375613Y-98094432D01*
X91347418Y-98157489D01*
X91308736Y-98203588D01*
X91305766Y-98208991D01*
X91305765Y-98208992D01*
X91245008Y-98319509D01*
X91217802Y-98368996D01*
X91160728Y-98548917D01*
X91160042Y-98555036D01*
X91160041Y-98555039D01*
X91146640Y-98674513D01*
X91139687Y-98736496D01*
X91140203Y-98742639D01*
X91154513Y-98913045D01*
X91155482Y-98924590D01*
X91157181Y-98930515D01*
X91205522Y-99099100D01*
X91205071Y-99170095D01*
X91173498Y-99222925D01*
X89283784Y-101112640D01*
X89275681Y-101120066D01*
X89246806Y-101144295D01*
X89241293Y-101153844D01*
X89227961Y-101176935D01*
X89222055Y-101186206D01*
X89200446Y-101217066D01*
X89197592Y-101227716D01*
X89196115Y-101230884D01*
X89194923Y-101234160D01*
X89189412Y-101243705D01*
X89183630Y-101276496D01*
X89182870Y-101280808D01*
X89180492Y-101291535D01*
X89170736Y-101327943D01*
X89171697Y-101338928D01*
X89171697Y-101338930D01*
X89174020Y-101365478D01*
X89174500Y-101376460D01*
X89174500Y-103030484D01*
X89154498Y-103098605D01*
X89137595Y-103119579D01*
X88940595Y-103316579D01*
X88878283Y-103350605D01*
X88807468Y-103345540D01*
X88750632Y-103302993D01*
X88725821Y-103236473D01*
X88725500Y-103227484D01*
X88725500Y-102902752D01*
X88721363Y-102881953D01*
X88716288Y-102856439D01*
X88716288Y-102856438D01*
X88713867Y-102844269D01*
X88669552Y-102777948D01*
X88603231Y-102733633D01*
X88591060Y-102731212D01*
X88585500Y-102728909D01*
X88530219Y-102684362D01*
X88507797Y-102616999D01*
X88525355Y-102548207D01*
X88577316Y-102499828D01*
X88585500Y-102496091D01*
X88591060Y-102493788D01*
X88603231Y-102491367D01*
X88669552Y-102447052D01*
X88713867Y-102380731D01*
X88725500Y-102322248D01*
X88725500Y-101632752D01*
X88713867Y-101574269D01*
X88669552Y-101507948D01*
X88603231Y-101463633D01*
X88591062Y-101461212D01*
X88591061Y-101461212D01*
X88550816Y-101453207D01*
X88544748Y-101452000D01*
X86705252Y-101452000D01*
X86699184Y-101453207D01*
X86658939Y-101461212D01*
X86658938Y-101461212D01*
X86646769Y-101463633D01*
X86580448Y-101507948D01*
X86536133Y-101574269D01*
X86524500Y-101632752D01*
X86524500Y-102322248D01*
X86536133Y-102380731D01*
X86580448Y-102447052D01*
X86646769Y-102491367D01*
X86658940Y-102493788D01*
X86664500Y-102496091D01*
X86719781Y-102540638D01*
X86742203Y-102608001D01*
X86724645Y-102676793D01*
X86672684Y-102725172D01*
X86664500Y-102728909D01*
X86658940Y-102731212D01*
X86646769Y-102733633D01*
X86580448Y-102777948D01*
X86536133Y-102844269D01*
X86533712Y-102856438D01*
X86533712Y-102856439D01*
X86528637Y-102881953D01*
X86524500Y-102902752D01*
X86524500Y-103592248D01*
X86525707Y-103598316D01*
X86528427Y-103611988D01*
X86536133Y-103650731D01*
X86580448Y-103717052D01*
X86646769Y-103761367D01*
X86658940Y-103763788D01*
X86664500Y-103766091D01*
X86719781Y-103810638D01*
X86742203Y-103878001D01*
X86724645Y-103946793D01*
X86672684Y-103995172D01*
X86664500Y-103998909D01*
X86658940Y-104001212D01*
X86646769Y-104003633D01*
X86580448Y-104047948D01*
X86573557Y-104058261D01*
X86548789Y-104095329D01*
X86536133Y-104114269D01*
X86524500Y-104172752D01*
X86524500Y-104862248D01*
X86525706Y-104868313D01*
X86525707Y-104868319D01*
X86529127Y-104885512D01*
X86522798Y-104956226D01*
X86479243Y-105012293D01*
X86475081Y-105014919D01*
X86369276Y-105094215D01*
X86356715Y-105106776D01*
X86280214Y-105208851D01*
X86271676Y-105224446D01*
X86226522Y-105344894D01*
X86222895Y-105360149D01*
X86217369Y-105411014D01*
X86217000Y-105417828D01*
X86217000Y-105515385D01*
X86221475Y-105530624D01*
X86222865Y-105531829D01*
X86230548Y-105533500D01*
X89014884Y-105533500D01*
X89030123Y-105529025D01*
X89031328Y-105527635D01*
X89032999Y-105519952D01*
X89032999Y-105417831D01*
X89032629Y-105411010D01*
X89027105Y-105360148D01*
X89023479Y-105344896D01*
X88978324Y-105224446D01*
X88969786Y-105208851D01*
X88893285Y-105106776D01*
X88880724Y-105094215D01*
X88771462Y-105012328D01*
X88773269Y-105009916D01*
X88733793Y-104970347D01*
X88718784Y-104900955D01*
X88720873Y-104885512D01*
X88724293Y-104868319D01*
X88724294Y-104868313D01*
X88725500Y-104862248D01*
X88725500Y-104504516D01*
X88745502Y-104436395D01*
X88762405Y-104415421D01*
X89716215Y-103461611D01*
X89724319Y-103454184D01*
X89736142Y-103444263D01*
X89753194Y-103429955D01*
X89766708Y-103406548D01*
X89772039Y-103397315D01*
X89777945Y-103388044D01*
X89793230Y-103366215D01*
X89799554Y-103357184D01*
X89802408Y-103346534D01*
X89803885Y-103343366D01*
X89805077Y-103340090D01*
X89810588Y-103330545D01*
X89816838Y-103295099D01*
X89817130Y-103293442D01*
X89819509Y-103282710D01*
X89829264Y-103246307D01*
X89827618Y-103227484D01*
X89825979Y-103208757D01*
X89825500Y-103197776D01*
X89825500Y-101543766D01*
X89845502Y-101475645D01*
X89862405Y-101454671D01*
X91635713Y-99681364D01*
X91698025Y-99647338D01*
X91763743Y-99650626D01*
X91899067Y-99694595D01*
X92086495Y-99716945D01*
X92092630Y-99716473D01*
X92092632Y-99716473D01*
X92268553Y-99702937D01*
X92268557Y-99702936D01*
X92274695Y-99702464D01*
X92280627Y-99700808D01*
X92280631Y-99700807D01*
X92450554Y-99653363D01*
X92450558Y-99653362D01*
X92456498Y-99651703D01*
X92586478Y-99586046D01*
X92619478Y-99569377D01*
X92619480Y-99569376D01*
X92624979Y-99566598D01*
X92773720Y-99450388D01*
X92777746Y-99445724D01*
X92777749Y-99445721D01*
X92893028Y-99312169D01*
X92893029Y-99312167D01*
X92897057Y-99307501D01*
X92990292Y-99143378D01*
X93049873Y-98964272D01*
X93073530Y-98777005D01*
X93073907Y-98750000D01*
X93055488Y-98562145D01*
X93000931Y-98381445D01*
X92912316Y-98214783D01*
X92908420Y-98210006D01*
X92908416Y-98210000D01*
X92864485Y-98156136D01*
X92836930Y-98090705D01*
X92849125Y-98020763D01*
X92897197Y-97968518D01*
X92962127Y-97950500D01*
X94740780Y-97950500D01*
X94755589Y-97951373D01*
X94789310Y-97955364D01*
X94798574Y-97953672D01*
X94798575Y-97953672D01*
X94847001Y-97944828D01*
X94850904Y-97944178D01*
X94899645Y-97936850D01*
X94899646Y-97936850D01*
X94908962Y-97935449D01*
X94915475Y-97932321D01*
X94922573Y-97931025D01*
X94974647Y-97903975D01*
X94978137Y-97902232D01*
X95031079Y-97876809D01*
X95036365Y-97871923D01*
X95036413Y-97871890D01*
X95042788Y-97868579D01*
X95047828Y-97864275D01*
X95085055Y-97827048D01*
X95088621Y-97823618D01*
X95111098Y-97802841D01*
X95130556Y-97784854D01*
X95134249Y-97778495D01*
X95139766Y-97772337D01*
X95584405Y-97327698D01*
X95646717Y-97293672D01*
X95717532Y-97298737D01*
X95774368Y-97341284D01*
X95799179Y-97407804D01*
X95799500Y-97416793D01*
X95799500Y-100444748D01*
X95811133Y-100503231D01*
X95855448Y-100569552D01*
X95921769Y-100613867D01*
X95933938Y-100616288D01*
X95933939Y-100616288D01*
X95958629Y-100621199D01*
X95980252Y-100625500D01*
X97919748Y-100625500D01*
X97941371Y-100621199D01*
X97966061Y-100616288D01*
X97966062Y-100616288D01*
X97978231Y-100613867D01*
X98044552Y-100569552D01*
X98088867Y-100503231D01*
X98100500Y-100444748D01*
X98100500Y-97155252D01*
X98093399Y-97119552D01*
X98089725Y-97101081D01*
X98096053Y-97030367D01*
X98139608Y-96974300D01*
X98213304Y-96950500D01*
X101787293Y-96950500D01*
X101855414Y-96970502D01*
X101901907Y-97024158D01*
X101903698Y-97029705D01*
X101903963Y-97029595D01*
X101908712Y-97041061D01*
X101911133Y-97053231D01*
X101955448Y-97119552D01*
X102021769Y-97163867D01*
X102033938Y-97166288D01*
X102033939Y-97166288D01*
X102073153Y-97174088D01*
X102080252Y-97175500D01*
X103212984Y-97175500D01*
X103281105Y-97195502D01*
X103302075Y-97212401D01*
X103999080Y-97909407D01*
X104033104Y-97971717D01*
X104028039Y-98042533D01*
X103985492Y-98099368D01*
X103918972Y-98124179D01*
X103909983Y-98124500D01*
X102080252Y-98124500D01*
X102074184Y-98125707D01*
X102033939Y-98133712D01*
X102033938Y-98133712D01*
X102021769Y-98136133D01*
X101955448Y-98180448D01*
X101911133Y-98246769D01*
X101908712Y-98258938D01*
X101908712Y-98258939D01*
X101904509Y-98280070D01*
X101899500Y-98305252D01*
X101899500Y-99261207D01*
X101879498Y-99329328D01*
X101862595Y-99350302D01*
X97305650Y-103907247D01*
X97294561Y-103917101D01*
X97275291Y-103932293D01*
X97275289Y-103932295D01*
X97267890Y-103938128D01*
X97262535Y-103945875D01*
X97262534Y-103945877D01*
X97234545Y-103986375D01*
X97232250Y-103989587D01*
X97197366Y-104036816D01*
X97194973Y-104043632D01*
X97190869Y-104049569D01*
X97188029Y-104058549D01*
X97188028Y-104058551D01*
X97185660Y-104066038D01*
X97173658Y-104103991D01*
X97173182Y-104105495D01*
X97171929Y-104109250D01*
X97165349Y-104127989D01*
X97152481Y-104164631D01*
X97152199Y-104171820D01*
X97152188Y-104171877D01*
X97150020Y-104178730D01*
X97149500Y-104185337D01*
X97149500Y-104238016D01*
X97149403Y-104242962D01*
X97147162Y-104299994D01*
X97149046Y-104307100D01*
X97149500Y-104315347D01*
X97149500Y-104930254D01*
X97129498Y-104998375D01*
X97075842Y-105044868D01*
X97067110Y-105048466D01*
X97030957Y-105061804D01*
X97025996Y-105064756D01*
X97025995Y-105064756D01*
X96855353Y-105166278D01*
X96841341Y-105174614D01*
X96675457Y-105320090D01*
X96538863Y-105493360D01*
X96436131Y-105688620D01*
X96396199Y-105817223D01*
X96373716Y-105889631D01*
X96370703Y-105899333D01*
X96344770Y-106118440D01*
X96359200Y-106338604D01*
X96360621Y-106344200D01*
X96360622Y-106344205D01*
X96396869Y-106486926D01*
X96413511Y-106552452D01*
X96415928Y-106557694D01*
X96415928Y-106557695D01*
X96440492Y-106610978D01*
X96505883Y-106752821D01*
X96633222Y-106933002D01*
X96791264Y-107086961D01*
X96796060Y-107090166D01*
X96796063Y-107090168D01*
X96937999Y-107185006D01*
X96974717Y-107209540D01*
X96980020Y-107211818D01*
X96980023Y-107211820D01*
X97112930Y-107268921D01*
X97177436Y-107296635D01*
X97248393Y-107312691D01*
X97386995Y-107344054D01*
X97387001Y-107344055D01*
X97392632Y-107345329D01*
X97398403Y-107345556D01*
X97398405Y-107345556D01*
X97466211Y-107348220D01*
X97613098Y-107353991D01*
X97733917Y-107336473D01*
X97825738Y-107323160D01*
X97825743Y-107323159D01*
X97831452Y-107322331D01*
X97836916Y-107320476D01*
X97836921Y-107320475D01*
X98021379Y-107257860D01*
X98092314Y-107254904D01*
X98150975Y-107288078D01*
X102137595Y-111274698D01*
X102171621Y-111337010D01*
X102174500Y-111363793D01*
X102174500Y-114243500D01*
X102154498Y-114311621D01*
X102100842Y-114358114D01*
X102048500Y-114369500D01*
X101705252Y-114369500D01*
X101699184Y-114370707D01*
X101658939Y-114378712D01*
X101658938Y-114378712D01*
X101646769Y-114381133D01*
X101580448Y-114425448D01*
X101536133Y-114491769D01*
X101533712Y-114503938D01*
X101533712Y-114503939D01*
X101531727Y-114513917D01*
X101524500Y-114550252D01*
X101524500Y-115239748D01*
X101536133Y-115298231D01*
X101580448Y-115364552D01*
X101646769Y-115408867D01*
X101658940Y-115411288D01*
X101664500Y-115413591D01*
X101719781Y-115458138D01*
X101742203Y-115525501D01*
X101724645Y-115594293D01*
X101672684Y-115642672D01*
X101664500Y-115646409D01*
X101658940Y-115648712D01*
X101646769Y-115651133D01*
X101580448Y-115695448D01*
X101536133Y-115761769D01*
X101533712Y-115773938D01*
X101533712Y-115773939D01*
X101525708Y-115814181D01*
X101524500Y-115820252D01*
X101524500Y-116509748D01*
X101525707Y-116515816D01*
X101529226Y-116533505D01*
X101536133Y-116568231D01*
X101580448Y-116634552D01*
X101646769Y-116678867D01*
X101658940Y-116681288D01*
X101664500Y-116683591D01*
X101719781Y-116728138D01*
X101742203Y-116795501D01*
X101724645Y-116864293D01*
X101672684Y-116912672D01*
X101664500Y-116916409D01*
X101658940Y-116918712D01*
X101646769Y-116921133D01*
X101580448Y-116965448D01*
X101536133Y-117031769D01*
X101524500Y-117090252D01*
X101524500Y-117779748D01*
X101536133Y-117838231D01*
X101580448Y-117904552D01*
X101646769Y-117948867D01*
X101658940Y-117951288D01*
X101664500Y-117953591D01*
X101719781Y-117998138D01*
X101742203Y-118065501D01*
X101724645Y-118134293D01*
X101672684Y-118182672D01*
X101664500Y-118186409D01*
X101658940Y-118188712D01*
X101646769Y-118191133D01*
X101580448Y-118235448D01*
X101536133Y-118301769D01*
X101533712Y-118313938D01*
X101533712Y-118313939D01*
X101525708Y-118354181D01*
X101524500Y-118360252D01*
X101524500Y-119049748D01*
X101536133Y-119108231D01*
X101580448Y-119174552D01*
X101646769Y-119218867D01*
X101658938Y-119221288D01*
X101658939Y-119221288D01*
X101699184Y-119229293D01*
X101705252Y-119230500D01*
X103544748Y-119230500D01*
X103550816Y-119229293D01*
X103591061Y-119221288D01*
X103591062Y-119221288D01*
X103603231Y-119218867D01*
X103669552Y-119174552D01*
X103713867Y-119108231D01*
X103725500Y-119049748D01*
X103725500Y-118360252D01*
X103724292Y-118354181D01*
X103716288Y-118313939D01*
X103716288Y-118313938D01*
X103713867Y-118301769D01*
X103669552Y-118235448D01*
X103603231Y-118191133D01*
X103591060Y-118188712D01*
X103585500Y-118186409D01*
X103530219Y-118141862D01*
X103507797Y-118074499D01*
X103525355Y-118005707D01*
X103577316Y-117957328D01*
X103585500Y-117953591D01*
X103591060Y-117951288D01*
X103603231Y-117948867D01*
X103666285Y-117906735D01*
X103736288Y-117885500D01*
X103880780Y-117885500D01*
X103895589Y-117886373D01*
X103929310Y-117890364D01*
X103938574Y-117888672D01*
X103938575Y-117888672D01*
X103987001Y-117879828D01*
X103990904Y-117879178D01*
X104039645Y-117871850D01*
X104039646Y-117871850D01*
X104048962Y-117870449D01*
X104055475Y-117867321D01*
X104062573Y-117866025D01*
X104114647Y-117838975D01*
X104118137Y-117837232D01*
X104171079Y-117811809D01*
X104176365Y-117806923D01*
X104176413Y-117806890D01*
X104182788Y-117803579D01*
X104187828Y-117799275D01*
X104225055Y-117762048D01*
X104228621Y-117758618D01*
X104263641Y-117726246D01*
X104270556Y-117719854D01*
X104274249Y-117713495D01*
X104279766Y-117707337D01*
X105144350Y-116842753D01*
X105155439Y-116832899D01*
X105174711Y-116817706D01*
X105174715Y-116817702D01*
X105182110Y-116811872D01*
X105187464Y-116804125D01*
X105187468Y-116804121D01*
X105215477Y-116763596D01*
X105217758Y-116760402D01*
X105252635Y-116713183D01*
X105255029Y-116706366D01*
X105259131Y-116700431D01*
X105276812Y-116644525D01*
X105278060Y-116640785D01*
X105294400Y-116594255D01*
X105294401Y-116594252D01*
X105297520Y-116585369D01*
X105297803Y-116578184D01*
X105297817Y-116578111D01*
X105299980Y-116571270D01*
X105300500Y-116564663D01*
X105300500Y-116516496D01*
X106379687Y-116516496D01*
X106385471Y-116585369D01*
X106394364Y-116691272D01*
X106395482Y-116704590D01*
X106397181Y-116710515D01*
X106445727Y-116879815D01*
X106447510Y-116886034D01*
X106481664Y-116952491D01*
X106510012Y-117007649D01*
X106533790Y-117053917D01*
X106537615Y-117058743D01*
X106537617Y-117058746D01*
X106647206Y-117197014D01*
X106647210Y-117197019D01*
X106651035Y-117201844D01*
X106794780Y-117324180D01*
X106800158Y-117327186D01*
X106800160Y-117327187D01*
X106863014Y-117362315D01*
X106959550Y-117416267D01*
X107139067Y-117474595D01*
X107326495Y-117496945D01*
X107332630Y-117496473D01*
X107332632Y-117496473D01*
X107508553Y-117482937D01*
X107508557Y-117482936D01*
X107514695Y-117482464D01*
X107520627Y-117480808D01*
X107520631Y-117480807D01*
X107690554Y-117433363D01*
X107690558Y-117433362D01*
X107696498Y-117431703D01*
X107830620Y-117363954D01*
X107859478Y-117349377D01*
X107859480Y-117349376D01*
X107864979Y-117346598D01*
X108013720Y-117230388D01*
X108017746Y-117225724D01*
X108017749Y-117225721D01*
X108133028Y-117092169D01*
X108133029Y-117092167D01*
X108137057Y-117087501D01*
X108230292Y-116923378D01*
X108289873Y-116744272D01*
X108313530Y-116557005D01*
X108313907Y-116530000D01*
X108295488Y-116342145D01*
X108240931Y-116161445D01*
X108152316Y-115994783D01*
X108033016Y-115848508D01*
X108027225Y-115843717D01*
X107892327Y-115732120D01*
X107892324Y-115732118D01*
X107887577Y-115728191D01*
X107721538Y-115638414D01*
X107541224Y-115582597D01*
X107535106Y-115581954D01*
X107535101Y-115581953D01*
X107359631Y-115563511D01*
X107359629Y-115563511D01*
X107353502Y-115562867D01*
X107239299Y-115573260D01*
X107171664Y-115579415D01*
X107171663Y-115579415D01*
X107165523Y-115579974D01*
X106984447Y-115633268D01*
X106978982Y-115636125D01*
X106878689Y-115688557D01*
X106817170Y-115720718D01*
X106670066Y-115838993D01*
X106548736Y-115983588D01*
X106457802Y-116148996D01*
X106400728Y-116328917D01*
X106400042Y-116335036D01*
X106400041Y-116335039D01*
X106387145Y-116450006D01*
X106379687Y-116516496D01*
X105300500Y-116516496D01*
X105300500Y-116511994D01*
X105300597Y-116507048D01*
X105302468Y-116459415D01*
X105302838Y-116450006D01*
X105300954Y-116442900D01*
X105300500Y-116434653D01*
X105300500Y-115048777D01*
X106652527Y-115048777D01*
X106661824Y-115060793D01*
X106704819Y-115090898D01*
X106714305Y-115096376D01*
X106905743Y-115185645D01*
X106916035Y-115189391D01*
X107120059Y-115244059D01*
X107130854Y-115245962D01*
X107341275Y-115264372D01*
X107352225Y-115264372D01*
X107562646Y-115245962D01*
X107573441Y-115244059D01*
X107777465Y-115189391D01*
X107787757Y-115185645D01*
X107979195Y-115096376D01*
X107988681Y-115090898D01*
X108032514Y-115060207D01*
X108040889Y-115049729D01*
X108033821Y-115036281D01*
X107359562Y-114362022D01*
X107345618Y-114354408D01*
X107343785Y-114354539D01*
X107337170Y-114358790D01*
X106658957Y-115037003D01*
X106652527Y-115048777D01*
X105300500Y-115048777D01*
X105300500Y-113995475D01*
X106072378Y-113995475D01*
X106090788Y-114205896D01*
X106092691Y-114216691D01*
X106147359Y-114420715D01*
X106151105Y-114431007D01*
X106240373Y-114622441D01*
X106245853Y-114631932D01*
X106276544Y-114675765D01*
X106287021Y-114684140D01*
X106300468Y-114677072D01*
X106974728Y-114002812D01*
X106981106Y-113991132D01*
X107711158Y-113991132D01*
X107711289Y-113992965D01*
X107715540Y-113999580D01*
X108393753Y-114677793D01*
X108405527Y-114684223D01*
X108417543Y-114674926D01*
X108447647Y-114631932D01*
X108453127Y-114622441D01*
X108542395Y-114431007D01*
X108546141Y-114420715D01*
X108600809Y-114216691D01*
X108602712Y-114205896D01*
X108621122Y-113995475D01*
X108621122Y-113984525D01*
X108602712Y-113774104D01*
X108600809Y-113763309D01*
X108546141Y-113559285D01*
X108542395Y-113548993D01*
X108453127Y-113357559D01*
X108447647Y-113348068D01*
X108416956Y-113304235D01*
X108406479Y-113295860D01*
X108393032Y-113302928D01*
X107718772Y-113977188D01*
X107711158Y-113991132D01*
X106981106Y-113991132D01*
X106982342Y-113988868D01*
X106982211Y-113987035D01*
X106977960Y-113980420D01*
X106299747Y-113302207D01*
X106287973Y-113295777D01*
X106275957Y-113305074D01*
X106245853Y-113348068D01*
X106240373Y-113357559D01*
X106151105Y-113548993D01*
X106147359Y-113559285D01*
X106092691Y-113763309D01*
X106090788Y-113774104D01*
X106072378Y-113984525D01*
X106072378Y-113995475D01*
X105300500Y-113995475D01*
X105300500Y-112930271D01*
X106652610Y-112930271D01*
X106659678Y-112943718D01*
X107333938Y-113617978D01*
X107347882Y-113625592D01*
X107349715Y-113625461D01*
X107356330Y-113621210D01*
X108034543Y-112942997D01*
X108040973Y-112931223D01*
X108031676Y-112919207D01*
X107988681Y-112889102D01*
X107979195Y-112883624D01*
X107787757Y-112794355D01*
X107777465Y-112790609D01*
X107573441Y-112735941D01*
X107562646Y-112734038D01*
X107352225Y-112715628D01*
X107341275Y-112715628D01*
X107130854Y-112734038D01*
X107120059Y-112735941D01*
X106916035Y-112790609D01*
X106905743Y-112794355D01*
X106714309Y-112883623D01*
X106704818Y-112889103D01*
X106660985Y-112919794D01*
X106652610Y-112930271D01*
X105300500Y-112930271D01*
X105300500Y-111436496D01*
X106379687Y-111436496D01*
X106395482Y-111624590D01*
X106447510Y-111806034D01*
X106533790Y-111973917D01*
X106537615Y-111978743D01*
X106537617Y-111978746D01*
X106647206Y-112117014D01*
X106647210Y-112117019D01*
X106651035Y-112121844D01*
X106794780Y-112244180D01*
X106800158Y-112247186D01*
X106800160Y-112247187D01*
X106873791Y-112288338D01*
X106959550Y-112336267D01*
X107139067Y-112394595D01*
X107326495Y-112416945D01*
X107332630Y-112416473D01*
X107332632Y-112416473D01*
X107508553Y-112402937D01*
X107508557Y-112402936D01*
X107514695Y-112402464D01*
X107520627Y-112400808D01*
X107520631Y-112400807D01*
X107690554Y-112353363D01*
X107690558Y-112353362D01*
X107696498Y-112351703D01*
X107821941Y-112288338D01*
X107859478Y-112269377D01*
X107859480Y-112269376D01*
X107864979Y-112266598D01*
X108013720Y-112150388D01*
X108017746Y-112145724D01*
X108017749Y-112145721D01*
X108133028Y-112012169D01*
X108133029Y-112012167D01*
X108137057Y-112007501D01*
X108230292Y-111843378D01*
X108289873Y-111664272D01*
X108313530Y-111477005D01*
X108313907Y-111450000D01*
X108295488Y-111262145D01*
X108240931Y-111081445D01*
X108152316Y-110914783D01*
X108137141Y-110896176D01*
X108036911Y-110773284D01*
X108033016Y-110768508D01*
X108028267Y-110764579D01*
X107892327Y-110652120D01*
X107892324Y-110652118D01*
X107887577Y-110648191D01*
X107721538Y-110558414D01*
X107541224Y-110502597D01*
X107535106Y-110501954D01*
X107535101Y-110501953D01*
X107359631Y-110483511D01*
X107359629Y-110483511D01*
X107353502Y-110482867D01*
X107237875Y-110493390D01*
X107171664Y-110499415D01*
X107171663Y-110499415D01*
X107165523Y-110499974D01*
X106984447Y-110553268D01*
X106978982Y-110556125D01*
X106858784Y-110618963D01*
X106817170Y-110640718D01*
X106670066Y-110758993D01*
X106666102Y-110763717D01*
X106661272Y-110769473D01*
X106548736Y-110903588D01*
X106545766Y-110908991D01*
X106545765Y-110908992D01*
X106504240Y-110984525D01*
X106457802Y-111068996D01*
X106400728Y-111248917D01*
X106400042Y-111255036D01*
X106400041Y-111255039D01*
X106382828Y-111408491D01*
X106379687Y-111436496D01*
X105300500Y-111436496D01*
X105300500Y-109972095D01*
X108392001Y-109972095D01*
X108392338Y-109978614D01*
X108402257Y-110074206D01*
X108405149Y-110087600D01*
X108456588Y-110241784D01*
X108462761Y-110254962D01*
X108548063Y-110392807D01*
X108557099Y-110404208D01*
X108671829Y-110518739D01*
X108683240Y-110527751D01*
X108821243Y-110612816D01*
X108834424Y-110618963D01*
X108988710Y-110670138D01*
X109002086Y-110673005D01*
X109096438Y-110682672D01*
X109102854Y-110683000D01*
X109527885Y-110683000D01*
X109543124Y-110678525D01*
X109544329Y-110677135D01*
X109546000Y-110669452D01*
X109546000Y-109784615D01*
X109541525Y-109769376D01*
X109540135Y-109768171D01*
X109532452Y-109766500D01*
X108410116Y-109766500D01*
X108394877Y-109770975D01*
X108393672Y-109772365D01*
X108392001Y-109780048D01*
X108392001Y-109972095D01*
X105300500Y-109972095D01*
X105300500Y-108896496D01*
X106379687Y-108896496D01*
X106395482Y-109084590D01*
X106397181Y-109090515D01*
X106445540Y-109259163D01*
X106447510Y-109266034D01*
X106450326Y-109271513D01*
X106530012Y-109426565D01*
X106533790Y-109433917D01*
X106537615Y-109438743D01*
X106537617Y-109438746D01*
X106647206Y-109577014D01*
X106647210Y-109577019D01*
X106651035Y-109581844D01*
X106794780Y-109704180D01*
X106800158Y-109707186D01*
X106800160Y-109707187D01*
X106877165Y-109750223D01*
X106959550Y-109796267D01*
X107139067Y-109854595D01*
X107326495Y-109876945D01*
X107332630Y-109876473D01*
X107332632Y-109876473D01*
X107508553Y-109862937D01*
X107508557Y-109862936D01*
X107514695Y-109862464D01*
X107520627Y-109860808D01*
X107520631Y-109860807D01*
X107690554Y-109813363D01*
X107690558Y-109813362D01*
X107696498Y-109811703D01*
X107785986Y-109766500D01*
X107859478Y-109729377D01*
X107859480Y-109729376D01*
X107864979Y-109726598D01*
X108013720Y-109610388D01*
X108017746Y-109605724D01*
X108017749Y-109605721D01*
X108133028Y-109472169D01*
X108133029Y-109472167D01*
X108137057Y-109467501D01*
X108209082Y-109340715D01*
X108227375Y-109308514D01*
X108278414Y-109259163D01*
X108348033Y-109245241D01*
X108365833Y-109252790D01*
X108366441Y-109249993D01*
X108405548Y-109258500D01*
X109527885Y-109258500D01*
X109543124Y-109254025D01*
X109544329Y-109252635D01*
X109546000Y-109244952D01*
X109546000Y-108360116D01*
X109541525Y-108344877D01*
X109540135Y-108343672D01*
X109532452Y-108342001D01*
X109102905Y-108342001D01*
X109096386Y-108342338D01*
X109000794Y-108352257D01*
X108987400Y-108355149D01*
X108833216Y-108406588D01*
X108820038Y-108412761D01*
X108682193Y-108498063D01*
X108670792Y-108507099D01*
X108556261Y-108621829D01*
X108547249Y-108633240D01*
X108507185Y-108698236D01*
X108454413Y-108745729D01*
X108384341Y-108757153D01*
X108319217Y-108728879D01*
X108279303Y-108668538D01*
X108277019Y-108660974D01*
X108240931Y-108541445D01*
X108152316Y-108374783D01*
X108133731Y-108351995D01*
X108036911Y-108233284D01*
X108033016Y-108228508D01*
X108027225Y-108223717D01*
X107892327Y-108112120D01*
X107892324Y-108112118D01*
X107887577Y-108108191D01*
X107721538Y-108018414D01*
X107541224Y-107962597D01*
X107535106Y-107961954D01*
X107535101Y-107961953D01*
X107359631Y-107943511D01*
X107359629Y-107943511D01*
X107353502Y-107942867D01*
X107237876Y-107953390D01*
X107171664Y-107959415D01*
X107171663Y-107959415D01*
X107165523Y-107959974D01*
X106984447Y-108013268D01*
X106978982Y-108016125D01*
X106848623Y-108084275D01*
X106817170Y-108100718D01*
X106670066Y-108218993D01*
X106548736Y-108363588D01*
X106545766Y-108368991D01*
X106545765Y-108368992D01*
X106522020Y-108412184D01*
X106457802Y-108528996D01*
X106400728Y-108708917D01*
X106400042Y-108715036D01*
X106400041Y-108715039D01*
X106397993Y-108733297D01*
X106379687Y-108896496D01*
X105300500Y-108896496D01*
X105300500Y-108034219D01*
X105301373Y-108019410D01*
X105304257Y-107995041D01*
X105305364Y-107985689D01*
X105303672Y-107976426D01*
X105303672Y-107976419D01*
X105294825Y-107927982D01*
X105294174Y-107924075D01*
X105286850Y-107875356D01*
X105286850Y-107875355D01*
X105285449Y-107866038D01*
X105282321Y-107859525D01*
X105281025Y-107852427D01*
X105253972Y-107800347D01*
X105252223Y-107796845D01*
X105230887Y-107752413D01*
X105230886Y-107752412D01*
X105226809Y-107743921D01*
X105221923Y-107738636D01*
X105221892Y-107738589D01*
X105218579Y-107732211D01*
X105214275Y-107727172D01*
X105177048Y-107689945D01*
X105173618Y-107686379D01*
X105141246Y-107651359D01*
X105134854Y-107644444D01*
X105128495Y-107640751D01*
X105122337Y-107635234D01*
X104213420Y-106726317D01*
X104179394Y-106664005D01*
X104183202Y-106596722D01*
X104222331Y-106481452D01*
X104223693Y-106472063D01*
X104240449Y-106356496D01*
X106379687Y-106356496D01*
X106380203Y-106362639D01*
X106389700Y-106475730D01*
X106395482Y-106544590D01*
X106397181Y-106550515D01*
X106442745Y-106709415D01*
X106447510Y-106726034D01*
X106450326Y-106731513D01*
X106506489Y-106840794D01*
X106533790Y-106893917D01*
X106537615Y-106898743D01*
X106537617Y-106898746D01*
X106647206Y-107037014D01*
X106647210Y-107037019D01*
X106651035Y-107041844D01*
X106794780Y-107164180D01*
X106800158Y-107167186D01*
X106800160Y-107167187D01*
X106848233Y-107194054D01*
X106959550Y-107256267D01*
X107139067Y-107314595D01*
X107326495Y-107336945D01*
X107332630Y-107336473D01*
X107332632Y-107336473D01*
X107508553Y-107322937D01*
X107508557Y-107322936D01*
X107514695Y-107322464D01*
X107520627Y-107320808D01*
X107520631Y-107320807D01*
X107690554Y-107273363D01*
X107690558Y-107273362D01*
X107696498Y-107271703D01*
X107797860Y-107220502D01*
X107859478Y-107189377D01*
X107859480Y-107189376D01*
X107864979Y-107186598D01*
X108013720Y-107070388D01*
X108017746Y-107065724D01*
X108017749Y-107065721D01*
X108133028Y-106932169D01*
X108133029Y-106932167D01*
X108137057Y-106927501D01*
X108230292Y-106763378D01*
X108289873Y-106584272D01*
X108313530Y-106397005D01*
X108313907Y-106370000D01*
X108295488Y-106182145D01*
X108240931Y-106001445D01*
X108152316Y-105834783D01*
X108103334Y-105774725D01*
X108047023Y-105705682D01*
X108033016Y-105688508D01*
X108027225Y-105683717D01*
X107892327Y-105572120D01*
X107892324Y-105572118D01*
X107887577Y-105568191D01*
X107721538Y-105478414D01*
X107541224Y-105422597D01*
X107535106Y-105421954D01*
X107535101Y-105421953D01*
X107359631Y-105403511D01*
X107359629Y-105403511D01*
X107353502Y-105402867D01*
X107237875Y-105413390D01*
X107171664Y-105419415D01*
X107171663Y-105419415D01*
X107165523Y-105419974D01*
X106984447Y-105473268D01*
X106978982Y-105476125D01*
X106859050Y-105538824D01*
X106817170Y-105560718D01*
X106670066Y-105678993D01*
X106548736Y-105823588D01*
X106545766Y-105828991D01*
X106545765Y-105828992D01*
X106489200Y-105931884D01*
X106457802Y-105988996D01*
X106400728Y-106168917D01*
X106400042Y-106175036D01*
X106400041Y-106175039D01*
X106390069Y-106263943D01*
X106379687Y-106356496D01*
X104240449Y-106356496D01*
X104243879Y-106332837D01*
X104253991Y-106263098D01*
X104255643Y-106200000D01*
X104235454Y-105980289D01*
X104183203Y-105795019D01*
X104183964Y-105724028D01*
X104215378Y-105671725D01*
X106165259Y-103721844D01*
X106227571Y-103687818D01*
X106298386Y-103692883D01*
X106355222Y-103735430D01*
X106380033Y-103801950D01*
X106380295Y-103811074D01*
X106379687Y-103816496D01*
X106380203Y-103822641D01*
X106380203Y-103822642D01*
X106390629Y-103946793D01*
X106395482Y-104004590D01*
X106397181Y-104010515D01*
X106445476Y-104178939D01*
X106447510Y-104186034D01*
X106533790Y-104353917D01*
X106537615Y-104358743D01*
X106537617Y-104358746D01*
X106647206Y-104497014D01*
X106647210Y-104497019D01*
X106651035Y-104501844D01*
X106794780Y-104624180D01*
X106800158Y-104627186D01*
X106800160Y-104627187D01*
X106877165Y-104670224D01*
X106959550Y-104716267D01*
X107139067Y-104774595D01*
X107326495Y-104796945D01*
X107332630Y-104796473D01*
X107332632Y-104796473D01*
X107508553Y-104782937D01*
X107508557Y-104782936D01*
X107514695Y-104782464D01*
X107520627Y-104780808D01*
X107520631Y-104780807D01*
X107690554Y-104733363D01*
X107690558Y-104733362D01*
X107696498Y-104731703D01*
X107802290Y-104678264D01*
X107859478Y-104649377D01*
X107859480Y-104649376D01*
X107864979Y-104646598D01*
X108013720Y-104530388D01*
X108017746Y-104525724D01*
X108017749Y-104525721D01*
X108133028Y-104392169D01*
X108133029Y-104392167D01*
X108137057Y-104387501D01*
X108230292Y-104223378D01*
X108289873Y-104044272D01*
X108313530Y-103857005D01*
X108313907Y-103830000D01*
X108295488Y-103642145D01*
X108240931Y-103461445D01*
X108152316Y-103294783D01*
X108142470Y-103282710D01*
X108077689Y-103203282D01*
X108033016Y-103148508D01*
X108027220Y-103143713D01*
X107892327Y-103032120D01*
X107892324Y-103032118D01*
X107887577Y-103028191D01*
X107721538Y-102938414D01*
X107541224Y-102882597D01*
X107535106Y-102881954D01*
X107535101Y-102881953D01*
X107359631Y-102863511D01*
X107359629Y-102863511D01*
X107353502Y-102862867D01*
X107237875Y-102873390D01*
X107171664Y-102879415D01*
X107171663Y-102879415D01*
X107165523Y-102879974D01*
X106984447Y-102933268D01*
X106978982Y-102936125D01*
X106920360Y-102966772D01*
X106817170Y-103020718D01*
X106670066Y-103138993D01*
X106573020Y-103254648D01*
X106513912Y-103293973D01*
X106442924Y-103295099D01*
X106382596Y-103257668D01*
X106352083Y-103193563D01*
X106350500Y-103173655D01*
X106350500Y-101944486D01*
X106370502Y-101876365D01*
X106424158Y-101829872D01*
X106494432Y-101819768D01*
X106559012Y-101849262D01*
X106575245Y-101866221D01*
X106634052Y-101940417D01*
X106651035Y-101961844D01*
X106655728Y-101965838D01*
X106655729Y-101965839D01*
X106671971Y-101979662D01*
X106794780Y-102084180D01*
X106800158Y-102087186D01*
X106800160Y-102087187D01*
X106862238Y-102121881D01*
X106959550Y-102176267D01*
X107139067Y-102234595D01*
X107326495Y-102256945D01*
X107332630Y-102256473D01*
X107332632Y-102256473D01*
X107508553Y-102242937D01*
X107508557Y-102242936D01*
X107514695Y-102242464D01*
X107520627Y-102240808D01*
X107520631Y-102240807D01*
X107690554Y-102193363D01*
X107690558Y-102193362D01*
X107696498Y-102191703D01*
X107821165Y-102128730D01*
X107859478Y-102109377D01*
X107859480Y-102109376D01*
X107864979Y-102106598D01*
X108013720Y-101990388D01*
X108017746Y-101985724D01*
X108017749Y-101985721D01*
X108133028Y-101852169D01*
X108133029Y-101852167D01*
X108137057Y-101847501D01*
X108230292Y-101683378D01*
X108289873Y-101504272D01*
X108313530Y-101317005D01*
X108313907Y-101290000D01*
X108295488Y-101102145D01*
X108240931Y-100921445D01*
X108152316Y-100754783D01*
X108129348Y-100726621D01*
X108058381Y-100639608D01*
X108033016Y-100608508D01*
X108027220Y-100603713D01*
X107892327Y-100492120D01*
X107892324Y-100492118D01*
X107887577Y-100488191D01*
X107721538Y-100398414D01*
X107541224Y-100342597D01*
X107535106Y-100341954D01*
X107535101Y-100341953D01*
X107359631Y-100323511D01*
X107359629Y-100323511D01*
X107353502Y-100322867D01*
X107237875Y-100333390D01*
X107171664Y-100339415D01*
X107171663Y-100339415D01*
X107165523Y-100339974D01*
X106984447Y-100393268D01*
X106978982Y-100396125D01*
X106885975Y-100444748D01*
X106817170Y-100480718D01*
X106670066Y-100598993D01*
X106573020Y-100714648D01*
X106513912Y-100753973D01*
X106442924Y-100755099D01*
X106382596Y-100717668D01*
X106352083Y-100653563D01*
X106350500Y-100633655D01*
X106350500Y-99404486D01*
X106370502Y-99336365D01*
X106424158Y-99289872D01*
X106494432Y-99279768D01*
X106559012Y-99309262D01*
X106575245Y-99326221D01*
X106647205Y-99417012D01*
X106651035Y-99421844D01*
X106794780Y-99544180D01*
X106800158Y-99547186D01*
X106800160Y-99547187D01*
X106844053Y-99571718D01*
X106959550Y-99636267D01*
X107139067Y-99694595D01*
X107326495Y-99716945D01*
X107332630Y-99716473D01*
X107332632Y-99716473D01*
X107508553Y-99702937D01*
X107508557Y-99702936D01*
X107514695Y-99702464D01*
X107520627Y-99700808D01*
X107520631Y-99700807D01*
X107690554Y-99653363D01*
X107690558Y-99653362D01*
X107696498Y-99651703D01*
X107826478Y-99586046D01*
X107859478Y-99569377D01*
X107859480Y-99569376D01*
X107864979Y-99566598D01*
X108013720Y-99450388D01*
X108017746Y-99445724D01*
X108017749Y-99445721D01*
X108133028Y-99312169D01*
X108133029Y-99312167D01*
X108137057Y-99307501D01*
X108230292Y-99143378D01*
X108289873Y-98964272D01*
X108313530Y-98777005D01*
X108313907Y-98750000D01*
X108295488Y-98562145D01*
X108240931Y-98381445D01*
X108152316Y-98214783D01*
X108148420Y-98210006D01*
X108148416Y-98210000D01*
X108132096Y-98189990D01*
X108104541Y-98124559D01*
X108116736Y-98054618D01*
X108164808Y-98002372D01*
X108233495Y-97984410D01*
X108246184Y-97985432D01*
X108391812Y-98004604D01*
X108400000Y-98005682D01*
X108408188Y-98004604D01*
X108548574Y-97986122D01*
X108556762Y-97985044D01*
X108702841Y-97924536D01*
X108803119Y-97847590D01*
X108821736Y-97833305D01*
X108828282Y-97828282D01*
X108847804Y-97802841D01*
X108869323Y-97774796D01*
X108926661Y-97732929D01*
X108969286Y-97725500D01*
X109980290Y-97725500D01*
X109991272Y-97725980D01*
X110017820Y-97728303D01*
X110017822Y-97728303D01*
X110028807Y-97729264D01*
X110065215Y-97719508D01*
X110075942Y-97717130D01*
X110079301Y-97716538D01*
X110113045Y-97710588D01*
X110122590Y-97705077D01*
X110125866Y-97703885D01*
X110129034Y-97702408D01*
X110139684Y-97699554D01*
X110170544Y-97677945D01*
X110179815Y-97672039D01*
X110202906Y-97658707D01*
X110212455Y-97653194D01*
X110219543Y-97644747D01*
X110222582Y-97641126D01*
X110281693Y-97601801D01*
X110335548Y-97597197D01*
X110391812Y-97604604D01*
X110400000Y-97605682D01*
X110408188Y-97604604D01*
X110548574Y-97586122D01*
X110556762Y-97585044D01*
X110702841Y-97524536D01*
X110828282Y-97428282D01*
X110849984Y-97400000D01*
X110879848Y-97361080D01*
X110924536Y-97302841D01*
X110985044Y-97156762D01*
X110991301Y-97109239D01*
X111004604Y-97008188D01*
X111005682Y-97000000D01*
X110995363Y-96921619D01*
X110986122Y-96851426D01*
X110985044Y-96843238D01*
X110924536Y-96697159D01*
X110828282Y-96571718D01*
X110820875Y-96566034D01*
X110709392Y-96480491D01*
X110702841Y-96475464D01*
X110556762Y-96414956D01*
X110400000Y-96394318D01*
X110243238Y-96414956D01*
X110097159Y-96475464D01*
X110090608Y-96480491D01*
X109979126Y-96566034D01*
X109971718Y-96571718D01*
X109875464Y-96697159D01*
X109814956Y-96843238D01*
X109813878Y-96851426D01*
X109798933Y-96964946D01*
X109770211Y-97029873D01*
X109710946Y-97068965D01*
X109674011Y-97074500D01*
X108969286Y-97074500D01*
X108901165Y-97054498D01*
X108869323Y-97025204D01*
X108833305Y-96978264D01*
X108828282Y-96971718D01*
X108807079Y-96955448D01*
X108748355Y-96910388D01*
X108702841Y-96875464D01*
X108556762Y-96814956D01*
X108400000Y-96794318D01*
X108350439Y-96800843D01*
X108280292Y-96789904D01*
X108227193Y-96742776D01*
X108208003Y-96674422D01*
X108224435Y-96613689D01*
X108227245Y-96608742D01*
X108227246Y-96608741D01*
X108230292Y-96603378D01*
X108289873Y-96424272D01*
X108313530Y-96237005D01*
X108313907Y-96210000D01*
X108295488Y-96022145D01*
X108240931Y-95841445D01*
X108152316Y-95674783D01*
X108033016Y-95528508D01*
X108027225Y-95523717D01*
X107892327Y-95412120D01*
X107892324Y-95412118D01*
X107887577Y-95408191D01*
X107721538Y-95318414D01*
X107541224Y-95262597D01*
X107535106Y-95261954D01*
X107535101Y-95261953D01*
X107359631Y-95243511D01*
X107359629Y-95243511D01*
X107353502Y-95242867D01*
X107237875Y-95253390D01*
X107171664Y-95259415D01*
X107171663Y-95259415D01*
X107165523Y-95259974D01*
X106998962Y-95308996D01*
X106927967Y-95309041D01*
X106874296Y-95277219D01*
X105912404Y-94315328D01*
X105878380Y-94253017D01*
X105875500Y-94226234D01*
X105875500Y-92963266D01*
X105895502Y-92895145D01*
X105949158Y-92848652D01*
X106019432Y-92838548D01*
X106084012Y-92868042D01*
X106090595Y-92874171D01*
X106415099Y-93198675D01*
X106449125Y-93260987D01*
X106446106Y-93325866D01*
X106400728Y-93468917D01*
X106400042Y-93475036D01*
X106400041Y-93475039D01*
X106383588Y-93621718D01*
X106379687Y-93656496D01*
X106380203Y-93662639D01*
X106389261Y-93770502D01*
X106395482Y-93844590D01*
X106397181Y-93850515D01*
X106438863Y-93995877D01*
X106447510Y-94026034D01*
X106455285Y-94041162D01*
X106515974Y-94159250D01*
X106533790Y-94193917D01*
X106537615Y-94198743D01*
X106537617Y-94198746D01*
X106647206Y-94337014D01*
X106647210Y-94337019D01*
X106651035Y-94341844D01*
X106794780Y-94464180D01*
X106800158Y-94467186D01*
X106800160Y-94467187D01*
X106845776Y-94492681D01*
X106959550Y-94556267D01*
X107139067Y-94614595D01*
X107326495Y-94636945D01*
X107332630Y-94636473D01*
X107332632Y-94636473D01*
X107508553Y-94622937D01*
X107508557Y-94622936D01*
X107514695Y-94622464D01*
X107520627Y-94620808D01*
X107520631Y-94620807D01*
X107690554Y-94573363D01*
X107690558Y-94573362D01*
X107696498Y-94571703D01*
X107779463Y-94529795D01*
X107859478Y-94489377D01*
X107859480Y-94489376D01*
X107864979Y-94486598D01*
X108013720Y-94370388D01*
X108017746Y-94365724D01*
X108017749Y-94365721D01*
X108133028Y-94232169D01*
X108133029Y-94232167D01*
X108137057Y-94227501D01*
X108230292Y-94063378D01*
X108289873Y-93884272D01*
X108313530Y-93697005D01*
X108313907Y-93670000D01*
X108295488Y-93482145D01*
X108240931Y-93301445D01*
X108152316Y-93134783D01*
X108147777Y-93129217D01*
X108057639Y-93018699D01*
X108033016Y-92988508D01*
X108025009Y-92981884D01*
X107892327Y-92872120D01*
X107892324Y-92872118D01*
X107887577Y-92868191D01*
X107721538Y-92778414D01*
X107541224Y-92722597D01*
X107535106Y-92721954D01*
X107535101Y-92721953D01*
X107359631Y-92703511D01*
X107359629Y-92703511D01*
X107353502Y-92702867D01*
X107242882Y-92712934D01*
X107171664Y-92719415D01*
X107171663Y-92719415D01*
X107165523Y-92719974D01*
X106998962Y-92768996D01*
X106927968Y-92769042D01*
X106874294Y-92737218D01*
X106612405Y-92475329D01*
X106578379Y-92413017D01*
X106575500Y-92386234D01*
X106575500Y-92010247D01*
X106595502Y-91942126D01*
X106649158Y-91895633D01*
X106719432Y-91885529D01*
X106783164Y-91914294D01*
X106794780Y-91924180D01*
X106800158Y-91927186D01*
X106800160Y-91927187D01*
X106877165Y-91970223D01*
X106959550Y-92016267D01*
X107139067Y-92074595D01*
X107326495Y-92096945D01*
X107332630Y-92096473D01*
X107332632Y-92096473D01*
X107508553Y-92082937D01*
X107508557Y-92082936D01*
X107514695Y-92082464D01*
X107520627Y-92080808D01*
X107520631Y-92080807D01*
X107696498Y-92031703D01*
X107697232Y-92034332D01*
X107756255Y-92029355D01*
X107820135Y-92063711D01*
X109708491Y-93952067D01*
X109742517Y-94014379D01*
X109745396Y-94041162D01*
X109745396Y-94041812D01*
X109744318Y-94050000D01*
X109764956Y-94206762D01*
X109825464Y-94352841D01*
X109885491Y-94431070D01*
X109913205Y-94467187D01*
X109921718Y-94478282D01*
X109928264Y-94483305D01*
X109943934Y-94495329D01*
X110047159Y-94574536D01*
X110193238Y-94635044D01*
X110201426Y-94636122D01*
X110271619Y-94645363D01*
X110350000Y-94655682D01*
X110358188Y-94654604D01*
X110498574Y-94636122D01*
X110506762Y-94635044D01*
X110652841Y-94574536D01*
X110756066Y-94495329D01*
X110771736Y-94483305D01*
X110778282Y-94478282D01*
X110786796Y-94467187D01*
X110814509Y-94431070D01*
X110874536Y-94352841D01*
X110935044Y-94206762D01*
X110955682Y-94050000D01*
X110935044Y-93893238D01*
X110874536Y-93747159D01*
X110778282Y-93621718D01*
X110652841Y-93525464D01*
X110506762Y-93464956D01*
X110492247Y-93463045D01*
X110358188Y-93445396D01*
X110350000Y-93444318D01*
X110209592Y-93462803D01*
X110139445Y-93451864D01*
X110104052Y-93426976D01*
X108277870Y-91600794D01*
X108243844Y-91538482D01*
X108247407Y-91471929D01*
X108289873Y-91344272D01*
X108313530Y-91157005D01*
X108313907Y-91130000D01*
X108295488Y-90942145D01*
X108240931Y-90761445D01*
X108152316Y-90594783D01*
X108033016Y-90448508D01*
X108021515Y-90438993D01*
X107972669Y-90398585D01*
X107932931Y-90339751D01*
X107931308Y-90268773D01*
X107968317Y-90208186D01*
X108032207Y-90177225D01*
X108052984Y-90175500D01*
X110380290Y-90175500D01*
X110391272Y-90175980D01*
X110417820Y-90178303D01*
X110417822Y-90178303D01*
X110428807Y-90179264D01*
X110465215Y-90169508D01*
X110475942Y-90167130D01*
X110479301Y-90166538D01*
X110513045Y-90160588D01*
X110522590Y-90155077D01*
X110525866Y-90153885D01*
X110529034Y-90152408D01*
X110539684Y-90149554D01*
X110570544Y-90127945D01*
X110579815Y-90122039D01*
X110602906Y-90108707D01*
X110612455Y-90103194D01*
X110636685Y-90074317D01*
X110644111Y-90066215D01*
X111219013Y-89491313D01*
X111281325Y-89457287D01*
X111352140Y-89462352D01*
X111408976Y-89504899D01*
X111433787Y-89571419D01*
X111421114Y-89636136D01*
X111315943Y-89849403D01*
X111312641Y-89856098D01*
X111311318Y-89859996D01*
X111311317Y-89859998D01*
X111231630Y-90094749D01*
X111219919Y-90129247D01*
X111219115Y-90133291D01*
X111219113Y-90133297D01*
X111179565Y-90332120D01*
X111163644Y-90412161D01*
X111163375Y-90416272D01*
X111163374Y-90416276D01*
X111151987Y-90590007D01*
X111147865Y-90652895D01*
X111144778Y-90700000D01*
X111145048Y-90704119D01*
X111160553Y-90940674D01*
X111163644Y-90987839D01*
X111164448Y-90991879D01*
X111164448Y-90991882D01*
X111193069Y-91135767D01*
X111219919Y-91270753D01*
X111221245Y-91274659D01*
X111221246Y-91274663D01*
X111310801Y-91538482D01*
X111312641Y-91543902D01*
X111314462Y-91547595D01*
X111314463Y-91547597D01*
X111427261Y-91776328D01*
X111440222Y-91802611D01*
X111442516Y-91806044D01*
X111594406Y-92033363D01*
X111600480Y-92042454D01*
X111603194Y-92045548D01*
X111603198Y-92045554D01*
X111741240Y-92202960D01*
X111790673Y-92259327D01*
X111793762Y-92262036D01*
X112004446Y-92446802D01*
X112004452Y-92446806D01*
X112007546Y-92449520D01*
X112010972Y-92451809D01*
X112010977Y-92451813D01*
X112155791Y-92548574D01*
X112247389Y-92609778D01*
X112251088Y-92611602D01*
X112251093Y-92611605D01*
X112479856Y-92724418D01*
X112506098Y-92737359D01*
X112509996Y-92738682D01*
X112509998Y-92738683D01*
X112775337Y-92828754D01*
X112775341Y-92828755D01*
X112779247Y-92830081D01*
X112783291Y-92830885D01*
X112783297Y-92830887D01*
X113058118Y-92885552D01*
X113058121Y-92885552D01*
X113062161Y-92886356D01*
X113066272Y-92886625D01*
X113066276Y-92886626D01*
X113345881Y-92904952D01*
X113350000Y-92905222D01*
X113354119Y-92904952D01*
X113633724Y-92886626D01*
X113633728Y-92886625D01*
X113637839Y-92886356D01*
X113641879Y-92885552D01*
X113641882Y-92885552D01*
X113916703Y-92830887D01*
X113916709Y-92830885D01*
X113920753Y-92830081D01*
X113924659Y-92828755D01*
X113924663Y-92828754D01*
X114190002Y-92738683D01*
X114190004Y-92738682D01*
X114193902Y-92737359D01*
X114220144Y-92724418D01*
X114448907Y-92611605D01*
X114448912Y-92611602D01*
X114452611Y-92609778D01*
X114544209Y-92548574D01*
X114689023Y-92451813D01*
X114689028Y-92451809D01*
X114692454Y-92449520D01*
X114695548Y-92446806D01*
X114695554Y-92446802D01*
X114906238Y-92262036D01*
X114909327Y-92259327D01*
X114958760Y-92202960D01*
X115096802Y-92045554D01*
X115096806Y-92045548D01*
X115099520Y-92042454D01*
X115105595Y-92033363D01*
X115257484Y-91806044D01*
X115259778Y-91802611D01*
X115272740Y-91776328D01*
X115385537Y-91547597D01*
X115385538Y-91547595D01*
X115387359Y-91543902D01*
X115389199Y-91538482D01*
X115478754Y-91274663D01*
X115478755Y-91274659D01*
X115480081Y-91270753D01*
X115506932Y-91135767D01*
X115535552Y-90991882D01*
X115535552Y-90991879D01*
X115536356Y-90987839D01*
X115539448Y-90940674D01*
X115554952Y-90704119D01*
X115555222Y-90700000D01*
X115545501Y-90551692D01*
X115536626Y-90416276D01*
X115536625Y-90416272D01*
X115536356Y-90412161D01*
X115520435Y-90332120D01*
X115480887Y-90133297D01*
X115480885Y-90133291D01*
X115480081Y-90129247D01*
X115468371Y-90094749D01*
X115388683Y-89859998D01*
X115388682Y-89859996D01*
X115387359Y-89856098D01*
X115384105Y-89849500D01*
X115261605Y-89601093D01*
X115261602Y-89601088D01*
X115259778Y-89597389D01*
X115166165Y-89457287D01*
X115101813Y-89360977D01*
X115101809Y-89360972D01*
X115099520Y-89357546D01*
X115096806Y-89354452D01*
X115096802Y-89354446D01*
X114912036Y-89143762D01*
X114909327Y-89140673D01*
X114867499Y-89103991D01*
X114695554Y-88953198D01*
X114695548Y-88953194D01*
X114692454Y-88950480D01*
X114689028Y-88948191D01*
X114689023Y-88948187D01*
X114473638Y-88804272D01*
X114452611Y-88790222D01*
X114448912Y-88788398D01*
X114448907Y-88788395D01*
X114197597Y-88664463D01*
X114197595Y-88664462D01*
X114193902Y-88662641D01*
X114172135Y-88655252D01*
X113924663Y-88571246D01*
X113924659Y-88571245D01*
X113920753Y-88569919D01*
X113916709Y-88569115D01*
X113916703Y-88569113D01*
X113641882Y-88514448D01*
X113641879Y-88514448D01*
X113637839Y-88513644D01*
X113633728Y-88513375D01*
X113633724Y-88513374D01*
X113354119Y-88495048D01*
X113350000Y-88494778D01*
X113345881Y-88495048D01*
X113066276Y-88513374D01*
X113066272Y-88513375D01*
X113062161Y-88513644D01*
X113058121Y-88514448D01*
X113058118Y-88514448D01*
X112783297Y-88569113D01*
X112783291Y-88569115D01*
X112779247Y-88569919D01*
X112775341Y-88571245D01*
X112775337Y-88571246D01*
X112527865Y-88655252D01*
X112506098Y-88662641D01*
X112502405Y-88664462D01*
X112502403Y-88664463D01*
X112286137Y-88771113D01*
X112216195Y-88783303D01*
X112150765Y-88755743D01*
X112110622Y-88697185D01*
X112108511Y-88626220D01*
X112141312Y-88569015D01*
X112447924Y-88262403D01*
X112510234Y-88228379D01*
X112537017Y-88225500D01*
X114897774Y-88225500D01*
X114965895Y-88245502D01*
X115012388Y-88299158D01*
X115013158Y-88301060D01*
X115013511Y-88302452D01*
X115105883Y-88502821D01*
X115233222Y-88683002D01*
X115391264Y-88836961D01*
X115396060Y-88840166D01*
X115396063Y-88840168D01*
X115480261Y-88896427D01*
X115574717Y-88959540D01*
X115580020Y-88961818D01*
X115580023Y-88961820D01*
X115702542Y-89014458D01*
X115777436Y-89046635D01*
X115857088Y-89064658D01*
X115986995Y-89094054D01*
X115987001Y-89094055D01*
X115992632Y-89095329D01*
X115998403Y-89095556D01*
X115998405Y-89095556D01*
X116066211Y-89098220D01*
X116213098Y-89103991D01*
X116322275Y-89088161D01*
X116425738Y-89073160D01*
X116425743Y-89073159D01*
X116431452Y-89072331D01*
X116436916Y-89070476D01*
X116436921Y-89070475D01*
X116634907Y-89003268D01*
X116634912Y-89003266D01*
X116640379Y-89001410D01*
X116672578Y-88983378D01*
X116750350Y-88939823D01*
X116832884Y-88893602D01*
X117002518Y-88752518D01*
X117066574Y-88675500D01*
X117139908Y-88587326D01*
X117139910Y-88587323D01*
X117143602Y-88582884D01*
X117251410Y-88390379D01*
X117253266Y-88384912D01*
X117253268Y-88384907D01*
X117320475Y-88186921D01*
X117320476Y-88186916D01*
X117322331Y-88181452D01*
X117323159Y-88175743D01*
X117323160Y-88175738D01*
X117346851Y-88012339D01*
X117353991Y-87963098D01*
X117355643Y-87900000D01*
X117335454Y-87680289D01*
X117333822Y-87674500D01*
X117297228Y-87544749D01*
X117275565Y-87467936D01*
X117177980Y-87270053D01*
X117117258Y-87188736D01*
X117049420Y-87097891D01*
X117049420Y-87097890D01*
X117045967Y-87093267D01*
X116917486Y-86974500D01*
X116888189Y-86947418D01*
X116888186Y-86947416D01*
X116883949Y-86943499D01*
X116697350Y-86825764D01*
X116492421Y-86744006D01*
X116486761Y-86742880D01*
X116486757Y-86742879D01*
X116281691Y-86702089D01*
X116281688Y-86702089D01*
X116276024Y-86700962D01*
X116270249Y-86700886D01*
X116270245Y-86700886D01*
X116159504Y-86699437D01*
X116055406Y-86698074D01*
X116049709Y-86699053D01*
X116049708Y-86699053D01*
X115843654Y-86734459D01*
X115843653Y-86734459D01*
X115837957Y-86735438D01*
X115630957Y-86811804D01*
X115625996Y-86814756D01*
X115625995Y-86814756D01*
X115592261Y-86834826D01*
X115441341Y-86924614D01*
X115275457Y-87070090D01*
X115138863Y-87243360D01*
X115036131Y-87438620D01*
X115024691Y-87475464D01*
X115021461Y-87485865D01*
X114982158Y-87544990D01*
X114917128Y-87573480D01*
X114901129Y-87574500D01*
X112369698Y-87574500D01*
X112358716Y-87574020D01*
X112332180Y-87571698D01*
X112332178Y-87571698D01*
X112321193Y-87570737D01*
X112310543Y-87573591D01*
X112310541Y-87573591D01*
X112284804Y-87580488D01*
X112274069Y-87582868D01*
X112266508Y-87584201D01*
X112236955Y-87589412D01*
X112227407Y-87594924D01*
X112224130Y-87596117D01*
X112220962Y-87597594D01*
X112210316Y-87600447D01*
X112201287Y-87606769D01*
X112179453Y-87622057D01*
X112170185Y-87627961D01*
X112137545Y-87646806D01*
X112130462Y-87655247D01*
X112130461Y-87655248D01*
X112113320Y-87675676D01*
X112105894Y-87683779D01*
X111192905Y-88596769D01*
X110302079Y-89487595D01*
X110239767Y-89521620D01*
X110212984Y-89524500D01*
X108080001Y-89524500D01*
X108011880Y-89504498D01*
X107965387Y-89450842D01*
X107955283Y-89380568D01*
X107984777Y-89315988D01*
X108002428Y-89299210D01*
X108008865Y-89294181D01*
X108013720Y-89290388D01*
X108017746Y-89285724D01*
X108017749Y-89285721D01*
X108133028Y-89152169D01*
X108133029Y-89152167D01*
X108137057Y-89147501D01*
X108230292Y-88983378D01*
X108289873Y-88804272D01*
X108313530Y-88617005D01*
X108313907Y-88590000D01*
X108295488Y-88402145D01*
X108240931Y-88221445D01*
X108152316Y-88054783D01*
X108033016Y-87908508D01*
X108021515Y-87898993D01*
X107960581Y-87848585D01*
X107920843Y-87789751D01*
X107919220Y-87718773D01*
X107956229Y-87658186D01*
X108020119Y-87627225D01*
X108040896Y-87625500D01*
X108080290Y-87625500D01*
X108091272Y-87625980D01*
X108117820Y-87628303D01*
X108117822Y-87628303D01*
X108128807Y-87629264D01*
X108165215Y-87619508D01*
X108175942Y-87617130D01*
X108179301Y-87616538D01*
X108213045Y-87610588D01*
X108222590Y-87605077D01*
X108225866Y-87603885D01*
X108229034Y-87602408D01*
X108239684Y-87599554D01*
X108270544Y-87577945D01*
X108279815Y-87572039D01*
X108302906Y-87558707D01*
X108312455Y-87553194D01*
X108336685Y-87524317D01*
X108344111Y-87516215D01*
X109947921Y-85912405D01*
X110010233Y-85878379D01*
X110037016Y-85875500D01*
X112521332Y-85875500D01*
X112589453Y-85895502D01*
X112624229Y-85928780D01*
X112733222Y-86083002D01*
X112891264Y-86236961D01*
X112896060Y-86240166D01*
X112896063Y-86240168D01*
X112980261Y-86296427D01*
X113074717Y-86359540D01*
X113080020Y-86361818D01*
X113080023Y-86361820D01*
X113225999Y-86424536D01*
X113277436Y-86446635D01*
X113335555Y-86459786D01*
X113486995Y-86494054D01*
X113487001Y-86494055D01*
X113492632Y-86495329D01*
X113498403Y-86495556D01*
X113498405Y-86495556D01*
X113566211Y-86498220D01*
X113713098Y-86503991D01*
X113822275Y-86488161D01*
X113925738Y-86473160D01*
X113925743Y-86473159D01*
X113931452Y-86472331D01*
X113936916Y-86470476D01*
X113936921Y-86470475D01*
X114134907Y-86403268D01*
X114134912Y-86403266D01*
X114140379Y-86401410D01*
X114332884Y-86293602D01*
X114368150Y-86264272D01*
X114479047Y-86172039D01*
X114502518Y-86152518D01*
X114643602Y-85982884D01*
X114751410Y-85790379D01*
X114753266Y-85784912D01*
X114753268Y-85784907D01*
X114820475Y-85586921D01*
X114820476Y-85586916D01*
X114822331Y-85581452D01*
X114823159Y-85575743D01*
X114823160Y-85575738D01*
X114852656Y-85372304D01*
X114853991Y-85363098D01*
X114855643Y-85300000D01*
X114835454Y-85080289D01*
X114775565Y-84867936D01*
X114677980Y-84670053D01*
X114577586Y-84535609D01*
X114549420Y-84497891D01*
X114549420Y-84497890D01*
X114545967Y-84493267D01*
X114417412Y-84374432D01*
X114388189Y-84347418D01*
X114388186Y-84347416D01*
X114383949Y-84343499D01*
X114197350Y-84225764D01*
X113992421Y-84144006D01*
X113986761Y-84142880D01*
X113986757Y-84142879D01*
X113781691Y-84102089D01*
X113781688Y-84102089D01*
X113776024Y-84100962D01*
X113770249Y-84100886D01*
X113770245Y-84100886D01*
X113659504Y-84099437D01*
X113555406Y-84098074D01*
X113549709Y-84099053D01*
X113549708Y-84099053D01*
X113343654Y-84134459D01*
X113343653Y-84134459D01*
X113337957Y-84135438D01*
X113130957Y-84211804D01*
X113125996Y-84214756D01*
X113125995Y-84214756D01*
X112982401Y-84300186D01*
X112941341Y-84324614D01*
X112775457Y-84470090D01*
X112638863Y-84643360D01*
X112536131Y-84838620D01*
X112470703Y-85049333D01*
X112470025Y-85055066D01*
X112470024Y-85055068D01*
X112463131Y-85113310D01*
X112435261Y-85178607D01*
X112376512Y-85218471D01*
X112338004Y-85224500D01*
X109869710Y-85224500D01*
X109858728Y-85224020D01*
X109832180Y-85221697D01*
X109832178Y-85221697D01*
X109821193Y-85220736D01*
X109784785Y-85230492D01*
X109774058Y-85232870D01*
X109770699Y-85233462D01*
X109736955Y-85239412D01*
X109727410Y-85244923D01*
X109724134Y-85246115D01*
X109720966Y-85247592D01*
X109710316Y-85250446D01*
X109684340Y-85268635D01*
X109679456Y-85272055D01*
X109670185Y-85277961D01*
X109647094Y-85291293D01*
X109637545Y-85296806D01*
X109623220Y-85313878D01*
X109613315Y-85325682D01*
X109605889Y-85333785D01*
X108474594Y-86465080D01*
X108412282Y-86499106D01*
X108341467Y-86494041D01*
X108284631Y-86451494D01*
X108259820Y-86384974D01*
X108265941Y-86336213D01*
X108289873Y-86264272D01*
X108313530Y-86077005D01*
X108313907Y-86050000D01*
X108295488Y-85862145D01*
X108240931Y-85681445D01*
X108152316Y-85514783D01*
X108147247Y-85508567D01*
X108036911Y-85373284D01*
X108033016Y-85368508D01*
X108027225Y-85363717D01*
X107892327Y-85252120D01*
X107892324Y-85252118D01*
X107887577Y-85248191D01*
X107721538Y-85158414D01*
X107541224Y-85102597D01*
X107535106Y-85101954D01*
X107535101Y-85101953D01*
X107359631Y-85083511D01*
X107359629Y-85083511D01*
X107353502Y-85082867D01*
X107237875Y-85093390D01*
X107171664Y-85099415D01*
X107171663Y-85099415D01*
X107165523Y-85099974D01*
X106984447Y-85153268D01*
X106978982Y-85156125D01*
X106834009Y-85231915D01*
X106817170Y-85240718D01*
X106670066Y-85358993D01*
X106548736Y-85503588D01*
X106545766Y-85508991D01*
X106545765Y-85508992D01*
X106530077Y-85537528D01*
X106457802Y-85668996D01*
X106400728Y-85848917D01*
X106400042Y-85855036D01*
X106400041Y-85855039D01*
X106386267Y-85977839D01*
X106379687Y-86036496D01*
X106385952Y-86111106D01*
X106394856Y-86217130D01*
X106395482Y-86224590D01*
X106397181Y-86230515D01*
X106433258Y-86356330D01*
X106447510Y-86406034D01*
X106480628Y-86470475D01*
X106506176Y-86520185D01*
X106533790Y-86573917D01*
X106537615Y-86578743D01*
X106537617Y-86578746D01*
X106647206Y-86717014D01*
X106647210Y-86717019D01*
X106651035Y-86721844D01*
X106655728Y-86725838D01*
X106655729Y-86725839D01*
X106687110Y-86752546D01*
X106726023Y-86811928D01*
X106726654Y-86882922D01*
X106688803Y-86942987D01*
X106624487Y-86973053D01*
X106605447Y-86974500D01*
X106519710Y-86974500D01*
X106508728Y-86974020D01*
X106482180Y-86971697D01*
X106482178Y-86971697D01*
X106471193Y-86970736D01*
X106434785Y-86980492D01*
X106424058Y-86982870D01*
X106420699Y-86983462D01*
X106386955Y-86989412D01*
X106377410Y-86994923D01*
X106374134Y-86996115D01*
X106370966Y-86997592D01*
X106360316Y-87000446D01*
X106351285Y-87006770D01*
X106329456Y-87022055D01*
X106320185Y-87027961D01*
X106297094Y-87041293D01*
X106287545Y-87046806D01*
X106280459Y-87055251D01*
X106263315Y-87075682D01*
X106255889Y-87083785D01*
X105333785Y-88005889D01*
X105325681Y-88013316D01*
X105296806Y-88037545D01*
X105291293Y-88047094D01*
X105277961Y-88070185D01*
X105272055Y-88079456D01*
X105250446Y-88110316D01*
X105247592Y-88120966D01*
X105246115Y-88124134D01*
X105244923Y-88127410D01*
X105239412Y-88136955D01*
X105235920Y-88156762D01*
X105232870Y-88174058D01*
X105230492Y-88184785D01*
X105220736Y-88221193D01*
X105221697Y-88232178D01*
X105221697Y-88232180D01*
X105224020Y-88258728D01*
X105224500Y-88269710D01*
X105224500Y-94393540D01*
X105224020Y-94404522D01*
X105220736Y-94442057D01*
X105230443Y-94478282D01*
X105230491Y-94478460D01*
X105232870Y-94489192D01*
X105239412Y-94526295D01*
X105244923Y-94535840D01*
X105246115Y-94539116D01*
X105247592Y-94542284D01*
X105250446Y-94552934D01*
X105256770Y-94561965D01*
X105272055Y-94583794D01*
X105277961Y-94593065D01*
X105290392Y-94614595D01*
X105296806Y-94625705D01*
X105309422Y-94636291D01*
X105325682Y-94649935D01*
X105333785Y-94657361D01*
X106415099Y-95738675D01*
X106449125Y-95800987D01*
X106446106Y-95865866D01*
X106400728Y-96008917D01*
X106400042Y-96015036D01*
X106400041Y-96015039D01*
X106393283Y-96075287D01*
X106379687Y-96196496D01*
X106378659Y-96196381D01*
X106359412Y-96258685D01*
X106305110Y-96304422D01*
X106234701Y-96313540D01*
X106170540Y-96283145D01*
X106165284Y-96278181D01*
X102227698Y-92340595D01*
X102193672Y-92278283D01*
X102198737Y-92207468D01*
X102241284Y-92150632D01*
X102307804Y-92125821D01*
X102316793Y-92125500D01*
X104019748Y-92125500D01*
X104025816Y-92124293D01*
X104066061Y-92116288D01*
X104066062Y-92116288D01*
X104078231Y-92113867D01*
X104144552Y-92069552D01*
X104178884Y-92018171D01*
X104181974Y-92013547D01*
X104188867Y-92003231D01*
X104191348Y-91990761D01*
X104199293Y-91950816D01*
X104200500Y-91944748D01*
X104200500Y-88655252D01*
X104192191Y-88613480D01*
X104191288Y-88608939D01*
X104191288Y-88608938D01*
X104188867Y-88596769D01*
X104181033Y-88585044D01*
X104151443Y-88540761D01*
X104144552Y-88530448D01*
X104078231Y-88486133D01*
X104066062Y-88483712D01*
X104066061Y-88483712D01*
X104025816Y-88475707D01*
X104019748Y-88474500D01*
X102080252Y-88474500D01*
X102074184Y-88475707D01*
X102033939Y-88483712D01*
X102033938Y-88483712D01*
X102021769Y-88486133D01*
X101955448Y-88530448D01*
X101948557Y-88540761D01*
X101918968Y-88585044D01*
X101911133Y-88596769D01*
X101908712Y-88608938D01*
X101908712Y-88608939D01*
X101907809Y-88613480D01*
X101899500Y-88655252D01*
X101899500Y-91708207D01*
X101879498Y-91776328D01*
X101825842Y-91822821D01*
X101755568Y-91832925D01*
X101690988Y-91803431D01*
X101684405Y-91797302D01*
X99892753Y-90005650D01*
X99882899Y-89994561D01*
X99867707Y-89975291D01*
X99867705Y-89975289D01*
X99861872Y-89967890D01*
X99854125Y-89962535D01*
X99854123Y-89962534D01*
X99813625Y-89934545D01*
X99810403Y-89932243D01*
X99800997Y-89925295D01*
X99763184Y-89897366D01*
X99756368Y-89894973D01*
X99750431Y-89890869D01*
X99741451Y-89888029D01*
X99741449Y-89888028D01*
X99721283Y-89881650D01*
X99694481Y-89873174D01*
X99690750Y-89871929D01*
X99644263Y-89855604D01*
X99644261Y-89855604D01*
X99635369Y-89852481D01*
X99628181Y-89852199D01*
X99628122Y-89852188D01*
X99621270Y-89850020D01*
X99614663Y-89849500D01*
X99561984Y-89849500D01*
X99557037Y-89849403D01*
X99500006Y-89847162D01*
X99492900Y-89849046D01*
X99484653Y-89849500D01*
X98212707Y-89849500D01*
X98144586Y-89829498D01*
X98098093Y-89775842D01*
X98096302Y-89770295D01*
X98096037Y-89770405D01*
X98091288Y-89758939D01*
X98088867Y-89746769D01*
X98044552Y-89680448D01*
X97978231Y-89636133D01*
X97966062Y-89633712D01*
X97966061Y-89633712D01*
X97925816Y-89625707D01*
X97919748Y-89624500D01*
X95980252Y-89624500D01*
X95974184Y-89625707D01*
X95933939Y-89633712D01*
X95933938Y-89633712D01*
X95921769Y-89636133D01*
X95855448Y-89680448D01*
X95811133Y-89746769D01*
X95808712Y-89758938D01*
X95808712Y-89758939D01*
X95805350Y-89775842D01*
X95799500Y-89805252D01*
X95799500Y-90794748D01*
X95800707Y-90800816D01*
X95806432Y-90829595D01*
X95811133Y-90853231D01*
X95855448Y-90919552D01*
X95921769Y-90963867D01*
X95933938Y-90966288D01*
X95933939Y-90966288D01*
X95974184Y-90974293D01*
X95980252Y-90975500D01*
X97919748Y-90975500D01*
X97925816Y-90974293D01*
X97966061Y-90966288D01*
X97966062Y-90966288D01*
X97978231Y-90963867D01*
X98044552Y-90919552D01*
X98088867Y-90853231D01*
X98091288Y-90841061D01*
X98096037Y-90829595D01*
X98099956Y-90831218D01*
X98122037Y-90789007D01*
X98183733Y-90753877D01*
X98212707Y-90750500D01*
X99311207Y-90750500D01*
X99379328Y-90770502D01*
X99400302Y-90787405D01*
X104291098Y-95678201D01*
X104310782Y-95714248D01*
X104338503Y-95726314D01*
X104346799Y-95733902D01*
X105412595Y-96799698D01*
X105446621Y-96862010D01*
X105449500Y-96888793D01*
X105449500Y-97347640D01*
X105429498Y-97415761D01*
X105375842Y-97462254D01*
X105305568Y-97472358D01*
X105275284Y-97464050D01*
X105156762Y-97414956D01*
X105000000Y-97394318D01*
X104843238Y-97414956D01*
X104697159Y-97475464D01*
X104690608Y-97480491D01*
X104690604Y-97480493D01*
X104665223Y-97499968D01*
X104599003Y-97525567D01*
X104529454Y-97511301D01*
X104499426Y-97489099D01*
X104209844Y-97199517D01*
X104175818Y-97137205D01*
X104182477Y-97062794D01*
X104188867Y-97053231D01*
X104193569Y-97029595D01*
X104199293Y-97000816D01*
X104200500Y-96994748D01*
X104200500Y-96005252D01*
X104197621Y-95990777D01*
X104191288Y-95958939D01*
X104191288Y-95958938D01*
X104188867Y-95946769D01*
X104181478Y-95935710D01*
X104152939Y-95893000D01*
X104148687Y-95879422D01*
X104141618Y-95877884D01*
X104132000Y-95872061D01*
X104088547Y-95843026D01*
X104078231Y-95836133D01*
X104066062Y-95833712D01*
X104066061Y-95833712D01*
X104025816Y-95825707D01*
X104019748Y-95824500D01*
X103113793Y-95824500D01*
X103045672Y-95804498D01*
X103024698Y-95787595D01*
X100231162Y-92994059D01*
X100197136Y-92931747D01*
X100195335Y-92921409D01*
X100193169Y-92904952D01*
X100185044Y-92843238D01*
X100124536Y-92697159D01*
X100028282Y-92571718D01*
X100011755Y-92559036D01*
X99932737Y-92498404D01*
X99902841Y-92475464D01*
X99756762Y-92414956D01*
X99678590Y-92404665D01*
X99613663Y-92375943D01*
X99605941Y-92368838D01*
X99542753Y-92305650D01*
X99532899Y-92294561D01*
X99517707Y-92275291D01*
X99517705Y-92275289D01*
X99511872Y-92267890D01*
X99504125Y-92262535D01*
X99504123Y-92262534D01*
X99463625Y-92234545D01*
X99460403Y-92232243D01*
X99451632Y-92225764D01*
X99436728Y-92214756D01*
X99420758Y-92202960D01*
X99420757Y-92202959D01*
X99413184Y-92197366D01*
X99406368Y-92194973D01*
X99400431Y-92190869D01*
X99391451Y-92188029D01*
X99391449Y-92188028D01*
X99371283Y-92181650D01*
X99344481Y-92173174D01*
X99340750Y-92171929D01*
X99294263Y-92155604D01*
X99294261Y-92155604D01*
X99285369Y-92152481D01*
X99278181Y-92152199D01*
X99278122Y-92152188D01*
X99271270Y-92150020D01*
X99264663Y-92149500D01*
X99211984Y-92149500D01*
X99207037Y-92149403D01*
X99150006Y-92147162D01*
X99142900Y-92149046D01*
X99134653Y-92149500D01*
X98212707Y-92149500D01*
X98144586Y-92129498D01*
X98098093Y-92075842D01*
X98096302Y-92070295D01*
X98096037Y-92070405D01*
X98091288Y-92058939D01*
X98088867Y-92046769D01*
X98044552Y-91980448D01*
X97978231Y-91936133D01*
X97966062Y-91933712D01*
X97966061Y-91933712D01*
X97925816Y-91925707D01*
X97919748Y-91924500D01*
X95980252Y-91924500D01*
X95974184Y-91925707D01*
X95933939Y-91933712D01*
X95933938Y-91933712D01*
X95921769Y-91936133D01*
X95855448Y-91980448D01*
X95811133Y-92046769D01*
X95808712Y-92058938D01*
X95808712Y-92058939D01*
X95805977Y-92072691D01*
X95799500Y-92105252D01*
X95799500Y-93094748D01*
X95800707Y-93100816D01*
X95806432Y-93129595D01*
X95811133Y-93153231D01*
X95855448Y-93219552D01*
X95921769Y-93263867D01*
X95933938Y-93266288D01*
X95933939Y-93266288D01*
X95974184Y-93274293D01*
X95980252Y-93275500D01*
X97919748Y-93275500D01*
X97925816Y-93274293D01*
X97966061Y-93266288D01*
X97966062Y-93266288D01*
X97978231Y-93263867D01*
X98044552Y-93219552D01*
X98088867Y-93153231D01*
X98091288Y-93141061D01*
X98096037Y-93129595D01*
X98099956Y-93131218D01*
X98122037Y-93089007D01*
X98183733Y-93053877D01*
X98212707Y-93050500D01*
X98890916Y-93050500D01*
X98959037Y-93070502D01*
X99005530Y-93124158D01*
X99012623Y-93143890D01*
X99013878Y-93148574D01*
X99014956Y-93156762D01*
X99075464Y-93302841D01*
X99110316Y-93348261D01*
X99162631Y-93416439D01*
X99171718Y-93428282D01*
X99297159Y-93524536D01*
X99443238Y-93585044D01*
X99521410Y-93595335D01*
X99586337Y-93624057D01*
X99594059Y-93631162D01*
X101797302Y-95834405D01*
X101831328Y-95896717D01*
X101826263Y-95967532D01*
X101783716Y-96024368D01*
X101717196Y-96049179D01*
X101708207Y-96049500D01*
X95809220Y-96049500D01*
X95794411Y-96048627D01*
X95770043Y-96045743D01*
X95760690Y-96044636D01*
X95751426Y-96046328D01*
X95751422Y-96046328D01*
X95702989Y-96055173D01*
X95699088Y-96055822D01*
X95650355Y-96063149D01*
X95650347Y-96063151D01*
X95641038Y-96064551D01*
X95634528Y-96067677D01*
X95627427Y-96068974D01*
X95619072Y-96073314D01*
X95575363Y-96096018D01*
X95571825Y-96097786D01*
X95548473Y-96109000D01*
X95518921Y-96123191D01*
X95513640Y-96128074D01*
X95513588Y-96128109D01*
X95507212Y-96131420D01*
X95502172Y-96135724D01*
X95464933Y-96172963D01*
X95461368Y-96176392D01*
X95419444Y-96215146D01*
X95415751Y-96221503D01*
X95410244Y-96227652D01*
X94625301Y-97012595D01*
X94562989Y-97046621D01*
X94536206Y-97049500D01*
X92928849Y-97049500D01*
X92860728Y-97029498D01*
X92814235Y-96975842D01*
X92804131Y-96905568D01*
X92833468Y-96841169D01*
X92897057Y-96767501D01*
X92990292Y-96603378D01*
X93049873Y-96424272D01*
X93073530Y-96237005D01*
X93073907Y-96210000D01*
X93055488Y-96022145D01*
X93007583Y-95863477D01*
X93007042Y-95792485D01*
X93039110Y-95737966D01*
X94116222Y-94660855D01*
X94124326Y-94653428D01*
X94144749Y-94636291D01*
X94153194Y-94629205D01*
X94172039Y-94596565D01*
X94177943Y-94587297D01*
X94193231Y-94565463D01*
X94199553Y-94556434D01*
X94202406Y-94545788D01*
X94203883Y-94542620D01*
X94205076Y-94539343D01*
X94210588Y-94529795D01*
X94217132Y-94492681D01*
X94219512Y-94481946D01*
X94220646Y-94477716D01*
X94229263Y-94445557D01*
X94225979Y-94408019D01*
X94225500Y-94397038D01*
X94225500Y-88533222D01*
X94245502Y-88465101D01*
X94299158Y-88418608D01*
X94369432Y-88408504D01*
X94428204Y-88433259D01*
X94547159Y-88524536D01*
X94693238Y-88585044D01*
X94701426Y-88586122D01*
X94730883Y-88590000D01*
X94850000Y-88605682D01*
X94858188Y-88604604D01*
X94998574Y-88586122D01*
X95006762Y-88585044D01*
X95152841Y-88524536D01*
X95278282Y-88428282D01*
X95319323Y-88374796D01*
X95376661Y-88332929D01*
X95419286Y-88325500D01*
X95673500Y-88325500D01*
X95741621Y-88345502D01*
X95788114Y-88399158D01*
X95799500Y-88451500D01*
X95799500Y-88494748D01*
X95800707Y-88500816D01*
X95808653Y-88540761D01*
X95811133Y-88553231D01*
X95855448Y-88619552D01*
X95921769Y-88663867D01*
X95933938Y-88666288D01*
X95933939Y-88666288D01*
X95974184Y-88674293D01*
X95980252Y-88675500D01*
X97919748Y-88675500D01*
X97925816Y-88674293D01*
X97966061Y-88666288D01*
X97966062Y-88666288D01*
X97978231Y-88663867D01*
X98044552Y-88619552D01*
X98088867Y-88553231D01*
X98091348Y-88540761D01*
X98099293Y-88500816D01*
X98100500Y-88494748D01*
X98100500Y-87505252D01*
X98093946Y-87472304D01*
X98091288Y-87458939D01*
X98091288Y-87458938D01*
X98088867Y-87446769D01*
X98044552Y-87380448D01*
X97978231Y-87336133D01*
X97966062Y-87333712D01*
X97966061Y-87333712D01*
X97925816Y-87325707D01*
X97919748Y-87324500D01*
X95980252Y-87324500D01*
X95974184Y-87325707D01*
X95933939Y-87333712D01*
X95933938Y-87333712D01*
X95921769Y-87336133D01*
X95855448Y-87380448D01*
X95811133Y-87446769D01*
X95808712Y-87458938D01*
X95808712Y-87458939D01*
X95806054Y-87472304D01*
X95799500Y-87505252D01*
X95799500Y-87548500D01*
X95779498Y-87616621D01*
X95725842Y-87663114D01*
X95673500Y-87674500D01*
X95419286Y-87674500D01*
X95351165Y-87654498D01*
X95319323Y-87625204D01*
X95283305Y-87578264D01*
X95278282Y-87571718D01*
X95152841Y-87475464D01*
X95006762Y-87414956D01*
X94850000Y-87394318D01*
X94693238Y-87414956D01*
X94547159Y-87475464D01*
X94500275Y-87511439D01*
X94428204Y-87566741D01*
X94361983Y-87592341D01*
X94292435Y-87578076D01*
X94241639Y-87528475D01*
X94225500Y-87466778D01*
X94225500Y-86887016D01*
X94245502Y-86818895D01*
X94262405Y-86797921D01*
X95160326Y-85900000D01*
X99394318Y-85900000D01*
X99414956Y-86056762D01*
X99475464Y-86202841D01*
X99571718Y-86328282D01*
X99697159Y-86424536D01*
X99843238Y-86485044D01*
X100000000Y-86505682D01*
X100008188Y-86504604D01*
X100014569Y-86503764D01*
X100156762Y-86485044D01*
X100302841Y-86424536D01*
X100428282Y-86328282D01*
X100524536Y-86202841D01*
X100585044Y-86056762D01*
X100605682Y-85900000D01*
X100596882Y-85833157D01*
X100607821Y-85763010D01*
X100632709Y-85727617D01*
X100848379Y-85511947D01*
X100910691Y-85477921D01*
X100981506Y-85482986D01*
X101038342Y-85525533D01*
X101063153Y-85592053D01*
X101053883Y-85649260D01*
X101014956Y-85743238D01*
X100994318Y-85900000D01*
X101014956Y-86056762D01*
X101075464Y-86202841D01*
X101171718Y-86328282D01*
X101297159Y-86424536D01*
X101443238Y-86485044D01*
X101600000Y-86505682D01*
X101608188Y-86504604D01*
X101614569Y-86503764D01*
X101756762Y-86485044D01*
X101902841Y-86424536D01*
X102028282Y-86328282D01*
X102069323Y-86274796D01*
X102126661Y-86232929D01*
X102169286Y-86225500D01*
X102285290Y-86225500D01*
X102296272Y-86225980D01*
X102322820Y-86228303D01*
X102322822Y-86228303D01*
X102333807Y-86229264D01*
X102370215Y-86219508D01*
X102380942Y-86217130D01*
X102384301Y-86216538D01*
X102418045Y-86210588D01*
X102427590Y-86205077D01*
X102430866Y-86203885D01*
X102434034Y-86202408D01*
X102444684Y-86199554D01*
X102475544Y-86177945D01*
X102484815Y-86172039D01*
X102507906Y-86158707D01*
X102517455Y-86153194D01*
X102541685Y-86124317D01*
X102549111Y-86116215D01*
X104316222Y-84349105D01*
X104324326Y-84341678D01*
X104338986Y-84329377D01*
X104353194Y-84317455D01*
X104358704Y-84307912D01*
X104358707Y-84307908D01*
X104372036Y-84284821D01*
X104377941Y-84275551D01*
X104393232Y-84253713D01*
X104399554Y-84244684D01*
X104402407Y-84234036D01*
X104403886Y-84230865D01*
X104405078Y-84227589D01*
X104410588Y-84218045D01*
X104417134Y-84180924D01*
X104419508Y-84170217D01*
X104429263Y-84133807D01*
X104427026Y-84108231D01*
X104425979Y-84096269D01*
X104425500Y-84085288D01*
X104425500Y-83496496D01*
X106379687Y-83496496D01*
X106395482Y-83684590D01*
X106397181Y-83690515D01*
X106429039Y-83801616D01*
X106447510Y-83866034D01*
X106480952Y-83931105D01*
X106526213Y-84019173D01*
X106533790Y-84033917D01*
X106537615Y-84038743D01*
X106537617Y-84038746D01*
X106647206Y-84177014D01*
X106647210Y-84177019D01*
X106651035Y-84181844D01*
X106794780Y-84304180D01*
X106800158Y-84307186D01*
X106800160Y-84307187D01*
X106859618Y-84340417D01*
X106959550Y-84396267D01*
X107139067Y-84454595D01*
X107326495Y-84476945D01*
X107332630Y-84476473D01*
X107332632Y-84476473D01*
X107508553Y-84462937D01*
X107508557Y-84462936D01*
X107514695Y-84462464D01*
X107520627Y-84460808D01*
X107520631Y-84460807D01*
X107690554Y-84413363D01*
X107690558Y-84413362D01*
X107696498Y-84411703D01*
X107819270Y-84349687D01*
X107859478Y-84329377D01*
X107859480Y-84329376D01*
X107864979Y-84326598D01*
X107985201Y-84232670D01*
X109732160Y-84232670D01*
X109737887Y-84240320D01*
X109909042Y-84345205D01*
X109917837Y-84349687D01*
X110127988Y-84436734D01*
X110137373Y-84439783D01*
X110358554Y-84492885D01*
X110368301Y-84494428D01*
X110595070Y-84512275D01*
X110604930Y-84512275D01*
X110831699Y-84494428D01*
X110841446Y-84492885D01*
X111062627Y-84439783D01*
X111072012Y-84436734D01*
X111282163Y-84349687D01*
X111290958Y-84345205D01*
X111458445Y-84242568D01*
X111467907Y-84232110D01*
X111464124Y-84223334D01*
X110612812Y-83372022D01*
X110598868Y-83364408D01*
X110597035Y-83364539D01*
X110590420Y-83368790D01*
X109738920Y-84220290D01*
X109732160Y-84232670D01*
X107985201Y-84232670D01*
X108013720Y-84210388D01*
X108017746Y-84205724D01*
X108017749Y-84205721D01*
X108133028Y-84072169D01*
X108133029Y-84072167D01*
X108137057Y-84067501D01*
X108230292Y-83903378D01*
X108289873Y-83724272D01*
X108313530Y-83537005D01*
X108313907Y-83510000D01*
X108295488Y-83322145D01*
X108240931Y-83141445D01*
X108168345Y-83004930D01*
X109087725Y-83004930D01*
X109105572Y-83231699D01*
X109107115Y-83241446D01*
X109160217Y-83462627D01*
X109163266Y-83472012D01*
X109250313Y-83682163D01*
X109254795Y-83690958D01*
X109357432Y-83858445D01*
X109367890Y-83867907D01*
X109376666Y-83864124D01*
X110227978Y-83012812D01*
X110234356Y-83001132D01*
X110964408Y-83001132D01*
X110964539Y-83002965D01*
X110968790Y-83009580D01*
X111820290Y-83861080D01*
X111832670Y-83867840D01*
X111840320Y-83862113D01*
X111945205Y-83690958D01*
X111949687Y-83682163D01*
X112036734Y-83472012D01*
X112039783Y-83462627D01*
X112092885Y-83241446D01*
X112094428Y-83231699D01*
X112112275Y-83004930D01*
X112112275Y-82995070D01*
X112094428Y-82768301D01*
X112092885Y-82758554D01*
X112039783Y-82537373D01*
X112036734Y-82527988D01*
X111949687Y-82317837D01*
X111945205Y-82309042D01*
X111842568Y-82141555D01*
X111832110Y-82132093D01*
X111823334Y-82135876D01*
X110972022Y-82987188D01*
X110964408Y-83001132D01*
X110234356Y-83001132D01*
X110235592Y-82998868D01*
X110235461Y-82997035D01*
X110231210Y-82990420D01*
X109379710Y-82138920D01*
X109367330Y-82132160D01*
X109359680Y-82137887D01*
X109254795Y-82309042D01*
X109250313Y-82317837D01*
X109163266Y-82527988D01*
X109160217Y-82537373D01*
X109107115Y-82758554D01*
X109105572Y-82768301D01*
X109087725Y-82995070D01*
X109087725Y-83004930D01*
X108168345Y-83004930D01*
X108152316Y-82974783D01*
X108133152Y-82951285D01*
X108055345Y-82855886D01*
X108033016Y-82828508D01*
X108027225Y-82823717D01*
X107892327Y-82712120D01*
X107892324Y-82712118D01*
X107887577Y-82708191D01*
X107721538Y-82618414D01*
X107541224Y-82562597D01*
X107535106Y-82561954D01*
X107535101Y-82561953D01*
X107359631Y-82543511D01*
X107359629Y-82543511D01*
X107353502Y-82542867D01*
X107237875Y-82553390D01*
X107171664Y-82559415D01*
X107171663Y-82559415D01*
X107165523Y-82559974D01*
X106984447Y-82613268D01*
X106978982Y-82616125D01*
X106831025Y-82693475D01*
X106817170Y-82700718D01*
X106670066Y-82818993D01*
X106548736Y-82963588D01*
X106545766Y-82968991D01*
X106545765Y-82968992D01*
X106483539Y-83082180D01*
X106457802Y-83128996D01*
X106400728Y-83308917D01*
X106400042Y-83315036D01*
X106400041Y-83315039D01*
X106394012Y-83368790D01*
X106379687Y-83496496D01*
X104425500Y-83496496D01*
X104425500Y-82119710D01*
X104425980Y-82108728D01*
X104428303Y-82082180D01*
X104428303Y-82082178D01*
X104429264Y-82071193D01*
X104419508Y-82034785D01*
X104417130Y-82024058D01*
X104416538Y-82020699D01*
X104410588Y-81986955D01*
X104405077Y-81977410D01*
X104403885Y-81974134D01*
X104402408Y-81970966D01*
X104399554Y-81960316D01*
X104377945Y-81929456D01*
X104372039Y-81920185D01*
X104358707Y-81897094D01*
X104353194Y-81887545D01*
X104324317Y-81863315D01*
X104316215Y-81855889D01*
X103762405Y-81302079D01*
X103728379Y-81239767D01*
X103725500Y-81212984D01*
X103725500Y-80820252D01*
X103721998Y-80802645D01*
X103716288Y-80773939D01*
X103716288Y-80773938D01*
X103713867Y-80761769D01*
X103669552Y-80695448D01*
X103603231Y-80651133D01*
X103591060Y-80648712D01*
X103585500Y-80646409D01*
X103530219Y-80601862D01*
X103507797Y-80534499D01*
X103525355Y-80465707D01*
X103577316Y-80417328D01*
X103585500Y-80413591D01*
X103591060Y-80411288D01*
X103603231Y-80408867D01*
X103669552Y-80364552D01*
X103713867Y-80298231D01*
X103725500Y-80239748D01*
X103725500Y-79550252D01*
X103713867Y-79491769D01*
X103669552Y-79425448D01*
X103603231Y-79381133D01*
X103591062Y-79378712D01*
X103591061Y-79378712D01*
X103550816Y-79370707D01*
X103544748Y-79369500D01*
X101705252Y-79369500D01*
X101699184Y-79370707D01*
X101658939Y-79378712D01*
X101658938Y-79378712D01*
X101646769Y-79381133D01*
X101580448Y-79425448D01*
X101536133Y-79491769D01*
X101524500Y-79550252D01*
X101524500Y-80239748D01*
X101536133Y-80298231D01*
X101580448Y-80364552D01*
X101646769Y-80408867D01*
X101658940Y-80411288D01*
X101664500Y-80413591D01*
X101719781Y-80458138D01*
X101742203Y-80525501D01*
X101724645Y-80594293D01*
X101672684Y-80642672D01*
X101664500Y-80646409D01*
X101658940Y-80648712D01*
X101646769Y-80651133D01*
X101580448Y-80695448D01*
X101536133Y-80761769D01*
X101533712Y-80773938D01*
X101533712Y-80773939D01*
X101528002Y-80802645D01*
X101524500Y-80820252D01*
X101524500Y-81509748D01*
X101525707Y-81515816D01*
X101529128Y-81533012D01*
X101536133Y-81568231D01*
X101580448Y-81634552D01*
X101646769Y-81678867D01*
X101658940Y-81681288D01*
X101664500Y-81683591D01*
X101719781Y-81728138D01*
X101742203Y-81795501D01*
X101724645Y-81864293D01*
X101672684Y-81912672D01*
X101664500Y-81916409D01*
X101658940Y-81918712D01*
X101646769Y-81921133D01*
X101580448Y-81965448D01*
X101536133Y-82031769D01*
X101524500Y-82090252D01*
X101524500Y-82779748D01*
X101536133Y-82838231D01*
X101580448Y-82904552D01*
X101646769Y-82948867D01*
X101658940Y-82951288D01*
X101664500Y-82953591D01*
X101719781Y-82998138D01*
X101742203Y-83065501D01*
X101724645Y-83134293D01*
X101672684Y-83182672D01*
X101664500Y-83186409D01*
X101658940Y-83188712D01*
X101646769Y-83191133D01*
X101580448Y-83235448D01*
X101536133Y-83301769D01*
X101533712Y-83313938D01*
X101533712Y-83313939D01*
X101525708Y-83354181D01*
X101524500Y-83360252D01*
X101524500Y-83862984D01*
X101504498Y-83931105D01*
X101487595Y-83952079D01*
X100172383Y-85267291D01*
X100110071Y-85301317D01*
X100066843Y-85303118D01*
X100000000Y-85294318D01*
X99843238Y-85314956D01*
X99697159Y-85375464D01*
X99571718Y-85471718D01*
X99566695Y-85478264D01*
X99547263Y-85503588D01*
X99475464Y-85597159D01*
X99414956Y-85743238D01*
X99394318Y-85900000D01*
X95160326Y-85900000D01*
X96792921Y-84267405D01*
X96855233Y-84233379D01*
X96882016Y-84230500D01*
X98294748Y-84230500D01*
X98303068Y-84228845D01*
X98341061Y-84221288D01*
X98341062Y-84221288D01*
X98353231Y-84218867D01*
X98419552Y-84174552D01*
X98463867Y-84108231D01*
X98467336Y-84090794D01*
X98474293Y-84055816D01*
X98475500Y-84049748D01*
X98475500Y-83360252D01*
X98474293Y-83354184D01*
X98474293Y-83354181D01*
X98470873Y-83336988D01*
X98477202Y-83266274D01*
X98520757Y-83210207D01*
X98524919Y-83207581D01*
X98630724Y-83128285D01*
X98643285Y-83115724D01*
X98719786Y-83013649D01*
X98728324Y-82998054D01*
X98773478Y-82877606D01*
X98777105Y-82862351D01*
X98782631Y-82811486D01*
X98783000Y-82804672D01*
X98783000Y-82707115D01*
X98778525Y-82691876D01*
X98777135Y-82690671D01*
X98769452Y-82689000D01*
X95985116Y-82689000D01*
X95969877Y-82693475D01*
X95968672Y-82694865D01*
X95967001Y-82702548D01*
X95967001Y-82804669D01*
X95967371Y-82811490D01*
X95972895Y-82862352D01*
X95976521Y-82877604D01*
X96021676Y-82998054D01*
X96030214Y-83013649D01*
X96106715Y-83115724D01*
X96119276Y-83128285D01*
X96228538Y-83210172D01*
X96226731Y-83212584D01*
X96266207Y-83252153D01*
X96281216Y-83321545D01*
X96279127Y-83336988D01*
X96275707Y-83354181D01*
X96275707Y-83354184D01*
X96274500Y-83360252D01*
X96274500Y-83812984D01*
X96254498Y-83881105D01*
X96237595Y-83902079D01*
X93683785Y-86455889D01*
X93675681Y-86463316D01*
X93646806Y-86487545D01*
X93641293Y-86497094D01*
X93627961Y-86520185D01*
X93622055Y-86529456D01*
X93600446Y-86560316D01*
X93597592Y-86570966D01*
X93596115Y-86574134D01*
X93594923Y-86577410D01*
X93589412Y-86586955D01*
X93583462Y-86620699D01*
X93582870Y-86624058D01*
X93580492Y-86634785D01*
X93570736Y-86671193D01*
X93571697Y-86682178D01*
X93571697Y-86682180D01*
X93574020Y-86708728D01*
X93574500Y-86719710D01*
X93574500Y-94229733D01*
X93554498Y-94297854D01*
X93537595Y-94318828D01*
X92578407Y-95278016D01*
X92516095Y-95312042D01*
X92452053Y-95309286D01*
X92307109Y-95264418D01*
X92307102Y-95264417D01*
X92301224Y-95262597D01*
X92295106Y-95261954D01*
X92295101Y-95261953D01*
X92119631Y-95243511D01*
X92119629Y-95243511D01*
X92113502Y-95242867D01*
X91997875Y-95253390D01*
X91931664Y-95259415D01*
X91931663Y-95259415D01*
X91925523Y-95259974D01*
X91744447Y-95313268D01*
X91577170Y-95400718D01*
X91430066Y-95518993D01*
X91308736Y-95663588D01*
X91305766Y-95668991D01*
X91305765Y-95668992D01*
X91244390Y-95780632D01*
X91217802Y-95828996D01*
X91160728Y-96008917D01*
X91160042Y-96015036D01*
X91160041Y-96015039D01*
X91141942Y-96176393D01*
X91139687Y-96196496D01*
X91142147Y-96225793D01*
X91154716Y-96375464D01*
X91155482Y-96384590D01*
X91157181Y-96390515D01*
X91181540Y-96475464D01*
X91207510Y-96566034D01*
X91293790Y-96733917D01*
X91297615Y-96738743D01*
X91297617Y-96738746D01*
X91382020Y-96845236D01*
X91408657Y-96911046D01*
X91395486Y-96980810D01*
X91346689Y-97032379D01*
X91283274Y-97049500D01*
X89652000Y-97049500D01*
X89583879Y-97029498D01*
X89537386Y-96975842D01*
X89526000Y-96923500D01*
X89526000Y-96225793D01*
X89546002Y-96157672D01*
X89562905Y-96136698D01*
X89587198Y-96112405D01*
X89649510Y-96078379D01*
X89676293Y-96075500D01*
X90553834Y-96075500D01*
X90571752Y-96073806D01*
X90577722Y-96073242D01*
X90577723Y-96073242D01*
X90585369Y-96072519D01*
X90713184Y-96027634D01*
X90720754Y-96022042D01*
X90720757Y-96022041D01*
X90814579Y-95952742D01*
X90822150Y-95947150D01*
X90873311Y-95877884D01*
X90897041Y-95845757D01*
X90897042Y-95845754D01*
X90902634Y-95838184D01*
X90947519Y-95710369D01*
X90950500Y-95678834D01*
X90950500Y-94746166D01*
X90947519Y-94714631D01*
X90902634Y-94586816D01*
X90897042Y-94579246D01*
X90897041Y-94579243D01*
X90827742Y-94485421D01*
X90822150Y-94477850D01*
X90774385Y-94442570D01*
X90720757Y-94402959D01*
X90720754Y-94402958D01*
X90713184Y-94397366D01*
X90585369Y-94352481D01*
X90577723Y-94351758D01*
X90577722Y-94351758D01*
X90571752Y-94351194D01*
X90553834Y-94349500D01*
X89146166Y-94349500D01*
X89128248Y-94351194D01*
X89122278Y-94351758D01*
X89122277Y-94351758D01*
X89114631Y-94352481D01*
X88986816Y-94397366D01*
X88979246Y-94402958D01*
X88979243Y-94402959D01*
X88925615Y-94442570D01*
X88877850Y-94477850D01*
X88872258Y-94485421D01*
X88802959Y-94579243D01*
X88802958Y-94579246D01*
X88797366Y-94586816D01*
X88752481Y-94714631D01*
X88751758Y-94722278D01*
X88750113Y-94729776D01*
X88748331Y-94729385D01*
X88725616Y-94786280D01*
X88667823Y-94827516D01*
X88596910Y-94830961D01*
X88535391Y-94795521D01*
X88502800Y-94732447D01*
X88500500Y-94708485D01*
X88500500Y-93656496D01*
X91139687Y-93656496D01*
X91140203Y-93662639D01*
X91149261Y-93770502D01*
X91155482Y-93844590D01*
X91157181Y-93850515D01*
X91198863Y-93995877D01*
X91207510Y-94026034D01*
X91215285Y-94041162D01*
X91275974Y-94159250D01*
X91293790Y-94193917D01*
X91297615Y-94198743D01*
X91297617Y-94198746D01*
X91407206Y-94337014D01*
X91407210Y-94337019D01*
X91411035Y-94341844D01*
X91554780Y-94464180D01*
X91560158Y-94467186D01*
X91560160Y-94467187D01*
X91605776Y-94492681D01*
X91719550Y-94556267D01*
X91899067Y-94614595D01*
X92086495Y-94636945D01*
X92092630Y-94636473D01*
X92092632Y-94636473D01*
X92268553Y-94622937D01*
X92268557Y-94622936D01*
X92274695Y-94622464D01*
X92280627Y-94620808D01*
X92280631Y-94620807D01*
X92450554Y-94573363D01*
X92450558Y-94573362D01*
X92456498Y-94571703D01*
X92539463Y-94529795D01*
X92619478Y-94489377D01*
X92619480Y-94489376D01*
X92624979Y-94486598D01*
X92773720Y-94370388D01*
X92777746Y-94365724D01*
X92777749Y-94365721D01*
X92893028Y-94232169D01*
X92893029Y-94232167D01*
X92897057Y-94227501D01*
X92990292Y-94063378D01*
X93049873Y-93884272D01*
X93073530Y-93697005D01*
X93073907Y-93670000D01*
X93055488Y-93482145D01*
X93000931Y-93301445D01*
X92912316Y-93134783D01*
X92907777Y-93129217D01*
X92817639Y-93018699D01*
X92793016Y-92988508D01*
X92785009Y-92981884D01*
X92652327Y-92872120D01*
X92652324Y-92872118D01*
X92647577Y-92868191D01*
X92481538Y-92778414D01*
X92301224Y-92722597D01*
X92295106Y-92721954D01*
X92295101Y-92721953D01*
X92119631Y-92703511D01*
X92119629Y-92703511D01*
X92113502Y-92702867D01*
X92002882Y-92712934D01*
X91931664Y-92719415D01*
X91931663Y-92719415D01*
X91925523Y-92719974D01*
X91744447Y-92773268D01*
X91738982Y-92776125D01*
X91587777Y-92855173D01*
X91577170Y-92860718D01*
X91430066Y-92978993D01*
X91308736Y-93123588D01*
X91305766Y-93128991D01*
X91305765Y-93128992D01*
X91221825Y-93281679D01*
X91217802Y-93288996D01*
X91160728Y-93468917D01*
X91160042Y-93475036D01*
X91160041Y-93475039D01*
X91143588Y-93621718D01*
X91139687Y-93656496D01*
X88500500Y-93656496D01*
X88500500Y-93462752D01*
X88494643Y-93433305D01*
X88491288Y-93416439D01*
X88491288Y-93416438D01*
X88488867Y-93404269D01*
X88444552Y-93337948D01*
X88378231Y-93293633D01*
X88366062Y-93291212D01*
X88366061Y-93291212D01*
X88325816Y-93283207D01*
X88319748Y-93282000D01*
X84338793Y-93282000D01*
X84270672Y-93261998D01*
X84249698Y-93245095D01*
X83436090Y-92431487D01*
X83402064Y-92369175D01*
X83400263Y-92358838D01*
X83386122Y-92251426D01*
X83385044Y-92243238D01*
X83324536Y-92097159D01*
X83228282Y-91971718D01*
X83102841Y-91875464D01*
X82956762Y-91814956D01*
X82800000Y-91794318D01*
X82643238Y-91814956D01*
X82497159Y-91875464D01*
X82371718Y-91971718D01*
X82275464Y-92097159D01*
X82214956Y-92243238D01*
X82213878Y-92251426D01*
X82210736Y-92275291D01*
X82194318Y-92400000D01*
X82214956Y-92556762D01*
X82275464Y-92702841D01*
X82371718Y-92828282D01*
X82497159Y-92924536D01*
X82643238Y-92985044D01*
X82683984Y-92990408D01*
X82748910Y-93019130D01*
X82756632Y-93026235D01*
X82797302Y-93066905D01*
X82831328Y-93129217D01*
X82826263Y-93200032D01*
X82783716Y-93256868D01*
X82717196Y-93281679D01*
X82708207Y-93282000D01*
X81909000Y-93282000D01*
X81840879Y-93261998D01*
X81794386Y-93208342D01*
X81783000Y-93156000D01*
X81783000Y-93092357D01*
X79501530Y-93092357D01*
X79433409Y-93072355D01*
X79386916Y-93018699D01*
X79376812Y-92948425D01*
X79381697Y-92927422D01*
X79412247Y-92833396D01*
X79413982Y-92828411D01*
X79414030Y-92828282D01*
X79730425Y-91977522D01*
X79732361Y-91972632D01*
X79732746Y-91971718D01*
X80084148Y-91135767D01*
X80086295Y-91130946D01*
X80289082Y-90700000D01*
X84444778Y-90700000D01*
X84445048Y-90704119D01*
X84460553Y-90940674D01*
X84463644Y-90987839D01*
X84464448Y-90991879D01*
X84464448Y-90991882D01*
X84493069Y-91135767D01*
X84519919Y-91270753D01*
X84521245Y-91274659D01*
X84521246Y-91274663D01*
X84610801Y-91538482D01*
X84612641Y-91543902D01*
X84614462Y-91547595D01*
X84614463Y-91547597D01*
X84727261Y-91776328D01*
X84740222Y-91802611D01*
X84742516Y-91806044D01*
X84894406Y-92033363D01*
X84900480Y-92042454D01*
X84903194Y-92045548D01*
X84903198Y-92045554D01*
X85041240Y-92202960D01*
X85090673Y-92259327D01*
X85093762Y-92262036D01*
X85304446Y-92446802D01*
X85304452Y-92446806D01*
X85307546Y-92449520D01*
X85310972Y-92451809D01*
X85310977Y-92451813D01*
X85455791Y-92548574D01*
X85547389Y-92609778D01*
X85551088Y-92611602D01*
X85551093Y-92611605D01*
X85779856Y-92724418D01*
X85806098Y-92737359D01*
X85809996Y-92738682D01*
X85809998Y-92738683D01*
X86075337Y-92828754D01*
X86075341Y-92828755D01*
X86079247Y-92830081D01*
X86083291Y-92830885D01*
X86083297Y-92830887D01*
X86358118Y-92885552D01*
X86358121Y-92885552D01*
X86362161Y-92886356D01*
X86366272Y-92886625D01*
X86366276Y-92886626D01*
X86645881Y-92904952D01*
X86650000Y-92905222D01*
X86654119Y-92904952D01*
X86933724Y-92886626D01*
X86933728Y-92886625D01*
X86937839Y-92886356D01*
X86941879Y-92885552D01*
X86941882Y-92885552D01*
X87216703Y-92830887D01*
X87216709Y-92830885D01*
X87220753Y-92830081D01*
X87224659Y-92828755D01*
X87224663Y-92828754D01*
X87490002Y-92738683D01*
X87490004Y-92738682D01*
X87493902Y-92737359D01*
X87520144Y-92724418D01*
X87748907Y-92611605D01*
X87748912Y-92611602D01*
X87752611Y-92609778D01*
X87844209Y-92548574D01*
X87989023Y-92451813D01*
X87989028Y-92451809D01*
X87992454Y-92449520D01*
X87995548Y-92446806D01*
X87995554Y-92446802D01*
X88206238Y-92262036D01*
X88209327Y-92259327D01*
X88212036Y-92256238D01*
X88212044Y-92256230D01*
X88221270Y-92245710D01*
X88281224Y-92207683D01*
X88352219Y-92208106D01*
X88411715Y-92246844D01*
X88440823Y-92311600D01*
X88442001Y-92328788D01*
X88442001Y-92547095D01*
X88442338Y-92553614D01*
X88452257Y-92649206D01*
X88455149Y-92662600D01*
X88506588Y-92816784D01*
X88512761Y-92829962D01*
X88598063Y-92967807D01*
X88607099Y-92979208D01*
X88721829Y-93093739D01*
X88733240Y-93102751D01*
X88871243Y-93187816D01*
X88884424Y-93193963D01*
X89038710Y-93245138D01*
X89052086Y-93248005D01*
X89146438Y-93257672D01*
X89152854Y-93258000D01*
X89577885Y-93258000D01*
X89593124Y-93253525D01*
X89594329Y-93252135D01*
X89596000Y-93244452D01*
X89596000Y-93239884D01*
X90104000Y-93239884D01*
X90108475Y-93255123D01*
X90109865Y-93256328D01*
X90117548Y-93257999D01*
X90547095Y-93257999D01*
X90553614Y-93257662D01*
X90649206Y-93247743D01*
X90662600Y-93244851D01*
X90816784Y-93193412D01*
X90829962Y-93187239D01*
X90967807Y-93101937D01*
X90979208Y-93092901D01*
X91093739Y-92978171D01*
X91102751Y-92966760D01*
X91187816Y-92828757D01*
X91193963Y-92815576D01*
X91245138Y-92661290D01*
X91248005Y-92647914D01*
X91257672Y-92553562D01*
X91258000Y-92547146D01*
X91258000Y-92359615D01*
X91253525Y-92344376D01*
X91252135Y-92343171D01*
X91244452Y-92341500D01*
X90122115Y-92341500D01*
X90106876Y-92345975D01*
X90105671Y-92347365D01*
X90104000Y-92355048D01*
X90104000Y-93239884D01*
X89596000Y-93239884D01*
X89596000Y-91815385D01*
X90104000Y-91815385D01*
X90108475Y-91830624D01*
X90109865Y-91831829D01*
X90117548Y-91833500D01*
X91239884Y-91833500D01*
X91258127Y-91828143D01*
X91312798Y-91793008D01*
X91383794Y-91793008D01*
X91429959Y-91817949D01*
X91554780Y-91924180D01*
X91560158Y-91927186D01*
X91560160Y-91927187D01*
X91637165Y-91970223D01*
X91719550Y-92016267D01*
X91899067Y-92074595D01*
X92086495Y-92096945D01*
X92092630Y-92096473D01*
X92092632Y-92096473D01*
X92268553Y-92082937D01*
X92268557Y-92082936D01*
X92274695Y-92082464D01*
X92280627Y-92080808D01*
X92280631Y-92080807D01*
X92450554Y-92033363D01*
X92450558Y-92033362D01*
X92456498Y-92031703D01*
X92563726Y-91977539D01*
X92619478Y-91949377D01*
X92619480Y-91949376D01*
X92624979Y-91946598D01*
X92773720Y-91830388D01*
X92777746Y-91825724D01*
X92777749Y-91825721D01*
X92893028Y-91692169D01*
X92893029Y-91692167D01*
X92897057Y-91687501D01*
X92908777Y-91666871D01*
X92916700Y-91652923D01*
X92990292Y-91523378D01*
X93049873Y-91344272D01*
X93073530Y-91157005D01*
X93073907Y-91130000D01*
X93055488Y-90942145D01*
X93000931Y-90761445D01*
X92912316Y-90594783D01*
X92793016Y-90448508D01*
X92787225Y-90443717D01*
X92652327Y-90332120D01*
X92652324Y-90332118D01*
X92647577Y-90328191D01*
X92481538Y-90238414D01*
X92301224Y-90182597D01*
X92295106Y-90181954D01*
X92295101Y-90181953D01*
X92119631Y-90163511D01*
X92119629Y-90163511D01*
X92113502Y-90162867D01*
X91997875Y-90173390D01*
X91931664Y-90179415D01*
X91931663Y-90179415D01*
X91925523Y-90179974D01*
X91744447Y-90233268D01*
X91577170Y-90320718D01*
X91430066Y-90438993D01*
X91308736Y-90583588D01*
X91217802Y-90748996D01*
X91160728Y-90928917D01*
X91160042Y-90935036D01*
X91160041Y-90935039D01*
X91155299Y-90977314D01*
X91127827Y-91042780D01*
X91069323Y-91083002D01*
X90998361Y-91085209D01*
X90963968Y-91070528D01*
X90828757Y-90987184D01*
X90815576Y-90981037D01*
X90661290Y-90929862D01*
X90647914Y-90926995D01*
X90553562Y-90917328D01*
X90547145Y-90917000D01*
X90122115Y-90917000D01*
X90106876Y-90921475D01*
X90105671Y-90922865D01*
X90104000Y-90930548D01*
X90104000Y-91815385D01*
X89596000Y-91815385D01*
X89596000Y-90935116D01*
X89591525Y-90919877D01*
X89590135Y-90918672D01*
X89582452Y-90917001D01*
X89152905Y-90917001D01*
X89146386Y-90917338D01*
X89050794Y-90927257D01*
X89037397Y-90930150D01*
X89013596Y-90938090D01*
X88942647Y-90940674D01*
X88881563Y-90904490D01*
X88849739Y-90841026D01*
X88847991Y-90810325D01*
X88854952Y-90704119D01*
X88855222Y-90700000D01*
X88845501Y-90551692D01*
X88836626Y-90416276D01*
X88836625Y-90416272D01*
X88836356Y-90412161D01*
X88820435Y-90332120D01*
X88780887Y-90133297D01*
X88780885Y-90133291D01*
X88780081Y-90129247D01*
X88768371Y-90094749D01*
X88688683Y-89859998D01*
X88688682Y-89859996D01*
X88687359Y-89856098D01*
X88684105Y-89849500D01*
X88561605Y-89601093D01*
X88561602Y-89601088D01*
X88559778Y-89597389D01*
X88466165Y-89457287D01*
X88401813Y-89360977D01*
X88401809Y-89360972D01*
X88399520Y-89357546D01*
X88396806Y-89354452D01*
X88396802Y-89354446D01*
X88212036Y-89143762D01*
X88209327Y-89140673D01*
X88167499Y-89103991D01*
X87995554Y-88953198D01*
X87995548Y-88953194D01*
X87992454Y-88950480D01*
X87989028Y-88948191D01*
X87989023Y-88948187D01*
X87773638Y-88804272D01*
X87752611Y-88790222D01*
X87748912Y-88788398D01*
X87748907Y-88788395D01*
X87497597Y-88664463D01*
X87497595Y-88664462D01*
X87493902Y-88662641D01*
X87472135Y-88655252D01*
X87240129Y-88576496D01*
X91139687Y-88576496D01*
X91142047Y-88604604D01*
X91150669Y-88707270D01*
X91155482Y-88764590D01*
X91157181Y-88770515D01*
X91195416Y-88903856D01*
X91207510Y-88946034D01*
X91293790Y-89113917D01*
X91297615Y-89118743D01*
X91297617Y-89118746D01*
X91407206Y-89257014D01*
X91407210Y-89257019D01*
X91411035Y-89261844D01*
X91554780Y-89384180D01*
X91560158Y-89387186D01*
X91560160Y-89387187D01*
X91637165Y-89430223D01*
X91719550Y-89476267D01*
X91899067Y-89534595D01*
X92086495Y-89556945D01*
X92092630Y-89556473D01*
X92092632Y-89556473D01*
X92268553Y-89542937D01*
X92268557Y-89542936D01*
X92274695Y-89542464D01*
X92280627Y-89540808D01*
X92280631Y-89540807D01*
X92450554Y-89493363D01*
X92450558Y-89493362D01*
X92456498Y-89491703D01*
X92572866Y-89432922D01*
X92619478Y-89409377D01*
X92619480Y-89409376D01*
X92624979Y-89406598D01*
X92773720Y-89290388D01*
X92777746Y-89285724D01*
X92777749Y-89285721D01*
X92893028Y-89152169D01*
X92893029Y-89152167D01*
X92897057Y-89147501D01*
X92990292Y-88983378D01*
X93049873Y-88804272D01*
X93073530Y-88617005D01*
X93073907Y-88590000D01*
X93055488Y-88402145D01*
X93000931Y-88221445D01*
X92912316Y-88054783D01*
X92793016Y-87908508D01*
X92782732Y-87900000D01*
X92652327Y-87792120D01*
X92652324Y-87792118D01*
X92647577Y-87788191D01*
X92481538Y-87698414D01*
X92301224Y-87642597D01*
X92295106Y-87641954D01*
X92295101Y-87641953D01*
X92119631Y-87623511D01*
X92119629Y-87623511D01*
X92113502Y-87622867D01*
X91997875Y-87633390D01*
X91931664Y-87639415D01*
X91931663Y-87639415D01*
X91925523Y-87639974D01*
X91744447Y-87693268D01*
X91577170Y-87780718D01*
X91430066Y-87898993D01*
X91308736Y-88043588D01*
X91217802Y-88208996D01*
X91160728Y-88388917D01*
X91160042Y-88395036D01*
X91160041Y-88395039D01*
X91140527Y-88569011D01*
X91139687Y-88576496D01*
X87240129Y-88576496D01*
X87224663Y-88571246D01*
X87224659Y-88571245D01*
X87220753Y-88569919D01*
X87216709Y-88569115D01*
X87216703Y-88569113D01*
X86941882Y-88514448D01*
X86941879Y-88514448D01*
X86937839Y-88513644D01*
X86933728Y-88513375D01*
X86933724Y-88513374D01*
X86654119Y-88495048D01*
X86650000Y-88494778D01*
X86645881Y-88495048D01*
X86366276Y-88513374D01*
X86366272Y-88513375D01*
X86362161Y-88513644D01*
X86358121Y-88514448D01*
X86358118Y-88514448D01*
X86083297Y-88569113D01*
X86083291Y-88569115D01*
X86079247Y-88569919D01*
X86075341Y-88571245D01*
X86075337Y-88571246D01*
X85827865Y-88655252D01*
X85806098Y-88662641D01*
X85802405Y-88664462D01*
X85802403Y-88664463D01*
X85551093Y-88788395D01*
X85551088Y-88788398D01*
X85547389Y-88790222D01*
X85526362Y-88804272D01*
X85310977Y-88948187D01*
X85310972Y-88948191D01*
X85307546Y-88950480D01*
X85304452Y-88953194D01*
X85304446Y-88953198D01*
X85132501Y-89103991D01*
X85090673Y-89140673D01*
X85087964Y-89143762D01*
X84903198Y-89354446D01*
X84903194Y-89354452D01*
X84900480Y-89357546D01*
X84898191Y-89360972D01*
X84898187Y-89360977D01*
X84833835Y-89457287D01*
X84740222Y-89597389D01*
X84738398Y-89601088D01*
X84738395Y-89601093D01*
X84615895Y-89849500D01*
X84612641Y-89856098D01*
X84611318Y-89859996D01*
X84611317Y-89859998D01*
X84531630Y-90094749D01*
X84519919Y-90129247D01*
X84519115Y-90133291D01*
X84519113Y-90133297D01*
X84479565Y-90332120D01*
X84463644Y-90412161D01*
X84463375Y-90416272D01*
X84463374Y-90416276D01*
X84451987Y-90590007D01*
X84447865Y-90652895D01*
X84444778Y-90700000D01*
X80289082Y-90700000D01*
X80472803Y-90309573D01*
X80475149Y-90304846D01*
X80895734Y-89500343D01*
X80898277Y-89495718D01*
X81352170Y-88709552D01*
X81354904Y-88705038D01*
X81661801Y-88221445D01*
X81841321Y-87938566D01*
X81844231Y-87934185D01*
X81865717Y-87903272D01*
X82362334Y-87188734D01*
X82365416Y-87184491D01*
X82914277Y-86461393D01*
X82917555Y-86457258D01*
X83265640Y-86036496D01*
X91139687Y-86036496D01*
X91145952Y-86111106D01*
X91154856Y-86217130D01*
X91155482Y-86224590D01*
X91157181Y-86230515D01*
X91193258Y-86356330D01*
X91207510Y-86406034D01*
X91240628Y-86470475D01*
X91266176Y-86520185D01*
X91293790Y-86573917D01*
X91297615Y-86578743D01*
X91297617Y-86578746D01*
X91407206Y-86717014D01*
X91407210Y-86717019D01*
X91411035Y-86721844D01*
X91554780Y-86844180D01*
X91560158Y-86847186D01*
X91560160Y-86847187D01*
X91631426Y-86887016D01*
X91719550Y-86936267D01*
X91899067Y-86994595D01*
X92086495Y-87016945D01*
X92092630Y-87016473D01*
X92092632Y-87016473D01*
X92268553Y-87002937D01*
X92268557Y-87002936D01*
X92274695Y-87002464D01*
X92280627Y-87000808D01*
X92280631Y-87000807D01*
X92450554Y-86953363D01*
X92450558Y-86953362D01*
X92456498Y-86951703D01*
X92592663Y-86882922D01*
X92619478Y-86869377D01*
X92619480Y-86869376D01*
X92624979Y-86866598D01*
X92773720Y-86750388D01*
X92777746Y-86745724D01*
X92777749Y-86745721D01*
X92893028Y-86612169D01*
X92893029Y-86612167D01*
X92897057Y-86607501D01*
X92990292Y-86443378D01*
X93049873Y-86264272D01*
X93073530Y-86077005D01*
X93073907Y-86050000D01*
X93055488Y-85862145D01*
X93000931Y-85681445D01*
X92912316Y-85514783D01*
X92907247Y-85508567D01*
X92796911Y-85373284D01*
X92793016Y-85368508D01*
X92787225Y-85363717D01*
X92652327Y-85252120D01*
X92652324Y-85252118D01*
X92647577Y-85248191D01*
X92481538Y-85158414D01*
X92301224Y-85102597D01*
X92295106Y-85101954D01*
X92295101Y-85101953D01*
X92119631Y-85083511D01*
X92119629Y-85083511D01*
X92113502Y-85082867D01*
X91997875Y-85093390D01*
X91931664Y-85099415D01*
X91931663Y-85099415D01*
X91925523Y-85099974D01*
X91744447Y-85153268D01*
X91738982Y-85156125D01*
X91594009Y-85231915D01*
X91577170Y-85240718D01*
X91430066Y-85358993D01*
X91308736Y-85503588D01*
X91305766Y-85508991D01*
X91305765Y-85508992D01*
X91290077Y-85537528D01*
X91217802Y-85668996D01*
X91160728Y-85848917D01*
X91160042Y-85855036D01*
X91160041Y-85855039D01*
X91146267Y-85977839D01*
X91139687Y-86036496D01*
X83265640Y-86036496D01*
X83496211Y-85757783D01*
X83499660Y-85753788D01*
X84107076Y-85079183D01*
X84110689Y-85075335D01*
X84175265Y-85009392D01*
X84745844Y-84426737D01*
X84749611Y-84423048D01*
X84759925Y-84413363D01*
X85411370Y-83801615D01*
X85415290Y-83798085D01*
X85744980Y-83513505D01*
X86102476Y-83204923D01*
X86106540Y-83201561D01*
X86182388Y-83141445D01*
X86817976Y-82637683D01*
X86822178Y-82634494D01*
X86918630Y-82564418D01*
X87556598Y-82100907D01*
X87560932Y-82097895D01*
X87642142Y-82043939D01*
X88317055Y-81595528D01*
X88321488Y-81592714D01*
X88576499Y-81438274D01*
X89097984Y-81122452D01*
X89102554Y-81119813D01*
X89898067Y-80682476D01*
X89902744Y-80680031D01*
X90715859Y-80276397D01*
X90720634Y-80274150D01*
X91437634Y-79954921D01*
X91508001Y-79945487D01*
X91572298Y-79975593D01*
X91610112Y-80035682D01*
X91609436Y-80106676D01*
X91567837Y-80168222D01*
X91430066Y-80278993D01*
X91308736Y-80423588D01*
X91217802Y-80588996D01*
X91160728Y-80768917D01*
X91160042Y-80775036D01*
X91160041Y-80775039D01*
X91151979Y-80846915D01*
X91139687Y-80956496D01*
X91140203Y-80962639D01*
X91153508Y-81121079D01*
X91155482Y-81144590D01*
X91157181Y-81150515D01*
X91175094Y-81212984D01*
X91207510Y-81326034D01*
X91293790Y-81493917D01*
X91297615Y-81498743D01*
X91297617Y-81498746D01*
X91407206Y-81637014D01*
X91407210Y-81637019D01*
X91411035Y-81641844D01*
X91415729Y-81645839D01*
X91415733Y-81645843D01*
X91423609Y-81652546D01*
X91462523Y-81711928D01*
X91463154Y-81782922D01*
X91425303Y-81842987D01*
X91360987Y-81873053D01*
X91341947Y-81874500D01*
X90719713Y-81874500D01*
X90708732Y-81874021D01*
X90682170Y-81871697D01*
X90682168Y-81871697D01*
X90671193Y-81870737D01*
X90634783Y-81880492D01*
X90624076Y-81882866D01*
X90586955Y-81889412D01*
X90577411Y-81894922D01*
X90574135Y-81896114D01*
X90570964Y-81897593D01*
X90560316Y-81900446D01*
X90551287Y-81906768D01*
X90529449Y-81922059D01*
X90520179Y-81927964D01*
X90497092Y-81941293D01*
X90497088Y-81941296D01*
X90487545Y-81946806D01*
X90464614Y-81974134D01*
X90463320Y-81975676D01*
X90455894Y-81983779D01*
X89583787Y-82855886D01*
X89575684Y-82863312D01*
X89555249Y-82880460D01*
X89546806Y-82887545D01*
X89541296Y-82897089D01*
X89541295Y-82897090D01*
X89527961Y-82920185D01*
X89522055Y-82929456D01*
X89500446Y-82960316D01*
X89497592Y-82970966D01*
X89496115Y-82974134D01*
X89494923Y-82977410D01*
X89489412Y-82986955D01*
X89483462Y-83020699D01*
X89482870Y-83024058D01*
X89480492Y-83034785D01*
X89470736Y-83071193D01*
X89471697Y-83082178D01*
X89471697Y-83082180D01*
X89474020Y-83108728D01*
X89474500Y-83119710D01*
X89474500Y-84130714D01*
X89454498Y-84198835D01*
X89425204Y-84230677D01*
X89371718Y-84271718D01*
X89275464Y-84397159D01*
X89214956Y-84543238D01*
X89194318Y-84700000D01*
X89214956Y-84856762D01*
X89275464Y-85002841D01*
X89371718Y-85128282D01*
X89497159Y-85224536D01*
X89643238Y-85285044D01*
X89800000Y-85305682D01*
X89808188Y-85304604D01*
X89819476Y-85303118D01*
X89956762Y-85285044D01*
X90102841Y-85224536D01*
X90228282Y-85128282D01*
X90324536Y-85002841D01*
X90385044Y-84856762D01*
X90405682Y-84700000D01*
X90385044Y-84543238D01*
X90324536Y-84397159D01*
X90228282Y-84271718D01*
X90174796Y-84230677D01*
X90132929Y-84173339D01*
X90125500Y-84130714D01*
X90125500Y-83287017D01*
X90145502Y-83218896D01*
X90162405Y-83197921D01*
X90797923Y-82562404D01*
X90860235Y-82528379D01*
X90887018Y-82525500D01*
X91437302Y-82525500D01*
X91505423Y-82545502D01*
X91551916Y-82599158D01*
X91562020Y-82669432D01*
X91532526Y-82734012D01*
X91516261Y-82749690D01*
X91430066Y-82818993D01*
X91308736Y-82963588D01*
X91305766Y-82968991D01*
X91305765Y-82968992D01*
X91243539Y-83082180D01*
X91217802Y-83128996D01*
X91160728Y-83308917D01*
X91160042Y-83315036D01*
X91160041Y-83315039D01*
X91154012Y-83368790D01*
X91139687Y-83496496D01*
X91155482Y-83684590D01*
X91157181Y-83690515D01*
X91189039Y-83801616D01*
X91207510Y-83866034D01*
X91240952Y-83931105D01*
X91286213Y-84019173D01*
X91293790Y-84033917D01*
X91297615Y-84038743D01*
X91297617Y-84038746D01*
X91407206Y-84177014D01*
X91407210Y-84177019D01*
X91411035Y-84181844D01*
X91554780Y-84304180D01*
X91560158Y-84307186D01*
X91560160Y-84307187D01*
X91619618Y-84340417D01*
X91719550Y-84396267D01*
X91899067Y-84454595D01*
X92086495Y-84476945D01*
X92092630Y-84476473D01*
X92092632Y-84476473D01*
X92268553Y-84462937D01*
X92268557Y-84462936D01*
X92274695Y-84462464D01*
X92280627Y-84460808D01*
X92280631Y-84460807D01*
X92450554Y-84413363D01*
X92450558Y-84413362D01*
X92456498Y-84411703D01*
X92579270Y-84349687D01*
X92619478Y-84329377D01*
X92619480Y-84329376D01*
X92624979Y-84326598D01*
X92773720Y-84210388D01*
X92777746Y-84205724D01*
X92777749Y-84205721D01*
X92893028Y-84072169D01*
X92893029Y-84072167D01*
X92897057Y-84067501D01*
X92990292Y-83903378D01*
X93049873Y-83724272D01*
X93073530Y-83537005D01*
X93073907Y-83510000D01*
X93055488Y-83322145D01*
X93000931Y-83141445D01*
X92912316Y-82974783D01*
X92893152Y-82951285D01*
X92815345Y-82855886D01*
X92793016Y-82828508D01*
X92781515Y-82818993D01*
X92696405Y-82748585D01*
X92656667Y-82689751D01*
X92655044Y-82618773D01*
X92692053Y-82558186D01*
X92755943Y-82527225D01*
X92776720Y-82525500D01*
X94380290Y-82525500D01*
X94391272Y-82525980D01*
X94417820Y-82528303D01*
X94417822Y-82528303D01*
X94428807Y-82529264D01*
X94465215Y-82519508D01*
X94475942Y-82517130D01*
X94479301Y-82516538D01*
X94513045Y-82510588D01*
X94522590Y-82505077D01*
X94525866Y-82503885D01*
X94529034Y-82502408D01*
X94539684Y-82499554D01*
X94570544Y-82477945D01*
X94579815Y-82472039D01*
X94602906Y-82458707D01*
X94612455Y-82453194D01*
X94636685Y-82424317D01*
X94644111Y-82416215D01*
X95532921Y-81527405D01*
X95595233Y-81493379D01*
X95622016Y-81490500D01*
X96076253Y-81490500D01*
X96144374Y-81510502D01*
X96190867Y-81564158D01*
X96200971Y-81634432D01*
X96171477Y-81699012D01*
X96151818Y-81717326D01*
X96119276Y-81741715D01*
X96106715Y-81754276D01*
X96030214Y-81856351D01*
X96021676Y-81871946D01*
X95976522Y-81992394D01*
X95972895Y-82007649D01*
X95967369Y-82058514D01*
X95967000Y-82065328D01*
X95967000Y-82162885D01*
X95971475Y-82178124D01*
X95972865Y-82179329D01*
X95980548Y-82181000D01*
X98764884Y-82181000D01*
X98780123Y-82176525D01*
X98781328Y-82175135D01*
X98782999Y-82167452D01*
X98782999Y-82065331D01*
X98782629Y-82058510D01*
X98777105Y-82007648D01*
X98773479Y-81992396D01*
X98728324Y-81871946D01*
X98719786Y-81856351D01*
X98643285Y-81754276D01*
X98630724Y-81741715D01*
X98521462Y-81659828D01*
X98523269Y-81657416D01*
X98483793Y-81617847D01*
X98468784Y-81548455D01*
X98470873Y-81533012D01*
X98474293Y-81515819D01*
X98474294Y-81515813D01*
X98475500Y-81509748D01*
X98475500Y-80820252D01*
X98474293Y-80814184D01*
X98474293Y-80814181D01*
X98470873Y-80796988D01*
X98477202Y-80726274D01*
X98520757Y-80670207D01*
X98524919Y-80667581D01*
X98630724Y-80588285D01*
X98643285Y-80575724D01*
X98719786Y-80473649D01*
X98728324Y-80458054D01*
X98773478Y-80337606D01*
X98777105Y-80322351D01*
X98782631Y-80271486D01*
X98783000Y-80264672D01*
X98783000Y-80167115D01*
X98778525Y-80151876D01*
X98777135Y-80150671D01*
X98769452Y-80149000D01*
X95985116Y-80149000D01*
X95969877Y-80153475D01*
X95968672Y-80154865D01*
X95967001Y-80162548D01*
X95967001Y-80264669D01*
X95967371Y-80271490D01*
X95972895Y-80322352D01*
X95976521Y-80337604D01*
X96021676Y-80458054D01*
X96030214Y-80473649D01*
X96106715Y-80575724D01*
X96119276Y-80588285D01*
X96151818Y-80612674D01*
X96194333Y-80669533D01*
X96199359Y-80740352D01*
X96165299Y-80802645D01*
X96102968Y-80836635D01*
X96076253Y-80839500D01*
X95454710Y-80839500D01*
X95443728Y-80839020D01*
X95417180Y-80836697D01*
X95417178Y-80836697D01*
X95406193Y-80835736D01*
X95369785Y-80845492D01*
X95359058Y-80847870D01*
X95355699Y-80848462D01*
X95321955Y-80854412D01*
X95312410Y-80859923D01*
X95309134Y-80861115D01*
X95305966Y-80862592D01*
X95295316Y-80865446D01*
X95286285Y-80871770D01*
X95264456Y-80887055D01*
X95255185Y-80892961D01*
X95232094Y-80906293D01*
X95222545Y-80911806D01*
X95215459Y-80920251D01*
X95198315Y-80940682D01*
X95190889Y-80948785D01*
X94302079Y-81837595D01*
X94239767Y-81871621D01*
X94212984Y-81874500D01*
X92872743Y-81874500D01*
X92804622Y-81854498D01*
X92758129Y-81800842D01*
X92748025Y-81730568D01*
X92777362Y-81666169D01*
X92893028Y-81532169D01*
X92893029Y-81532167D01*
X92897057Y-81527501D01*
X92990292Y-81363378D01*
X93049873Y-81184272D01*
X93073530Y-80997005D01*
X93073907Y-80970000D01*
X93055488Y-80782145D01*
X93000931Y-80601445D01*
X92912316Y-80434783D01*
X92885558Y-80401974D01*
X92820618Y-80322351D01*
X92793016Y-80288508D01*
X92787225Y-80283717D01*
X92652327Y-80172120D01*
X92652324Y-80172118D01*
X92647577Y-80168191D01*
X92481538Y-80078414D01*
X92301224Y-80022597D01*
X92295106Y-80021954D01*
X92295101Y-80021953D01*
X92119631Y-80003511D01*
X92119629Y-80003511D01*
X92113502Y-80002867D01*
X92031160Y-80010361D01*
X91930904Y-80019484D01*
X91861251Y-80005738D01*
X91810087Y-79956517D01*
X91793656Y-79887448D01*
X91817174Y-79820460D01*
X91873100Y-79776852D01*
X92261976Y-79622885D01*
X95967000Y-79622885D01*
X95971475Y-79638124D01*
X95972865Y-79639329D01*
X95980548Y-79641000D01*
X97102885Y-79641000D01*
X97118124Y-79636525D01*
X97119329Y-79635135D01*
X97121000Y-79627452D01*
X97121000Y-79622885D01*
X97629000Y-79622885D01*
X97633475Y-79638124D01*
X97634865Y-79639329D01*
X97642548Y-79641000D01*
X98764884Y-79641000D01*
X98780123Y-79636525D01*
X98781328Y-79635135D01*
X98782999Y-79627452D01*
X98782999Y-79525331D01*
X98782629Y-79518510D01*
X98777105Y-79467648D01*
X98773479Y-79452396D01*
X98728324Y-79331946D01*
X98719786Y-79316351D01*
X98643285Y-79214276D01*
X98630724Y-79201715D01*
X98528649Y-79125214D01*
X98513054Y-79116676D01*
X98392606Y-79071522D01*
X98377351Y-79067895D01*
X98326486Y-79062369D01*
X98319672Y-79062000D01*
X97647115Y-79062000D01*
X97631876Y-79066475D01*
X97630671Y-79067865D01*
X97629000Y-79075548D01*
X97629000Y-79622885D01*
X97121000Y-79622885D01*
X97121000Y-79080116D01*
X97116525Y-79064877D01*
X97115135Y-79063672D01*
X97107452Y-79062001D01*
X96430331Y-79062001D01*
X96423510Y-79062371D01*
X96372648Y-79067895D01*
X96357396Y-79071521D01*
X96236946Y-79116676D01*
X96221351Y-79125214D01*
X96119276Y-79201715D01*
X96106715Y-79214276D01*
X96030214Y-79316351D01*
X96021676Y-79331946D01*
X95976522Y-79452394D01*
X95972895Y-79467649D01*
X95967369Y-79518514D01*
X95967000Y-79525328D01*
X95967000Y-79622885D01*
X92261976Y-79622885D01*
X92398877Y-79568682D01*
X92403801Y-79566851D01*
X92829644Y-79418557D01*
X93261087Y-79268313D01*
X93266106Y-79266682D01*
X94135160Y-79004300D01*
X94140243Y-79002881D01*
X95019488Y-78777129D01*
X95024626Y-78775923D01*
X95550151Y-78664219D01*
X95912608Y-78587176D01*
X95917770Y-78586191D01*
X96812900Y-78434791D01*
X96818087Y-78434027D01*
X97344414Y-78367536D01*
X97718706Y-78320252D01*
X97723954Y-78319700D01*
X98176265Y-78281718D01*
X98628584Y-78243735D01*
X98633839Y-78243405D01*
X99540817Y-78205392D01*
X99546094Y-78205281D01*
X100453906Y-78205281D01*
X100459183Y-78205392D01*
G37*
%TD.AperFunction*%
%TD*%
M02*
