M48
; DRILL file {KiCad (6.0.8)} date Fri Nov 18 04:39:02 2022
; FORMAT={-:-/ absolute / inch / decimal}
; #@! TF.CreationDate,2022-11-18T04:39:02-05:00
; #@! TF.GenerationSoftware,Kicad,Pcbnew,(6.0.8)
; #@! TF.FileFunction,Plated,1,2,PTH
FMAT,2
INCH
; #@! TA.AperFunction,Plated,PTH,ViaDrill
T1C0.0157
; #@! TA.AperFunction,Plated,PTH,ComponentDrill
T2C0.0394
; #@! TA.AperFunction,Plated,PTH,ComponentDrill
T3C0.0400
%
G90
G05
T1
X3.2598Y-3.6378
X3.3465Y-3.815
X3.5069Y-3.8386
X3.5354Y-3.3346
X3.6811Y-4.0354
X3.7343Y-3.4646
X3.9213Y-3.6614
X3.937Y-3.3819
X4.0Y-3.3819
X4.1339Y-3.8583
X4.1339Y-3.937
X4.2677Y-3.8346
X4.3445Y-3.7028
X4.3465Y-3.8189
X4.437Y-4.1476
X4.5118Y-4.4114
X4.5295Y-4.1378
T2
X3.8406Y-4.1791
X4.0571Y-4.1811
X4.3543Y-3.2677
X4.4744Y-3.3583
X4.5728Y-3.4606
X4.6339Y-3.6732
X4.6457Y-4.1732
X4.6654Y-3.7992
X4.6732Y-4.0512
X4.6811Y-3.9291
T3
X3.6262Y-3.1878
X3.6262Y-3.2878
X3.6262Y-3.3878
X3.6262Y-3.4878
X3.6262Y-3.5878
X3.6262Y-3.6878
X3.6262Y-3.7878
X3.6262Y-3.8878
X3.6262Y-3.9878
X3.6262Y-4.0878
X3.6262Y-4.1878
X3.6262Y-4.2878
X3.6262Y-4.3878
X3.6262Y-4.4878
X3.6262Y-4.5878
X4.2263Y-3.1878
X4.2263Y-3.2878
X4.2263Y-3.3878
X4.2263Y-3.4878
X4.2263Y-3.5878
X4.2263Y-3.6878
X4.2263Y-3.7878
X4.2263Y-3.8878
X4.2263Y-3.9878
X4.2263Y-4.0878
X4.2263Y-4.1878
X4.2263Y-4.2878
X4.2263Y-4.3878
X4.2263Y-4.4878
X4.2263Y-4.5878
T0
M30
