%TF.GenerationSoftware,KiCad,Pcbnew,(6.0.8)*%
%TF.CreationDate,2022-11-18T04:38:56-05:00*%
%TF.ProjectId,Armstrong_v2.0,41726d73-7472-46f6-9e67-5f76322e302e,rev?*%
%TF.SameCoordinates,Original*%
%TF.FileFunction,Soldermask,Bot*%
%TF.FilePolarity,Negative*%
%FSLAX46Y46*%
G04 Gerber Fmt 4.6, Leading zero omitted, Abs format (unit mm)*
G04 Created by KiCad (PCBNEW (6.0.8)) date 2022-11-18 04:38:56*
%MOMM*%
%LPD*%
G01*
G04 APERTURE LIST*
G04 Aperture macros list*
%AMRoundRect*
0 Rectangle with rounded corners*
0 $1 Rounding radius*
0 $2 $3 $4 $5 $6 $7 $8 $9 X,Y pos of 4 corners*
0 Add a 4 corners polygon primitive as box body*
4,1,4,$2,$3,$4,$5,$6,$7,$8,$9,$2,$3,0*
0 Add four circle primitives for the rounded corners*
1,1,$1+$1,$2,$3*
1,1,$1+$1,$4,$5*
1,1,$1+$1,$6,$7*
1,1,$1+$1,$8,$9*
0 Add four rect primitives between the rounded corners*
20,1,$1+$1,$2,$3,$4,$5,0*
20,1,$1+$1,$4,$5,$6,$7,0*
20,1,$1+$1,$6,$7,$8,$9,0*
20,1,$1+$1,$8,$9,$2,$3,0*%
G04 Aperture macros list end*
%ADD10C,2.000000*%
%ADD11RoundRect,0.275000X-0.275000X0.625000X-0.275000X-0.625000X0.275000X-0.625000X0.275000X0.625000X0*%
%ADD12R,0.540000X0.420000*%
%ADD13RoundRect,0.250000X-0.625000X0.400000X-0.625000X-0.400000X0.625000X-0.400000X0.625000X0.400000X0*%
%ADD14RoundRect,0.250000X0.625000X-0.400000X0.625000X0.400000X-0.625000X0.400000X-0.625000X-0.400000X0*%
%ADD15C,1.500000*%
%ADD16R,1.524000X1.524000*%
%ADD17C,1.524000*%
G04 APERTURE END LIST*
D10*
%TO.C,TP20*%
X113650000Y-85300000D03*
%TD*%
%TO.C,TP19*%
X116150000Y-87900000D03*
%TD*%
%TO.C,TP18*%
X110600000Y-83000000D03*
%TD*%
D11*
%TO.C,SW\u002A\u002A1*%
X98150000Y-96900000D03*
X101850000Y-96900000D03*
X98150000Y-103100000D03*
X101850000Y-103100000D03*
%TD*%
D12*
%TO.C,D1*%
X88050000Y-96900000D03*
X86450000Y-96900000D03*
%TD*%
D13*
%TO.C,R12*%
X115000000Y-94050000D03*
X115000000Y-97150000D03*
%TD*%
D14*
%TO.C,R11*%
X112400000Y-97150000D03*
X112400000Y-94050000D03*
%TD*%
D13*
%TO.C,R10*%
X96400000Y-87550000D03*
X96400000Y-90650000D03*
%TD*%
D14*
%TO.C,R9*%
X103700000Y-96550000D03*
X103700000Y-93450000D03*
%TD*%
%TO.C,R7*%
X96400000Y-83350000D03*
X96400000Y-80250000D03*
%TD*%
%TO.C,R6*%
X103700000Y-90650000D03*
X103700000Y-87550000D03*
%TD*%
D13*
%TO.C,R5*%
X100000000Y-80150000D03*
X100000000Y-83250000D03*
%TD*%
D14*
%TO.C,R4*%
X100000000Y-90650000D03*
X100000000Y-87550000D03*
%TD*%
D13*
%TO.C,R3*%
X116000000Y-100450000D03*
X116000000Y-103550000D03*
%TD*%
D14*
%TO.C,R2*%
X113400000Y-103550000D03*
X113400000Y-100450000D03*
%TD*%
D13*
%TO.C,R1*%
X110750000Y-100450000D03*
X110750000Y-103550000D03*
%TD*%
D15*
%TO.C,TP13*%
X89500000Y-115200000D03*
%TD*%
%TO.C,TP12*%
X87000000Y-113100000D03*
%TD*%
%TO.C,TP11*%
X104800000Y-117700000D03*
%TD*%
%TO.C,TP10*%
X109900000Y-115500000D03*
%TD*%
%TO.C,TP9*%
X101700000Y-117700000D03*
%TD*%
%TO.C,TP8*%
X112100000Y-113200000D03*
%TD*%
%TO.C,TP7*%
X98300000Y-117700000D03*
%TD*%
%TO.C,TP6*%
X94900000Y-117600000D03*
%TD*%
D10*
%TO.C,TP4*%
X117700000Y-93300000D03*
%TD*%
%TO.C,TP3*%
X118700000Y-102900000D03*
%TD*%
%TO.C,TP15*%
X103050000Y-106200000D03*
%TD*%
D16*
%TO.C,U1*%
X107346750Y-80970000D03*
D17*
X107346750Y-83510000D03*
X107346750Y-86050000D03*
X107346750Y-88590000D03*
X107346750Y-91130000D03*
X107346750Y-93670000D03*
X107346750Y-96210000D03*
X107346750Y-98750000D03*
X107346750Y-101290000D03*
X107346750Y-103830000D03*
X107346750Y-106370000D03*
X107346750Y-108910000D03*
X107346750Y-111450000D03*
X107346750Y-113990000D03*
X107346750Y-116530000D03*
X92106750Y-116530000D03*
X92106750Y-113990000D03*
X92106750Y-111450000D03*
X92106750Y-108910000D03*
X92106750Y-106370000D03*
X92106750Y-103830000D03*
X92106750Y-101290000D03*
X92106750Y-98750000D03*
X92106750Y-96210000D03*
X92106750Y-93670000D03*
X92106750Y-91130000D03*
X92106750Y-88590000D03*
X92106750Y-86050000D03*
X92106750Y-83510000D03*
X92106750Y-80970000D03*
%TD*%
D10*
%TO.C,TP14*%
X97550000Y-106150000D03*
%TD*%
%TO.C,TP2*%
X118500000Y-96500000D03*
%TD*%
%TO.C,TP5*%
X118900000Y-99800000D03*
%TD*%
%TO.C,TP1*%
X118000000Y-106000000D03*
%TD*%
M02*
