%TF.GenerationSoftware,KiCad,Pcbnew,(6.0.8)*%
%TF.CreationDate,2022-11-18T04:38:56-05:00*%
%TF.ProjectId,Armstrong_v2.0,41726d73-7472-46f6-9e67-5f76322e302e,rev?*%
%TF.SameCoordinates,Original*%
%TF.FileFunction,Paste,Top*%
%TF.FilePolarity,Positive*%
%FSLAX46Y46*%
G04 Gerber Fmt 4.6, Leading zero omitted, Abs format (unit mm)*
G04 Created by KiCad (PCBNEW (6.0.8)) date 2022-11-18 04:38:56*
%MOMM*%
%LPD*%
G01*
G04 APERTURE LIST*
G04 Aperture macros list*
%AMRoundRect*
0 Rectangle with rounded corners*
0 $1 Rounding radius*
0 $2 $3 $4 $5 $6 $7 $8 $9 X,Y pos of 4 corners*
0 Add a 4 corners polygon primitive as box body*
4,1,4,$2,$3,$4,$5,$6,$7,$8,$9,$2,$3,0*
0 Add four circle primitives for the rounded corners*
1,1,$1+$1,$2,$3*
1,1,$1+$1,$4,$5*
1,1,$1+$1,$6,$7*
1,1,$1+$1,$8,$9*
0 Add four rect primitives between the rounded corners*
20,1,$1+$1,$2,$3,$4,$5,0*
20,1,$1+$1,$4,$5,$6,$7,0*
20,1,$1+$1,$6,$7,$8,$9,0*
20,1,$1+$1,$8,$9,$2,$3,0*%
G04 Aperture macros list end*
%ADD10RoundRect,0.250000X0.650000X-0.412500X0.650000X0.412500X-0.650000X0.412500X-0.650000X-0.412500X0*%
%ADD11RoundRect,0.250000X-0.650000X0.412500X-0.650000X-0.412500X0.650000X-0.412500X0.650000X0.412500X0*%
%ADD12R,1.800000X0.650000*%
%ADD13R,6.600000X2.300000*%
%ADD14R,1.900000X0.950000*%
%ADD15R,1.900000X3.250000*%
%ADD16R,0.300000X1.400000*%
%ADD17R,1.880000X1.570000*%
G04 APERTURE END LIST*
D10*
%TO.C,C2*%
X89850000Y-95212500D03*
X89850000Y-92087500D03*
%TD*%
D11*
%TO.C,C1*%
X109800000Y-106387500D03*
X109800000Y-109512500D03*
%TD*%
D12*
%TO.C,Q\u002A\u002A2*%
X97375000Y-114895000D03*
X97375000Y-116165000D03*
X97375000Y-117435000D03*
X97375000Y-118705000D03*
X102625000Y-118705000D03*
X102625000Y-117435000D03*
X102625000Y-116165000D03*
X102625000Y-114895000D03*
%TD*%
D13*
%TO.C,L1*%
X85000000Y-94632500D03*
X85000000Y-98932500D03*
%TD*%
D12*
%TO.C,Q\u002A\u002A3*%
X97375000Y-79895000D03*
X97375000Y-81165000D03*
X97375000Y-82435000D03*
X97375000Y-83705000D03*
X102625000Y-83705000D03*
X102625000Y-82435000D03*
X102625000Y-81165000D03*
X102625000Y-79895000D03*
%TD*%
%TO.C,Q\u002A\u002A1*%
X87625000Y-105787500D03*
X87625000Y-104517500D03*
X87625000Y-103247500D03*
X87625000Y-101977500D03*
X82375000Y-101977500D03*
X82375000Y-103247500D03*
X82375000Y-104517500D03*
X82375000Y-105787500D03*
%TD*%
D14*
%TO.C,Q2*%
X96950000Y-88000000D03*
X96950000Y-90300000D03*
X96950000Y-92600000D03*
D15*
X103050000Y-90300000D03*
%TD*%
D16*
%TO.C,U2*%
X112200000Y-102200000D03*
X112700000Y-102200000D03*
X113200000Y-102200000D03*
X113700000Y-102200000D03*
X114200000Y-102200000D03*
X114200000Y-97800000D03*
X113700000Y-97800000D03*
X113200000Y-97800000D03*
X112700000Y-97800000D03*
X112200000Y-97800000D03*
D17*
X113200000Y-100000000D03*
%TD*%
D14*
%TO.C,Q1*%
X103050000Y-101100000D03*
X103050000Y-98800000D03*
X103050000Y-96500000D03*
D15*
X96950000Y-98800000D03*
%TD*%
M02*
